<?xml version="1.0" encoding="UTF-8"?>
<!DOCTYPE svg PUBLIC "-//W3C//DTD SVG 1.1//EN" "http://www.w3.org/Graphics/SVG/1.1/DTD/svg11.dtd">
<!-- Creator: CorelDRAW X8 -->
<svg xmlns="http://www.w3.org/2000/svg" xml:space="preserve" width="107px" height="50px" version="1.1" style="shape-rendering:geometricPrecision; text-rendering:geometricPrecision; image-rendering:optimizeQuality; fill-rule:evenodd; clip-rule:evenodd"
viewBox="0 0 107 50"
 xmlns:xlink="http://www.w3.org/1999/xlink">
 <defs>
  <style type="text/css">
   <![CDATA[
    .fil1 {fill:#AFA564;fill-rule:nonzero}
    .fil0 {fill:white;fill-rule:nonzero}
   ]]>
  </style>
 </defs>
 <g id="Capa_x0020_1">
  <metadata id="CorelCorpID_0Corel-Layer"/>
  <path class="fil0" d="M31 15c0,0 -1,0 -1,0 -2,0 -3,2 -4,3l0 0c0,0 0,0 1,0 0,0 0,0 0,0 0,0 0,0 1,1l0 0c0,0 0,0 0,0 0,-1 1,-1 3,-1 0,0 0,0 1,1 0,0 0,0 0,0 0,-1 0,-1 1,-1 0,0 0,0 0,0 0,0 0,0 0,0 0,-2 1,-3 3,-4 1,-1 3,-1 5,-1 1,0 3,0 5,0 1,1 2,1 2,1 1,-1 2,-1 3,-2 1,0 2,-1 4,-1 0,0 1,0 1,1 1,0 2,1 2,2 0,0 0,0 0,0 1,1 2,1 3,2 1,1 1,2 1,3 0,1 0,1 0,1 0,0 0,1 0,1 0,0 0,0 0,0 0,0 0,0 0,0 0,-1 0,-1 0,-1 0,0 0,0 0,-1 0,-1 0,-2 -1,-3 -1,-1 -2,-1 -4,-1 0,-1 0,-1 0,-1 0,-1 0,-2 -1,-2 0,0 -1,0 -1,0 -2,0 -3,0 -4,0 -1,1 -2,1 -3,2 0,0 -1,0 -2,0 -2,-1 -4,-1 -5,-1 -2,0 -4,0 -5,1 -2,1 -3,2 -3,4 0,0 0,0 0,1 0,0 0,0 0,0 -1,0 -1,0 -1,0 0,0 0,0 0,0 -1,0 -1,0 -1,0 -2,0 -3,0 -3,0 0,0 0,0 0,0l0 0c-1,0 -1,0 -1,0 0,0 0,0 0,0 -1,0 -1,0 -1,0 0,0 0,0 0,0 1,-2 2,-4 4,-4 0,0 1,-1 1,-1l0 0 0 0c0,0 1,-1 1,-2 0,0 0,-1 -1,-1 0,0 0,0 -1,0 0,0 0,-1 0,-1 -2,0 -5,1 -7,2 -1,1 -2,1 -3,2 0,-1 -1,-2 -2,-3 -1,-1 -3,-2 -5,-2 -2,0 -4,1 -5,1 -1,2 -2,3 -2,5 0,0 0,1 1,2 -1,0 -1,0 -1,0l0 0c0,0 -1,0 -1,0l0 0 0 0 -1 0 0 0c0,0 0,0 0,0 0,0 0,0 0,0 -1,0 -1,0 -1,0l0 0c-1,0 -2,1 -2,2 0,0 1,1 1,1 0,0 0,0 0,0 0,0 0,0 0,1l0 1c0,0 0,1 0,1l0 0 0 0c0,0 0,0 0,0 0,1 0,1 0,1 0,1 0,2 1,2 0,0 0,0 1,0 0,0 0,0 0,0 0,0 0,0 0,0l0 0 0 0 0 0 0 0c0,0 0,0 0,0 1,0 1,0 1,0 0,0 0,0 0,0l0 0c1,0 1,0 1,0 1,0 1,0 1,0 0,0 0,0 0,0 0,0 1,0 1,0 0,0 0,0 0,0l0 0c0,0 0,0 0,0l0 0c0,1 0,1 0,1 0,1 0,1 0,1 0,1 0,2 2,2 0,0 0,0 0,0 0,-1 0,-1 0,-1 0,0 1,0 1,0 1,0 1,1 2,1 0,0 0,0 0,0 1,0 1,-1 2,-1 0,0 0,-1 0,-1 0,1 1,1 2,1 0,0 1,0 1,-1 0,3 1,5 2,6 1,2 3,3 5,3 1,0 2,0 3,-1 0,0 0,0 0,0 0,0 0,0 0,1 0,0 0,0 0,0 0,0 0,0 0,0 -1,0 -2,0 -3,0 -2,0 -4,-1 -5,-3 -1,-1 -2,-3 -2,-5 -1,0 -1,0 -1,0 -1,0 -1,0 -2,0 0,0 0,0 0,0 -1,0 -1,1 -2,1l0 0c-1,0 -1,0 -2,0 0,0 -1,0 -1,0 0,0 0,0 0,0 0,0 0,0 0,0 -2,0 -2,-1 -3,-2 0,0 0,0 0,-1 0,0 0,0 1,0 -1,0 -1,0 -1,0l0 0c0,0 0,0 -1,0 0,0 0,0 -1,0l0 0c0,0 0,0 0,0 0,0 0,0 -1,0 0,0 0,0 0,0l0 0 0 0 0 0 0 0c0,0 0,0 0,0 0,0 0,0 0,0 -1,0 -1,-1 -1,-1 -1,0 -2,-1 -2,-2 0,0 0,0 1,-1 0,0 0,0 0,0 0,0 0,-1 0,-1l0 -1c0,0 0,-1 0,-1l0 0c0,0 -1,-1 -1,-1 0,-1 1,-2 1,-2l0 0c1,0 1,-1 2,-1 0,0 0,1 0,1 0,0 0,0 0,0l0 0 1 0 0 0 0 0c0,0 1,0 1,0 0,-1 0,-1 0,-1 0,0 0,-1 0,-1 0,-2 1,-3 2,-5 1,-1 3,-1 5,-1 2,0 4,1 5,2 1,1 2,2 2,3 1,-1 2,-2 3,-2 2,-1 4,-2 7,-2 0,0 0,0 0,0 1,0 1,0 1,0 1,1 1,2 1,2 0,1 0,2 -1,3l0 0 0 0zm-1 -2c0,0 0,0 0,-1 0,0 0,0 0,0 -5,0 -8,3 -11,6 -1,-4 -3,-7 -6,-7 -3,0 -5,2 -5,4 0,1 1,2 3,2 2,0 3,-1 3,-2 0,-1 -1,-1 -1,-1 0,0 0,0 0,0 0,0 0,0 0,0 0,1 0,1 0,1 0,1 -1,2 -2,2 -1,0 -2,-1 -2,-2 0,-2 1,-4 4,-4 1,0 3,1 4,3l-6 12c0,1 0,1 -1,1 0,0 0,0 0,0 0,1 0,1 0,1 0,0 1,0 1,0 1,0 2,0 2,0 0,0 0,0 0,-1 0,0 0,0 0,0 0,0 0,0 0,0 -1,0 -1,0 -1,0 0,0 0,0 0,-1l5 -11c1,1 1,2 1,4 -2,2 -3,5 -3,6 0,1 1,2 2,2 2,0 3,-3 3,-6 0,-1 0,-2 -1,-3 3,-2 6,-5 9,-5 0,0 0,0 0,0 0,0 0,0 0,0 -5,2 -8,9 -8,15 0,4 2,7 5,7 3,0 5,-2 5,-4 0,-2 -1,-3 -3,-3 -2,0 -2,2 -2,3 0,1 0,1 0,1 0,0 1,0 1,-1 0,0 0,0 0,0 -1,0 -1,-1 -1,-1 0,-1 1,-1 2,-1 1,0 2,1 2,2 0,2 -1,4 -4,4 -2,0 -4,-3 -4,-7 0,-6 3,-14 9,-15zm1 5c-1,0 -1,0 -1,0 0,0 0,0 1,0 0,0 0,0 0,0 0,0 0,0 0,0zm-1 0c0,0 -1,0 -1,0 0,0 1,0 1,0 0,0 0,0 0,0 0,0 0,0 0,0zm-1 0c0,0 0,0 0,0 0,0 0,0 0,0 0,0 0,0 0,0 0,0 0,0 0,0zm-23 -1c0,0 0,0 0,0 0,0 0,1 0,1 0,0 0,-1 0,-1 0,0 0,0 0,0zm-1 0c0,0 0,0 0,0 0,0 0,1 0,1 0,0 0,-1 0,-1 0,0 0,0 0,0zm-1 0c0,0 0,0 0,0 0,0 0,1 0,1 0,0 1,-1 1,-1 0,0 -1,0 -1,0zm75 11c0,0 1,0 1,0 0,0 -1,1 -1,1 0,0 0,-1 0,-1 0,0 0,0 0,0zm1 0c0,0 0,0 0,0 0,0 0,1 0,1 0,0 0,-1 0,-1 0,0 0,0 0,0zm1 0c0,0 0,0 0,0 0,0 0,1 0,1 0,0 0,-1 0,-1 0,0 0,0 0,0zm-3 0c0,0 0,0 0,0 0,0 0,1 0,1 1,0 1,-1 1,-1 0,0 0,0 -1,0zm0 0c-1,0 -1,0 -1,0 0,0 0,1 1,1 0,0 0,-1 0,-1 0,0 0,0 0,0zm-1 0c0,0 -1,0 -1,0 0,0 1,1 1,1 0,0 0,-1 0,-1 0,0 0,0 0,0zm2 -24c-1,1 -2,2 -2,4 -1,1 -1,3 -1,5 0,4 1,7 4,10 2,2 6,4 9,4 4,0 7,-2 10,-4 2,-2 4,-5 4,-9 0,0 0,0 0,0 0,0 0,0 0,0 0,0 1,0 1,0 0,0 -1,0 -1,0 0,4 -2,7 -4,9 -3,2 -6,4 -10,4 -3,0 -7,-2 -9,-4 -3,-3 -5,-6 -5,-10 0,-2 1,-4 1,-5 1,-2 2,-3 3,-4 0,0 0,0 0,0 0,-1 0,-1 0,-1 0,0 0,0 0,1 0,0 0,0 0,0 0,0 0,0 0,0zm-2 9c0,2 1,4 2,5 2,4 6,7 10,7 2,0 4,-1 6,-2 0,0 0,0 0,0 0,0 -1,0 -1,0 0,0 -1,0 -1,0 -1,0 -3,0 -4,0l0 -1 1 -1 0 -1 -1 0c0,0 0,0 0,0 0,0 0,0 0,0l0 0 0 0 -1 0 -1 -1c0,0 -1,-1 -2,-1l0 0 0 0 0 0c0,0 0,-1 -1,-1l0 0c-1,0 -1,0 -1,0 -1,0 -1,0 -1,0l-1 -1 -1 -1 0 0 1 -2 -1 -2 -1 -1c0,0 0,0 -1,0 0,0 1,-1 1,-1 0,0 0,0 0,0l0 0c0,0 0,0 0,0l0 0c0,-1 0,-1 0,-1l0 0c0,0 0,0 0,0l0 0c0,0 0,0 0,0l0 0c0,0 0,0 0,0l0 0 0 0 0 0 0 -1 0 0 0 0 0 0c0,0 0,0 0,0l0 0 0 0 0 0c0,0 0,0 0,0l0 0 0 0 0 0c0,0 0,0 0,0l1 0 0 0c0,0 0,0 0,0l0 0 0 0c1,-3 4,-5 7,-6 0,0 0,0 0,0 -6,1 -10,6 -10,12zm22 8c1,-2 1,-3 2,-5 0,0 0,-1 0,-1 0,-1 0,-1 0,-1 0,-1 0,-1 0,-1l0 0 0 0c0,0 0,0 0,0 0,-5 -3,-9 -7,-11 -1,1 -2,2 -3,4l6 4 -4 -3c-1,0 -1,0 -1,0 -1,0 -2,0 -3,2 0,0 0,0 0,1l0 0 1 2 0 1 0 1 -1 2c0,0 1,1 1,1l1 0 2 1 0 1 6 2zm1 -4l-1 1 -1 2 -4 -1c0,0 0,-1 0,-1 0,-1 -2,-1 -2,-1l4 -1c0,0 1,-1 1,-1 1,-1 1,-2 1,-2 0,0 0,0 1,-1 0,0 -1,-1 -1,-1l-1 0c0,0 1,-1 1,-2 0,-1 -1,-4 -4,-6 0,0 6,2 7,9 -1,0 -1,1 -1,1 0,0 0,0 1,1l0 0c0,0 -1,0 -1,1 0,0 0,1 0,1l0 1 0 0 -1 -1 1 1 0 0zm-6 -6l-3 -3 5 3 0 0 0 0 0 0 0 0c0,0 0,0 0,0l2 1 -1 0c0,0 0,1 0,2 0,0 -1,1 -1,1l-2 1 1 -1c-1,0 -1,0 -1,0 -1,0 -2,-1 -1,-3 0,0 1,-1 1,-1zm-9 -5c1,0 1,0 2,0 0,-1 0,-1 0,-2 -1,0 -1,0 -2,0 0,1 0,1 0,2zm0 9c1,1 1,1 2,0 0,0 0,-1 0,-1 -1,-1 -1,-1 -2,0 0,0 0,1 0,1zm-5 1l1 2 0 1c0,0 0,0 0,0 -1,-1 -1,-2 -2,-3l1 0zm7 9c0,0 0,0 0,0 0,1 0,1 0,1 0,0 0,0 0,-1 0,0 0,0 0,0zm1 0c0,0 -1,0 -1,1 0,0 1,0 1,0 0,0 0,0 0,0 0,-1 0,-1 0,-1zm3 0c0,0 0,0 0,1 0,0 0,0 0,0 0,0 0,0 0,0 0,-1 0,-1 0,-1zm-1 0c0,0 0,1 0,1 0,0 0,0 0,0 0,0 1,0 1,0 0,0 -1,-1 -1,-1zm-1 0c-1,0 -1,1 -1,1 0,0 0,0 1,0 0,0 0,0 0,0 0,0 0,-1 0,-1zm0 0c0,0 0,1 0,1 0,0 0,0 0,0 1,0 1,0 1,0 0,0 0,-1 -1,-1zm-9 13c0,1 0,3 0,4 0,0 0,0 -1,1 0,0 0,0 0,0 0,0 0,0 0,0 0,0 0,0 0,0 1,0 2,0 2,0 0,0 1,0 2,0 0,0 0,0 0,0 0,0 0,0 0,0 0,0 -1,0 -1,0 0,-1 0,-1 0,-1 -1,-1 -1,-3 -1,-4l0 -1c0,0 0,0 1,0l2 0c0,0 0,0 0,0 3,5 9,10 15,10 2,0 4,-1 5,-2 0,0 0,0 0,0 0,0 0,0 0,0 0,0 0,0 0,0 -1,1 -2,1 -3,1 -7,0 -12,-4 -16,-9 2,-2 2,-3 2,-4 0,-1 -1,-2 -1,-3 -1,0 -2,0 -3,0 -1,0 -2,0 -2,0 0,0 -1,0 -2,0 0,0 0,0 0,0 0,0 0,0 0,0 0,0 0,0 0,0 1,0 1,0 1,1 0,0 0,1 0,4l0 3zm1 -8c0,0 0,0 1,0 0,0 0,0 1,0 2,0 3,1 3,4 0,1 -1,2 -1,2 -1,1 -1,1 -2,1 0,0 -1,0 -1,-1 -1,0 -1,0 -1,0l0 -6zm-51 6c0,3 2,7 7,7 4,0 7,-3 7,-7 0,-4 -3,-7 -7,-7 -5,0 -7,4 -7,7zm2 0c0,-4 2,-6 5,-6 3,0 5,2 5,6 0,6 -3,6 -5,6 -3,0 -5,-2 -5,-6zm16 7c1,0 2,0 2,-1 2,-1 2,-2 2,-3 0,-1 -1,-2 -3,-4l0 0c-2,-1 -2,-2 -2,-3 0,-1 1,-2 2,-2 1,0 2,1 2,1 0,0 0,1 0,1 0,0 0,0 0,0 0,0 1,0 1,0 0,-2 0,-2 0,-2 0,0 0,0 -1,0 0,0 0,0 0,0 -1,-1 -1,-1 -2,-1 -2,0 -3,2 -3,3 0,2 0,3 2,4l1 1c1,1 2,2 2,3 0,1 -1,2 -3,2 -1,0 -2,0 -2,-1 -1,-1 -1,-1 -1,-1 0,0 0,0 0,0 0,0 0,0 0,0 0,0 0,1 0,2 0,0 0,0 0,1 1,0 2,0 3,0zm13 0c1,0 2,0 3,0 0,0 0,0 0,-1 0,0 1,-2 1,-2 0,0 0,0 0,0 -1,0 -1,0 -1,0 0,0 0,1 0,1 -1,1 -2,1 -3,1 -4,0 -7,-3 -7,-6 0,-2 1,-3 2,-5 1,0 2,-1 4,-1 2,0 3,0 3,1 1,0 1,1 1,2 0,0 0,0 0,0 0,0 0,0 1,0 0,0 0,-1 0,-2 0,-1 0,-1 0,-1 0,0 0,0 -1,0 0,0 -1,0 -1,0 -1,-1 -2,-1 -3,-1 -3,0 -4,1 -5,2 -2,2 -2,4 -2,5 0,2 0,4 2,5 1,1 3,2 6,2zm5 -6c0,3 1,4 2,5 1,1 3,1 3,1 1,0 3,0 4,-1 1,-1 2,-4 2,-5l0 -2c0,-3 0,-4 0,-4 0,-1 0,-1 0,-1 0,0 1,0 1,0 0,0 0,0 0,0 0,0 0,0 0,0 -1,0 -2,0 -2,0 0,0 -1,0 -2,0 0,0 0,0 0,0 0,0 0,0 0,0 0,0 0,0 1,0 0,0 0,0 0,1 0,0 0,1 0,4l0 2c0,2 0,3 -1,4 0,1 -1,1 -2,1 -1,0 -2,0 -3,-1 -1,0 -1,-1 -1,-4l0 -2c0,-3 0,-4 0,-4 0,-1 0,-1 0,-1 1,0 1,0 1,0 0,0 0,0 0,0 0,0 0,0 0,0 -1,0 -2,0 -2,0 0,0 -1,0 -2,0 0,0 0,0 0,0 0,0 0,0 0,0 0,0 0,0 0,0 1,0 1,0 1,1 0,0 0,1 0,4l0 2zm24 -1c0,3 2,7 7,7 4,0 7,-3 7,-7 0,-4 -3,-7 -7,-7 -5,0 -7,4 -7,7zm1 0c0,-4 3,-6 6,-6 2,0 5,2 5,6 0,6 -3,6 -5,6 -3,0 -6,-2 -6,-6zm-87 -14c0,1 0,2 0,2 0,0 0,0 0,0 0,0 0,0 0,0 0,0 0,0 0,0 0,0 0,0 0,0 0,0 0,0 0,0 0,0 0,0 0,0 1,0 1,0 1,0 0,0 1,0 1,0 1,0 1,0 1,0 0,0 0,0 0,-1 0,0 0,0 0,0 0,0 0,0 0,0 0,1 0,1 0,1 -1,0 -1,0 -1,0 -1,0 -1,0 -1,-1 0,0 0,-1 0,-1l0 0c0,0 0,0 0,0 0,0 1,0 1,0 0,0 0,0 0,0 0,0 0,0 0,0 0,0 0,0 1,0 0,0 0,0 0,0 0,0 0,0 0,-1 0,0 0,0 0,0 0,0 0,0 0,0 0,0 0,0 0,0 -1,0 -1,0 -1,0 0,0 -1,0 -1,0 0,0 0,0 0,0l0 -2c0,0 0,0 0,0 0,0 1,0 1,0 0,0 0,0 1,0 0,0 0,0 0,0 0,1 0,1 0,1 0,0 0,0 0,0 0,-1 0,-1 0,-1 0,0 0,0 0,0 0,0 0,0 0,0 0,0 0,0 0,0 0,0 -1,0 -1,0 0,0 -2,0 -2,0 0,0 0,0 0,0 -1,0 -1,0 -1,0 0,0 0,0 0,0 1,0 1,0 1,0 0,0 0,0 0,0 0,0 0,1 0,2l0 1zm5 -1c0,-1 0,-2 0,-2 0,0 0,0 0,0 0,0 0,0 0,0 0,0 0,0 0,0 0,0 0,0 0,0 0,0 -1,0 -1,0 0,0 0,0 -1,0 0,0 0,0 0,0 0,0 0,0 0,0 0,0 0,0 0,0 1,0 1,0 1,0 0,0 0,1 0,2l0 1c0,1 0,2 0,2 0,0 0,0 0,0 0,0 -1,0 -1,0 0,0 0,0 0,0 0,0 0,0 0,0 1,0 1,0 1,0 0,0 0,0 0,0 0,0 1,0 1,0 0,0 1,0 1,0 1,0 1,0 1,0 0,0 0,0 0,-1 0,0 0,0 0,0 0,0 0,0 0,0 0,1 0,1 0,1 0,0 -1,0 -1,0 -1,0 -1,0 -1,0 0,0 0,-1 0,-2l0 -1zm7 4c0,-1 1,-3 2,-6 1,1 1,2 1,3 0,2 -1,4 -2,4 -1,0 -1,0 -1,-1zm21 2c-1,0 -1,0 -1,-1 0,0 2,-4 2,-5 0,0 0,0 0,0 -2,0 -3,1 -4,2 0,0 0,0 0,0 0,-2 1,-2 1,-2 0,0 0,0 -1,0 0,0 0,0 0,0 -1,0 -1,0 -1,0 0,0 0,0 0,0 0,0 0,0 0,0 0,0 0,0 0,0 0,0 0,1 -2,4 0,1 -1,3 -1,3 0,0 0,0 0,0 0,0 1,0 1,0 0,0 1,0 1,0 0,0 1,-4 1,-4 1,-1 3,-3 4,-3 0,0 0,0 0,1 0,1 -2,4 -2,5 0,1 0,1 1,1 1,0 2,-2 2,-2 0,0 0,0 0,0 0,-1 0,-1 0,-1 0,0 0,0 0,0 0,1 -1,2 -1,2zm-8 -4c-1,2 -3,4 -4,4 0,0 0,0 0,-1 0,0 0,0 0,-1 2,-3 2,-4 2,-4 0,0 0,0 0,0 0,0 -1,0 -1,0 0,0 -1,0 -1,0 0,0 0,0 0,0 0,0 0,0 0,0 0,0 1,0 1,0 0,0 -1,1 -2,4 0,1 -1,2 -1,2 0,1 0,1 1,1 1,0 3,-2 4,-3 0,0 0,0 0,0 0,0 0,0 0,0 -1,1 -1,2 -1,2 0,1 0,1 1,1 1,0 2,-2 3,-2 0,0 0,0 0,0 0,-1 0,-1 0,-1 0,0 -1,0 -1,0 0,1 -1,2 -1,2 0,0 0,0 0,-1 0,0 0,0 0,-1 1,-3 2,-4 2,-4 0,0 0,0 0,0 -1,0 -1,0 -1,0 0,0 -1,1 -1,2zm26 -10c-2,0 -4,1 -6,3 -2,0 -6,-1 -8,-1 -4,0 -6,1 -6,3 0,0 1,1 2,1 2,0 4,-1 4,-2 0,0 0,0 0,0 0,0 0,0 0,0 -1,1 -2,2 -3,2 -2,0 -3,-1 -3,-1 0,-1 2,-2 6,-2 3,0 5,0 8,0 -1,2 -2,3 -3,5 -1,0 -1,-1 -2,-1 -1,0 -2,1 -3,2 -1,1 -2,3 -2,5 0,0 0,1 1,1 1,0 3,-2 3,-3 0,1 0,1 0,2 0,0 0,1 1,1 1,0 2,-2 3,-2 0,0 0,0 0,0 0,-1 0,-1 0,-1 0,0 0,0 -1,0 0,1 -1,2 -1,2 0,0 0,0 0,-1 0,-1 2,-6 5,-10 4,0 6,-1 6,-2 0,0 -1,-1 -1,-1zm-10 9c0,0 -1,1 -1,2 -1,1 -2,3 -3,3 -1,0 -1,-1 -1,-1 0,-1 1,-2 2,-4 0,-1 2,-1 2,-1 1,0 1,0 1,1l0 0zm10 -8c0,0 -2,2 -5,2 1,-1 3,-2 4,-2 1,0 1,0 1,0zm-3 6c-3,0 -5,4 -5,6 0,1 0,2 2,2 2,0 4,-3 4,-5 1,0 1,0 2,0 1,0 2,0 3,-1 2,1 4,1 6,1 2,0 3,-1 3,-1 0,-1 0,-1 -1,-1 0,0 0,0 0,0 0,1 -1,2 -3,2 -2,0 -3,-1 -5,-1 2,-1 2,-2 2,-3 0,-1 -1,-2 -3,-2 -1,0 -2,0 -2,1 0,0 1,1 1,1 0,0 0,0 0,-1 0,0 0,-1 1,-1 2,0 2,1 2,2 0,1 0,2 -1,3 -2,-1 -4,-2 -6,-2zm-4 6c0,-2 1,-4 3,-5 0,1 0,1 2,2 0,1 -2,4 -4,4 0,0 -1,-1 -1,-1zm5 -5c1,0 3,1 5,1 -1,0 -2,1 -3,1 -1,0 -1,0 -1,0 0,-1 0,-1 0,-1 0,0 -1,-1 -1,-1zm-2 0c1,0 1,1 1,1 0,0 -1,0 -1,-1zm-14 24c0,0 0,0 0,0 0,0 0,0 0,0 0,0 0,0 0,0 3,0 5,-1 6,-2 0,0 0,0 0,0 1,1 2,2 3,2 1,0 1,0 2,0 0,0 1,0 2,0 0,0 1,0 2,-1l0 0 0 0c0,0 1,-1 1,-2 0,1 0,1 0,1l0 0c1,1 2,1 4,2 1,0 2,0 4,0 0,0 1,0 2,0 1,0 1,0 2,0 0,0 0,0 0,0 0,-1 0,-1 1,-1 0,0 0,0 0,0 0,0 0,-1 0,-1l0 0 0 0 0 0c1,1 2,2 3,2 1,0 2,0 2,0 1,0 2,0 3,0 1,0 1,-1 2,-2 0,0 0,0 0,0 1,0 1,0 1,0 0,1 0,1 1,2 0,0 1,0 1,0 0,0 1,0 2,0l0 0c0,0 0,0 0,0 0,0 1,0 2,0 0,0 1,0 1,0 0,0 0,0 0,0 1,-1 1,-2 1,-2 0,0 0,-1 0,-1 1,1 3,2 4,3 3,3 6,4 10,4 1,0 3,0 4,-1 0,0 1,0 1,0 0,0 0,0 0,0 0,0 0,0 0,0 0,0 0,-1 0,-1 0,0 0,1 0,1 0,0 -1,0 -1,0 -1,0 -3,1 -4,1 -4,0 -7,-2 -10,-4 -2,-1 -4,-3 -6,-5 0,0 0,0 0,0 0,0 0,0 0,1 1,0 1,0 1,0 1,1 1,1 1,2 0,0 0,1 -1,1 0,0 0,0 0,1 0,0 -1,0 -1,0 -1,0 -2,0 -2,0l0 0 0 0c-1,0 -2,0 -2,0 0,0 -1,0 -1,0 -1,-1 -1,-1 -1,-2 0,0 0,0 0,0 0,0 0,0 -1,0 0,0 0,0 0,0 -1,1 -2,1 -2,2 -1,0 -2,0 -3,0 0,0 -1,0 -2,0 -1,0 -2,-1 -3,-2l0 0 0 0c0,0 0,0 0,0 0,0 0,0 0,1 0,0 0,0 0,0 -1,0 -1,0 -1,0 0,0 0,0 0,0 -1,1 -2,1 -2,1 -1,0 -2,0 -2,0 -2,0 -3,0 -4,-1 -1,0 -2,-1 -3,-1l0 0c-1,-1 -1,-1 -1,-1 0,1 -1,1 -2,2l0 0 0 0c0,0 -1,1 -1,1 -1,0 -2,0 -2,0 -1,0 -1,0 -2,0 -1,0 -2,-1 -3,-2 0,0 0,0 0,0 -1,1 -3,2 -6,2 0,0 0,0 0,0zm66 -3c0,0 -1,1 -1,1 0,0 1,0 1,0 0,0 0,0 0,0 0,0 0,0 0,0 0,0 0,0 0,0 2,-2 3,-5 3,-7 0,-3 -1,-5 -3,-6 -1,-2 -4,-3 -6,-3 -3,0 -5,1 -7,3 0,0 0,1 -1,1 0,0 0,0 0,-1 -1,0 -1,-1 -2,-1l0 0 0 0c0,-1 -1,-1 -2,-1 -1,-1 -1,-1 -2,-1 0,0 -1,0 -2,0 0,0 0,0 0,0l0 0c-1,0 -2,0 -2,0 0,0 -1,0 -1,0 0,0 0,0 0,0 -1,0 -1,0 -2,0 0,0 0,0 0,0 0,0 0,0 0,0 -1,0 -1,0 -2,0 0,0 -1,0 -1,1l0 0 0 0c-1,0 -1,1 -1,2 0,1 0,1 1,2 0,0 0,0 0,0l0 0c0,0 0,1 0,3l0 2c0,1 0,1 0,2 0,0 0,1 0,1l0 0c0,0 -1,0 -1,0 0,0 0,0 0,0 -1,0 -1,0 -1,0 0,0 0,0 -1,0l0 0c0,0 0,0 0,-1 0,0 0,-1 0,-2l0 -2c0,-2 0,-3 0,-3 0,0 0,0 0,0 1,-1 1,-1 1,-2 0,-1 0,-2 -1,-2 0,0 0,0 0,0 -1,-1 -1,-1 -1,-1 -1,0 -1,0 -2,0 0,0 0,0 0,0 0,0 0,0 0,0 -1,0 -2,0 -2,0 0,0 -1,0 -1,1 0,0 -1,0 -1,-1l0 0c0,0 -1,0 -1,0 -1,0 -1,0 -2,0 -2,0 -3,0 -4,1 -1,0 -2,1 -2,1 0,0 -1,-1 -1,-1 0,0 0,0 0,0 1,-1 2,-2 2,-3 1,0 1,0 2,0 0,0 1,0 1,-1 1,1 2,1 2,1 1,0 2,1 4,1 1,0 2,-1 3,-1 2,-1 2,-2 2,-3 0,-1 0,-2 0,-2 -1,-1 -2,-1 -2,-1 -1,0 -1,0 -1,0 0,0 0,0 0,0 0,0 0,0 0,0 0,0 1,0 1,0 0,0 1,1 1,1 1,1 1,1 1,2 0,1 -1,2 -2,3 -1,0 -2,0 -3,0 -2,0 -3,0 -4,0 0,0 -1,-1 -2,-1 0,0 -1,0 -1,1 -1,0 -1,0 -2,0 -1,1 -1,2 -2,3 0,0 0,0 -1,0 1,0 1,0 1,0 0,1 0,1 0,2l0 0c1,-1 2,-1 3,-2 1,0 3,-1 4,-1 1,0 1,0 2,0 0,1 0,1 1,1l0 0c0,0 1,0 1,0 0,0 1,0 1,0 0,0 1,0 2,0 0,0 0,0 0,0 0,0 0,0 0,0 1,0 1,0 2,0 0,0 0,0 0,0 1,0 1,0 1,0 0,0 1,1 1,2 0,0 0,1 -1,1 0,0 0,1 0,1 0,0 0,1 0,3l0 2c0,1 0,2 0,2 0,1 0,1 0,1l0 0c1,0 1,0 1,0 0,0 0,1 1,1 0,0 0,-1 0,-1 1,0 1,0 1,0l0 0c0,0 0,-1 0,-1 0,-1 1,-1 1,-2l0 -2c0,-2 0,-3 0,-3 0,0 0,0 0,0 -1,0 -1,-1 -1,-1 -1,0 -1,-1 -1,-1 0,-1 0,-2 1,-2l0 0 0 0c0,0 1,0 1,0 1,0 1,0 2,0 0,0 0,0 0,0 0,0 0,0 0,0 1,0 1,0 2,0 0,0 0,0 0,0 0,0 1,0 1,0 0,0 1,0 2,0 0,0 0,0 0,0 0,0 0,0 0,0 1,0 2,0 2,0 0,0 1,0 2,0 1,0 1,0 2,1l0 0 0 0c1,0 1,1 2,2 0,0 0,0 0,1 0,-1 1,-2 2,-2 1,-2 3,-3 6,-3 2,0 4,1 6,3 2,1 3,3 3,6 0,2 -1,5 -3,6 0,0 0,0 0,0 0,0 0,0 0,0zm-90 -23c-1,0 -1,0 -2,0 0,0 0,1 0,1 0,0 0,0 -1,0l0 1 0 0c1,0 1,0 1,0 0,0 0,0 0,0l2 -2zm-9 7c0,0 1,0 0,0l0 0zm8 -7l-1 2c0,0 0,0 0,0 0,0 0,0 0,0l0 0 0 -1c0,0 0,0 0,0 0,0 0,0 0,-1 1,0 1,0 1,0zm72 22c0,0 0,0 0,0 0,0 0,-1 0,-1l0 1zm-80 -14c0,0 1,0 0,0l0 0z"/>
  <path class="fil1" d="M89 0c0,0 0,0 0,0 -4,0 -7,2 -9,4 -2,2 -4,6 -4,9 0,4 2,7 4,9 2,2 4,3 6,4l0 0c-2,-1 -5,-2 -6,-4 -3,-2 -4,-5 -4,-9 0,-3 1,-7 4,-9 2,-2 5,-4 9,-4 0,0 0,0 0,0 0,0 0,0 0,0 1,0 1,0 1,0 0,0 0,1 -1,1 0,0 0,0 0,-1zm-32 19c0,1 -1,1 -1,1 0,0 1,1 1,1l0 0c0,0 0,0 0,-1 0,0 0,0 0,0 0,-1 0,-1 0,-1 0,0 0,0 0,0zm-15 25c0,0 0,0 0,0 0,1 0,1 0,1 0,0 0,0 0,0 1,1 3,1 3,1 1,0 2,0 2,0 1,0 2,0 2,0 1,0 2,0 2,-1l1 0 0 0c0,0 0,-1 1,-1 1,1 2,1 3,2 1,0 3,0 4,0 1,0 2,0 2,0 1,0 2,0 2,0 0,0 1,0 1,0 0,-1 0,-1 1,-1l0 0c1,1 2,1 3,1 1,0 1,0 2,0 1,0 1,0 2,0 1,0 2,-1 3,-1 0,0 1,1 1,1 1,0 1,0 2,0 0,0 1,0 1,0l0 0c0,0 0,0 0,0 1,0 2,0 2,0 1,0 1,0 2,0 0,0 0,0 0,0 1,-1 1,-1 1,-2 1,1 2,2 3,3 3,2 6,3 10,3 2,0 3,0 4,-1 2,0 2,0 3,0 0,0 0,0 0,-1l0 0c1,0 1,0 1,0 1,-1 1,-1 1,-2 0,0 0,0 0,0 0,0 0,0 0,0 0,0 -1,0 -1,0 0,0 0,0 1,0 0,1 -1,1 -1,1 0,1 -1,1 -1,1l0 0c0,0 0,0 0,0 -1,1 -2,1 -3,1 -1,1 -2,1 -4,1 -3,0 -7,-2 -10,-4 -1,0 -2,-1 -3,-2 0,0 0,1 -1,1 0,0 0,1 0,1 -1,0 -1,0 -2,0 0,0 -1,0 -2,0 0,0 0,0 0,0l0 0c0,0 -1,0 -1,0 -1,0 -1,0 -2,0 0,-1 -1,-1 -1,-2 -1,1 -2,2 -3,2 -1,0 -1,0 -2,0 -1,0 -1,0 -2,0 -1,0 -2,-1 -3,-1 0,0 0,0 0,0 -1,0 -1,0 -1,0 -1,0 -1,1 -1,1 0,0 -1,0 -2,0 0,0 -1,0 -2,0 -1,0 -3,0 -4,0 -1,-1 -2,-2 -3,-2 -1,0 -1,1 -2,1l0 0 0 0c0,0 -1,1 -2,1 0,0 -1,0 -2,0 0,0 -1,0 -1,0 -1,0 -3,-1 -3,-1 0,0 0,0 0,-1 0,0 0,0 -1,0zm64 -8c0,0 0,1 0,1 0,0 0,0 0,0 0,0 0,0 0,0 0,0 0,-1 0,-1l0 0c0,-2 -1,-5 -3,-6 -2,-2 -4,-3 -7,-3 0,0 -1,0 -1,0l0 0c2,-1 3,-2 5,-3 0,0 0,0 0,0 0,0 0,-1 0,-1 0,0 0,0 0,0 0,0 -1,0 -1,0 0,0 1,0 1,0 -2,2 -3,3 -5,4 -2,0 -4,1 -6,1 -4,0 -8,-2 -10,-4 -3,-3 -5,-7 -5,-11 0,0 0,-1 0,-2 0,0 0,-1 1,-1 0,0 0,0 0,0 0,-1 0,-1 0,-1 -1,0 -1,0 -1,1 0,0 0,0 0,0 0,0 0,1 0,1 0,1 0,2 0,2 0,4 2,8 4,11 2,1 4,2 5,3 0,0 0,0 -1,0 0,0 -1,0 -1,0 0,0 0,0 -1,0 0,0 0,0 0,0 0,0 -1,0 -2,0 0,0 0,0 0,0 -1,0 -1,0 -1,0 0,0 -1,0 -1,0 0,0 0,0 0,0 -1,0 -1,0 -1,0 0,0 -1,0 -1,0 -1,0 -1,0 -2,0l0 0 0 0c0,1 -1,1 -1,2 0,-1 -1,-1 -1,-2 -1,0 -1,0 -1,0 0,0 0,0 -1,0 0,0 -1,0 -1,0 0,0 0,0 -1,0 0,0 0,0 0,0 0,0 -1,0 -2,0 0,0 0,0 -1,0 0,0 0,0 0,0l0 0c-1,0 -1,0 -2,0 0,0 -1,0 -1,0 -2,0 -4,0 -5,1 0,0 -1,0 -2,1 0,-1 0,-1 0,-1 1,0 1,-1 2,-2 0,0 1,0 1,0 1,0 1,0 2,0 0,0 1,0 2,0 1,0 2,1 3,1 2,0 3,-1 4,-1 2,-1 2,-2 2,-3 1,-1 1,-1 1,-1 0,0 0,0 -1,0 0,0 0,0 0,0 0,0 0,0 0,1 0,1 -1,2 -2,3 -1,0 -2,0 -4,0 -1,0 -2,0 -3,0 -1,0 -2,0 -2,-1 -1,1 -1,1 -2,1 0,0 -1,0 -1,0 -1,1 -1,2 -2,2 0,1 0,1 0,1 1,-1 2,-1 2,-1 1,-1 3,-1 5,-1 0,0 1,0 1,0 1,0 1,0 2,0l0 0c0,0 0,1 0,1 1,-1 1,-1 1,-1 1,0 2,0 2,0 0,0 0,0 0,0 1,0 1,0 1,0 0,0 1,0 1,0 0,0 1,0 1,1 0,0 0,0 0,0 1,0 2,0 2,1 0,-1 1,-1 1,-1l0 0 0 0c1,-1 1,-1 2,-1 0,0 1,0 1,0 0,0 0,0 1,0 0,0 0,0 0,0 0,0 1,0 1,0 0,0 0,0 1,0 0,0 0,0 0,0 1,0 2,0 2,0 0,0 0,0 0,0 1,0 1,0 1,0 0,0 1,0 1,0 1,0 2,0 2,1 1,0 1,0 1,0 0,0 0,0 0,0 1,0 1,0 2,1l0 0 0 0c1,0 1,1 2,2 0,-1 0,-1 1,-1 0,-1 2,-2 3,-2 0,0 0,0 1,-1 0,0 1,0 2,0 3,0 5,1 7,3 2,1 3,4 3,6l0 0zm-14 -8c-1,0 -2,1 -3,2 0,0 0,0 0,0 -1,-1 -1,-1 -2,-2l0 0 0 0c0,0 0,0 -1,0 1,0 2,0 3,0 1,0 2,0 3,0zm-61 -12c-1,0 -1,0 -1,0 -1,0 -2,1 -3,2 0,0 0,0 0,0 1,0 1,0 1,0l0 0c0,0 0,0 -1,1 0,-1 0,-1 -1,-1 1,-1 2,-2 4,-2 0,0 0,0 1,-1l0 0 0 0c1,0 1,-1 1,-2 0,-1 0,-2 -1,-3 -1,0 -1,0 -1,0 0,0 0,0 -1,0 -2,0 -4,1 -6,2 -1,0 -2,1 -3,2 -1,-1 -1,-2 -2,-3 -1,-1 -3,-2 -6,-2 -2,0 -3,0 -5,1 -1,2 -2,3 -2,5 0,1 0,1 0,1 0,0 -1,0 -1,0l0 0 0 0 0 0 0 0c0,0 0,0 0,0 0,0 -1,0 -1,0 0,0 -1,1 -1,1l0 0c-1,0 -2,1 -2,2 0,1 1,1 1,2l0 0 0 2 0 0c0,0 0,0 0,0 -1,1 -1,1 -1,2 0,1 1,2 2,2 0,0 1,0 1,0 0,0 0,0 0,0l1 0c0,0 0,0 0,0 0,0 0,0 0,0l0 0 0 0c0,0 0,0 0,0 0,0 0,0 0,0 0,0 1,0 1,0l0 0c0,0 1,0 1,0 0,0 0,0 0,0 0,1 0,1 0,1 0,0 0,0 0,0 1,2 1,3 3,3 0,0 0,0 0,0 1,0 1,0 1,0 0,0 0,0 1,0 0,0 1,0 1,0 0,0 1,0 1,0 0,0 1,-1 2,-1 0,0 0,0 0,0 0,0 1,0 1,0 0,0 1,0 1,0 0,2 1,4 2,5 1,2 3,3 5,3 0,0 1,0 1,0 0,0 0,0 0,0 0,0 0,1 0,1 0,0 -1,-1 -1,-1 -2,0 -4,-1 -5,-3 -1,-1 -2,-3 -2,-5 -1,0 -1,0 -1,0 0,0 -1,0 -1,0 0,0 0,0 0,0 -1,1 -1,1 -2,1 0,0 -1,0 -1,0 0,0 -1,0 -1,0l-1 0c0,0 0,0 0,0 -1,0 -1,0 -1,0 -3,0 -3,-1 -3,-3 0,0 0,0 0,0 0,0 0,0 0,0l0 0c0,0 -1,0 -1,0l0 0c0,0 -1,0 -1,0 0,0 0,0 0,0 0,0 0,0 0,0l0 0 0 0 0 0c0,0 0,0 0,0l-1 0c0,0 0,0 0,0 0,0 -1,0 -1,-1 -1,0 -2,-1 -2,-2 0,-1 0,-1 0,-2 1,0 1,0 1,0l0 0 0 -2 0 0c-1,0 -1,-1 -1,-2 0,-1 0,-2 2,-2l0 0c0,-1 1,-1 1,-1 0,0 1,0 1,0 0,0 0,0 0,0l0 0 0 0 0 0 0 0c0,0 1,0 1,0 0,0 0,0 0,-1 0,-2 1,-3 2,-5 1,-1 3,-2 5,-2 3,0 5,2 6,3 1,1 1,1 2,2 1,0 2,-1 2,-1 3,-1 5,-2 7,-2 1,0 1,0 1,0 0,0 0,0 1,0 1,1 1,2 1,3 0,1 0,2 -1,3l0 0 0 0zm31 4c0,0 0,0 0,0 0,1 0,1 1,1 0,0 0,0 0,-1 0,0 0,0 0,0 0,0 0,0 0,0 0,-2 -1,-3 -2,-4 -1,-1 -2,-1 -3,-2 0,-1 -1,-2 -2,-2 0,-1 -1,-1 -2,-1 -1,0 -3,0 -4,1 -1,0 -2,1 -2,1 -1,0 -1,0 -2,0 -2,0 -4,-1 -6,-1 -2,0 -4,1 -5,1 -2,2 -3,3 -3,5 0,0 0,0 0,0 -1,0 -1,0 -1,0 0,0 -1,0 -1,0l0 0c0,0 1,0 1,1 0,-1 1,-1 1,-1 0,0 0,0 0,0 0,-2 1,-3 3,-4 1,-1 3,-1 5,-1 2,0 4,0 6,0 1,1 1,1 2,1 1,-1 1,-1 2,-2 1,0 3,-1 4,-1 1,0 2,0 2,1 1,0 2,1 2,2 0,0 0,0 0,0 1,1 2,1 2,2 2,1 2,2 2,4 0,0 0,0 0,0zm10 12c-1,0 -1,0 -1,-1 0,1 -1,1 -1,1 0,0 0,0 0,0 0,1 0,2 0,3l0 3c0,1 0,1 0,2 0,0 0,0 0,0l0 0c0,0 0,0 1,0 0,0 0,0 0,0 0,0 0,0 1,0 0,0 0,0 0,0 0,0 0,0 0,-1 0,0 0,-1 0,-2l0 -2c0,-2 0,-2 0,-2 0,0 0,-1 0,-1zm-68 -5l0 0c0,0 0,0 0,0zm68 6c0,0 0,0 0,0 0,0 0,0 0,2l0 2c0,1 0,2 0,2 0,0 0,1 0,1 0,0 0,0 -1,0 0,0 0,0 0,0 0,0 0,0 0,0 0,0 0,0 -1,0l0 0c0,0 0,0 0,-1 0,0 0,-1 0,-1l0 -3c0,-1 0,-2 0,-2 0,0 0,0 0,0 0,-1 1,-1 1,-1 0,0 0,0 1,1zm-68 -5c0,0 0,0 0,0l0 0zm45 -8c0,0 -1,0 -1,1 0,0 1,-1 1,-1l0 0zm1 -2c0,1 -1,1 -1,1l2 1c0,0 0,-1 0,-1 1,0 2,1 3,1l0 0c0,-1 -1,-1 -1,-2 0,0 1,0 1,-1 -1,1 -3,1 -4,1zm-12 0c0,0 0,0 0,0 0,0 0,0 0,0zm1 4c0,0 0,0 0,0 0,0 0,0 0,0l0 0c1,-1 2,-2 2,-2 1,0 2,-1 3,-1 0,0 0,1 0,1 1,-1 1,-2 1,-2l1 0c-1,0 -1,0 -1,0 -1,0 -2,0 -3,0 0,0 0,0 0,0 0,1 -1,2 -2,2 0,0 -1,0 -1,1 0,0 0,1 0,1zm-31 4l0 0c0,0 0,0 0,0zm-4 0c0,0 0,0 0,0l0 0zm89 7c0,1 -1,2 -1,3 0,2 1,3 2,4 0,1 1,1 3,1 0,0 1,0 2,-1 1,0 1,-1 1,-3 0,-2 0,-3 -1,-4 -1,-1 -2,-1 -3,-1 -1,0 -2,0 -3,1zm-29 6c0,0 0,0 0,0 0,-1 0,-1 0,-1l0 -3 0 0c0,0 0,0 0,0 -1,0 -1,0 -2,-1 0,0 0,-1 0,-1 0,0 0,0 0,0 0,0 0,0 0,0l0 0c0,-1 0,-1 -1,-1 0,0 -1,0 -2,0 -1,0 -1,0 -2,0 0,0 0,1 -1,1l0 0c0,0 0,1 0,1 -1,1 -1,2 -1,2 0,2 1,3 2,4 1,1 2,1 3,1 1,0 1,0 2,0 0,0 0,0 0,0 0,0 0,0 0,0 0,-1 0,-1 0,-1l0 0c1,0 1,0 1,-1 0,0 0,0 1,0zm-14 -4c0,0 1,0 1,1 0,-1 0,-2 0,-2 0,0 0,0 0,0 -1,0 -1,0 -2,-1 0,0 0,0 0,-1l0 0c0,0 0,0 0,0 0,0 0,0 0,0 0,0 0,0 0,0 0,0 0,0 -1,0 0,0 0,0 0,0 0,0 0,0 0,0 0,1 0,1 0,1 0,0 0,1 1,1l0 0 1 1zm-16 -2c-1,1 -1,2 -1,3 0,2 0,3 1,4 1,1 2,1 3,1 1,0 2,0 2,-1 1,0 1,-1 1,-3 0,-2 0,-3 -1,-4 -1,-1 -2,-1 -3,-1 -1,0 -2,0 -2,1zm9 -2c0,0 0,0 1,1 0,-1 0,-2 1,-2 0,-1 1,-1 1,-1 0,0 0,0 0,0 0,0 0,0 0,0l0 0c-1,0 -2,1 -3,1 0,0 -1,-1 -1,-1 -1,0 -1,0 -1,0 0,1 1,1 2,2zm2 5c0,1 0,2 0,3 0,0 0,0 0,0 0,0 1,0 1,1l0 0c0,0 0,0 0,0 0,1 0,1 0,1l0 0c0,0 0,0 0,0l0 0c0,0 1,0 1,0 0,0 0,0 1,0 0,0 0,0 0,0 1,0 1,0 1,0 0,-1 0,-1 -1,-1 0,-1 0,-1 -1,-2l-1 0c0,-1 -1,-1 -1,-2zm38 -4c0,0 0,0 -1,0l0 4c1,0 1,0 1,0 0,0 0,0 0,0 0,0 0,0 0,0l0 0c0,0 1,-1 1,-1l0 0c0,0 0,0 0,-1 0,-1 0,-1 -1,-2zm-70 -6c0,0 0,1 1,1 0,-1 -1,-1 -1,-1 0,0 1,-1 1,-1l-1 1zm-2 -11c0,-1 0,-2 1,-2 -1,0 -1,0 -1,1 -1,0 -1,1 -1,1 0,0 0,1 0,1 0,0 0,0 0,0 1,0 1,0 1,0 0,0 0,0 0,-1 0,0 0,0 0,0l0 0c0,0 0,0 0,0zm4 0c0,0 0,0 0,0l0 0c0,0 0,0 0,0zm-2 3c-1,1 -2,1 -3,1 0,0 0,0 0,0 0,1 0,1 0,1l0 0c0,0 -1,0 -1,0l0 1 0 2 0 0c1,-1 1,-1 1,-1 1,0 1,0 1,0l2 -4c0,0 0,0 0,0zm34 4c1,-1 2,-3 3,-4 1,0 3,0 4,-1 0,0 0,0 0,0 0,0 0,1 0,1 0,1 0,1 0,2 0,0 1,0 1,0 0,0 2,0 2,-1 0,0 0,0 0,-1 0,1 0,1 0,1 1,0 1,0 1,1 0,0 0,0 -1,1 0,0 0,0 0,0l0 0c-2,-1 -4,-1 -6,-1 0,0 0,0 0,0l-2 0 1 0c-1,1 -2,1 -3,2 0,0 0,0 0,0l0 0zm-8 -5c0,0 0,1 0,1l0 0c-1,0 -1,0 -2,0 0,0 0,0 -1,0 0,0 1,0 1,0 0,0 1,-1 2,-1l0 0zm-9 5c0,0 0,0 0,0 0,0 0,0 0,0 0,0 0,0 0,0zm9 0c0,-1 0,-1 0,-2 0,0 1,0 1,0 1,-1 2,-1 2,-2 0,0 0,-1 0,-1 1,0 2,0 3,1 0,0 1,0 1,0 0,0 0,0 0,0 -1,1 -1,1 -1,2 -1,0 -1,0 -1,0 -1,0 -2,0 -2,0 -1,1 -2,1 -2,2l0 0c-1,0 -1,0 -1,1 0,-1 0,-1 0,-1zm54 11c1,-1 2,-1 3,-1 1,0 2,0 3,1 1,1 1,2 1,4 0,2 0,3 -1,3 -1,1 -2,2 -2,2 -2,0 -3,-1 -4,-2 0,-1 -1,-2 -1,-4 0,-1 1,-3 1,-3zm-29 6c0,0 -1,0 -1,1 0,0 0,0 0,0l0 0c0,0 0,1 0,1 -1,0 -1,0 -1,0 0,0 0,0 0,0 -1,0 -1,1 -2,1 -1,0 -3,-1 -3,-2 -1,-1 -2,-2 -2,-4 0,-1 0,-1 0,-2 0,0 1,-1 1,-1l0 0c0,-1 1,-1 1,-1 1,0 1,0 2,0 1,0 2,0 2,0 1,0 1,0 1,0l0 0c0,0 0,1 0,1 0,0 0,0 0,0 0,0 1,1 1,1 0,0 0,1 1,1 0,0 0,0 0,0l0 0 0 3c0,0 0,1 1,1 -1,0 -1,0 -1,0zm-14 -4l-1 -1 0 0c-1,0 -1,-1 -1,-1 -1,0 -1,0 -1,-1 0,0 0,0 1,0 0,0 0,0 0,0 1,0 1,0 1,0 0,0 0,0 0,0 0,0 0,0 0,0 1,0 1,0 1,0l0 0c0,1 0,1 0,1 0,0 0,1 1,1 0,0 0,0 1,-1l0 0c-1,1 -1,2 -1,3 0,0 -1,-1 -1,-1zm-16 -2c0,-1 1,-1 2,-1 2,0 3,0 3,1 1,1 2,2 2,4 0,2 -1,3 -1,3 -1,1 -2,2 -3,2 -1,0 -2,-1 -3,-2 -1,-1 -2,-2 -2,-4 0,-1 1,-3 2,-3zm8 -2c0,-1 -1,-1 -2,-2 1,0 1,0 2,0 0,0 0,-1 0,-1 0,1 0,1 0,1 0,0 1,0 1,0 1,0 2,0 2,0 1,0 1,-1 1,-1 0,0 0,1 0,1 0,0 0,0 0,0 0,0 0,0 -1,1 -1,0 -1,1 -1,3 -1,-1 -1,-2 -2,-2zm3 5c0,0 0,0 0,0 0,0 1,1 2,2l0 0c1,1 1,1 2,2 0,0 0,0 0,1 0,0 0,0 0,0 -1,1 -1,1 -1,1 -1,0 -1,0 -1,-1 -1,0 -1,0 -1,0l0 0c0,0 0,0 0,0l0 0c0,0 0,0 0,-1 0,0 0,0 0,0l0 0c0,-1 -1,-1 -1,-1 0,0 -1,0 -1,0 0,-1 1,-2 1,-3zm37 -4c1,0 1,0 2,0 0,1 0,1 0,2 0,1 0,1 0,1l0 0c0,1 0,1 0,1l0 0c-1,0 -1,0 -1,0 0,0 0,0 0,0 0,0 -1,0 -1,0l0 -4 0 0zm-62 -13c0,0 1,-1 1,-1 0,0 0,0 0,0 0,1 -1,1 -1,1 0,0 0,0 0,0zm-7 -5l0 0 0 0 0 0zm-3 5c1,0 2,-1 3,-1 1,-1 1,-2 1,-3 0,0 0,-1 0,-1 0,-1 -1,-1 -1,-1 -1,0 -2,1 -2,2 0,0 0,0 0,0l0 0c0,0 0,0 0,0l0 0c0,1 0,1 0,1 0,0 0,0 -1,0 0,0 0,0 0,0 0,0 0,-1 0,-1 0,0 0,-1 0,-2 1,0 1,0 2,0 1,0 1,0 2,0 0,1 1,1 1,2l-4 8c0,0 0,0 -1,0 0,0 0,0 -1,0 0,0 0,0 0,0l0 0 0 0c0,0 0,0 0,0l0 -2 0 -1c0,0 0,0 0,0l0 0c1,0 1,0 1,-1 0,0 0,0 0,0 0,0 0,0 0,0zm5 3l0 -1 0 0 1 -3c0,0 0,1 1,1 -1,1 -2,2 -2,3zm15 -8l0 0c0,0 1,-1 1,-1 0,-1 -1,-1 -1,-1l0 0c0,0 0,0 -1,0 -2,0 -4,0 -6,1 -1,1 -3,2 -4,3 0,-1 -1,-3 -2,-4 -1,-1 -3,-2 -5,-2 -1,0 -3,1 -4,1 -1,1 -2,3 -2,4 0,1 1,2 1,3 1,0 1,0 1,0 0,0 0,0 0,0 -1,0 -1,0 -1,0 0,0 0,0 0,0 0,0 -1,0 -1,0 0,0 0,0 0,0 0,0 0,0 0,0l0 0c0,0 0,0 -1,0l0 0c1,0 1,0 1,0l0 0c0,0 0,0 0,0 0,0 0,0 0,0 0,0 1,0 1,0l0 0c0,0 0,0 0,0 0,-1 -1,-2 -1,-3 0,-1 1,-3 2,-4 1,-1 2,-1 4,-1 2,0 4,1 5,2 1,1 2,2 2,3 1,-1 3,-1 4,-2 2,-1 4,-2 6,-2 1,0 1,0 1,1l0 0c1,0 1,0 1,1 0,0 0,1 -1,1l0 0c0,0 0,1 -1,1 -2,0 -3,2 -4,4 -1,0 -1,0 -1,1 0,0 1,0 1,0 0,0 0,0 0,0 0,0 0,0 1,0 0,0 0,0 0,0 0,0 0,0 0,0 1,0 1,0 1,0l0 0c0,0 0,0 1,0 0,0 0,0 2,0 0,0 1,0 1,0 0,0 0,0 0,0 1,0 1,0 1,0 0,0 0,0 1,0 0,0 0,0 0,0 0,0 0,0 0,0 0,-1 0,-1 0,-2 0,-1 1,-2 3,-3 1,-1 2,-1 4,-1 2,0 4,0 6,1 1,0 1,0 2,0 1,-1 2,-1 3,-2 1,0 2,-1 3,-1 1,0 1,1 1,1 1,0 1,1 1,1 0,1 0,1 0,2 0,0 0,0 0,0 2,0 3,0 4,1 1,0 1,2 1,3 0,0 0,1 0,2 0,0 1,0 2,0 0,0 1,0 1,0 0,-1 0,-1 0,-1l0 0 1 0c0,0 0,-1 1,-1 1,0 1,0 1,1 1,0 1,1 1,1 0,1 0,2 -2,3 -1,0 -2,0 -3,0 -1,0 -2,0 -3,0 -1,0 -2,-1 -2,-1 -1,0 -1,0 -2,1 0,0 -1,0 -2,0 0,0 0,0 0,0 0,1 -1,2 -2,3 0,0 -1,0 -1,1 0,0 1,0 1,0 0,0 0,1 0,1 0,0 0,0 0,0l0 0c0,1 0,1 0,2 1,-1 1,-1 1,-1 1,-1 2,-2 3,-2 1,0 2,-1 4,-1 0,0 0,0 1,0 0,0 1,0 1,1l0 0c1,0 1,0 2,0l0 0 0 0c0,0 0,0 0,0 1,0 2,0 2,0 0,0 0,0 0,0 1,0 1,0 1,0 0,0 1,0 1,0 0,0 1,0 1,0l0 0c1,0 1,0 1,1 0,1 0,1 -1,1 0,1 0,1 0,1 0,0 0,1 0,3l0 3c0,1 0,1 0,2 0,0 0,1 0,1l0 0c1,0 1,0 1,0 0,0 1,0 1,0 0,0 1,0 1,0 0,0 1,0 1,0l0 0c0,-1 0,-1 0,-2 0,0 0,-1 0,-2l0 -2c0,-2 0,-2 0,-3 0,0 0,0 0,0 0,0 0,0 0,-1 -1,0 -1,0 -1,-1 0,-1 0,-1 1,-1l0 0c0,0 0,0 1,0 0,0 1,0 1,0 0,0 0,0 1,0 0,0 0,0 0,0l0 0 0 0 0 0c0,0 0,0 0,0 -1,0 -1,0 -1,0 0,0 -1,0 -1,0 -1,0 -1,0 -1,0l0 0c-1,0 -1,1 -1,1 0,1 0,1 1,1 0,0 0,0 1,0 0,0 0,0 0,0 0,1 0,1 0,1 0,0 0,1 0,3l0 2c0,1 0,2 0,2 -1,1 -1,1 -1,2l0 0c0,0 -1,0 -1,0 0,1 -1,1 -1,1 0,0 -1,0 -1,0 0,-1 0,-1 -1,-1l0 0c0,0 0,-1 0,-1 -1,-1 -1,-1 -1,-2l0 -3c0,-3 0,-3 0,-4 1,0 1,0 1,0 0,0 1,0 1,-1 0,0 -1,-1 -1,-1l0 0c0,0 -1,0 -1,0 0,0 -1,0 -1,0 0,0 0,0 -1,0 0,0 0,0 0,0 0,0 -1,0 -2,0 0,0 0,0 0,0l0 0c0,0 0,0 0,0 -1,0 -1,0 -2,0l0 0c0,0 -1,0 -1,0 -1,0 -1,0 -1,0 -2,0 -3,0 -4,0 -1,1 -2,1 -3,2 0,0 -1,1 -1,1 0,0 0,0 0,0 0,-1 0,-1 0,-2l0 0c0,0 0,0 0,0 0,0 0,-1 0,-1 -1,0 -1,0 -1,0 0,0 0,0 0,0 0,0 0,0 0,0l0 0c-1,0 -1,0 -1,0 1,-1 1,-1 2,-1 1,-1 1,-2 2,-4 0,0 0,0 0,0 1,0 2,0 2,0 1,0 1,0 2,0 0,0 1,0 2,1 1,0 2,0 3,0 1,0 2,0 3,-1 1,0 2,-1 2,-2 0,0 0,-1 -1,-1 0,0 -1,-1 -1,-1 -1,0 -1,1 -1,1l0 0 0 0c0,1 -1,1 -1,1 0,0 -1,0 -1,0 -1,0 -2,0 -3,0l0 0c1,-1 1,-2 1,-2 0,-1 -1,-2 -1,-3 -1,-1 -2,-1 -4,-1 0,0 0,0 -1,0 1,-1 1,-1 1,-2 0,0 0,-1 -1,-1 0,0 0,0 -1,0 -1,0 -2,0 -3,0 -1,1 -2,1 -3,2 -1,0 -1,0 -2,0 -2,-1 -4,-1 -6,-1 -2,0 -3,0 -4,1 -2,1 -3,2 -3,3 0,1 0,1 1,2 0,0 0,0 0,0l0 0c0,0 -1,0 -1,0 0,0 0,0 0,0 -1,0 -1,0 -1,0 0,0 0,0 -1,0l0 0c0,0 0,0 0,0 0,0 -1,0 -1,0 -2,0 -2,0 -2,1 0,0 0,0 0,1 0,0 -1,0 -1,1l0 0c0,0 0,1 0,1l0 0c0,-2 1,-2 1,-3 0,-1 -1,-1 -1,-1l0 0c0,0 -1,0 -1,0l0 0c0,0 0,0 0,0 -1,0 -1,0 -1,0 0,0 0,0 0,0 -1,0 -1,0 -1,0 0,0 0,-1 0,-1 2,-2 3,-4 5,-5 1,0 1,0 1,0zm-26 4c0,0 -1,0 -1,0 0,0 0,0 -1,0l0 0c0,0 0,1 0,1 0,0 0,1 0,1 0,0 0,0 0,0 0,0 0,1 0,1l0 2c0,0 0,0 0,1 0,0 0,0 0,0l0 0c0,0 0,0 0,1 0,0 0,1 1,1 0,0 0,0 0,0 0,0 0,0 0,0 1,0 1,0 1,0l0 0c0,0 0,0 0,0 0,0 0,0 0,0l1 0 0 0c0,0 1,0 1,0 0,0 0,0 1,0 0,0 0,0 0,0 0,0 0,0 0,0 0,0 0,0 0,0 0,0 1,0 1,0l0 0c0,0 0,0 0,0 0,0 0,0 0,0l0 0 0 0c1,0 1,0 1,0l0 0c0,0 1,0 1,0l0 0c0,0 0,0 0,0 -1,0 -1,1 -1,1l0 0 0 0c-1,0 -1,0 -1,0l0 0c0,0 0,1 0,1l0 0 0 0c0,1 0,1 1,1l0 0 0 0c0,0 1,0 1,0 0,0 0,0 1,0 0,0 1,0 1,0 0,0 1,0 1,0 0,0 0,0 1,0 0,0 0,-1 0,-1 0,0 0,-1 0,-1 0,0 -1,0 -1,0l1 -4 0 0c0,1 0,2 0,3 0,0 0,1 0,2 1,0 1,0 2,0 1,0 2,0 2,0 0,0 0,0 0,0 0,2 1,5 2,6 1,2 3,3 5,3 1,0 3,-1 4,-2 -1,1 -1,1 -1,2 0,2 1,4 3,5 1,2 3,3 5,3 3,0 5,-1 6,-3 1,0 1,-1 1,-1 0,0 0,1 0,1 0,1 0,1 1,1 0,1 1,1 2,2 0,0 1,0 1,0 1,0 1,0 2,-1 1,0 1,0 2,0l0 0c0,-1 1,-1 1,-2 0,0 0,-1 0,-1 1,1 1,1 2,2l0 0c0,0 1,1 2,1 1,1 3,1 4,1 1,0 1,0 2,0 1,0 1,-1 2,-1l0 0c0,0 0,0 1,0l0 0c0,-1 0,-1 0,-1l0 0c0,0 0,-1 0,-1 0,0 0,0 0,0 1,0 1,1 1,1l0 0c1,1 2,1 3,1 1,1 1,1 2,1 0,0 1,0 2,-1 1,0 1,0 2,-1l0 0c1,-1 2,-2 2,-3 0,-1 0,-2 0,-3l0 -2c0,-3 0,-3 0,-4 0,0 0,0 1,0 0,0 0,0 0,0 0,0 0,0 0,0 0,1 0,1 0,1 0,0 0,1 0,3l0 3c0,2 0,3 0,4 0,0 0,0 0,0 -1,0 -1,1 -1,1 0,1 0,1 1,1 0,0 0,0 1,0 0,0 1,0 1,0l0 0 0 0 0 0c0,0 0,0 0,0 1,0 2,0 2,0 1,0 1,0 1,0l0 0c1,0 1,0 1,-1 0,0 0,-1 -1,-1 0,0 0,0 -1,0 0,0 0,0 0,0l0 0c0,-1 0,-1 0,-2 0,0 0,0 0,-1l1 0c2,2 4,4 6,6 3,2 6,3 9,3 2,0 3,0 4,0 1,0 2,-1 2,-1l0 0c1,0 1,0 1,0 0,-1 0,-1 0,-1 0,-1 0,-1 0,-1l0 0c0,0 -1,-1 -1,-1 0,0 -1,0 -1,1l0 0 0 0 0 0c0,0 -1,0 -1,0 -1,0 -1,0 -2,0 -1,0 -3,0 -4,0 3,0 5,-1 6,-3 1,-1 2,-3 2,-6 0,-2 -1,-4 -2,-5 -1,-2 -3,-2 -6,-2 -2,0 -4,0 -5,2 -2,1 -3,4 -3,6 0,1 0,2 1,3 -1,-1 -2,-2 -3,-3 1,0 1,-1 1,-1 1,-1 1,-2 1,-3 0,-1 0,-1 -1,-2 0,0 0,-1 -1,-1l0 0c0,-1 -1,-1 -2,-1 0,0 -1,0 -2,0 0,0 -1,0 -1,0l0 0 0 0 0 0c0,0 1,0 1,0 1,0 2,0 2,0 1,0 2,0 2,1l0 0c1,0 1,0 2,1 0,1 0,1 0,2 0,1 0,2 0,3 -1,0 -1,1 -1,1 0,1 1,2 1,2 0,-1 0,-2 0,-2 0,-2 1,-5 2,-6 2,-2 4,-3 6,-3 3,0 5,1 6,3 2,1 3,3 3,5 0,3 -1,5 -3,6 -1,2 -2,2 -4,3 1,0 1,0 2,0 1,0 1,0 2,0 0,0 1,0 1,-1l0 0 0 0 0 0c0,0 1,0 1,0 0,0 1,0 1,1l0 0c0,0 0,0 0,1 0,0 0,0 0,1 0,0 0,0 -1,0l0 0c0,0 -1,1 -2,1 -1,0 -2,1 -4,1 -3,0 -6,-2 -9,-4 -2,-1 -5,-4 -6,-6l-1 0c0,1 0,1 0,1 0,1 0,1 0,2 0,0 0,0 0,0 1,0 1,0 1,0 1,0 1,1 1,1 0,1 0,1 -1,2l0 0c0,0 0,0 -1,0 0,0 -1,0 -2,0 0,0 0,0 0,0l0 0 0 0 0 0c0,0 -1,0 -1,0 -1,0 -1,0 -1,0 -1,-1 -1,-1 -1,-2 0,0 0,-1 0,-1 1,0 1,0 1,0 0,-1 0,-2 0,-4l0 -3c0,-2 0,-2 0,-3 0,0 0,0 0,0 0,0 0,0 0,0 0,0 0,0 -1,0 0,0 0,1 0,3l0 2c0,1 0,2 0,3 0,1 -1,2 -2,3l0 0c0,1 -1,1 -2,2 -1,0 -2,0 -2,0 -1,0 -1,0 -2,0 -1,0 -2,-1 -3,-2l0 0c0,0 0,0 -1,-1 0,1 0,1 0,1l0 0c0,0 0,1 0,1l0 0c-1,0 -1,0 -1,0l0 0c-1,1 -1,1 -2,1 0,0 -1,0 -2,0 -1,0 -3,0 -4,-1 -1,0 -2,-1 -3,-1l0 0c0,-1 0,-1 -1,-1 0,0 0,0 0,0 0,1 -1,1 -1,2l0 0c-1,0 -1,1 -2,1 -1,0 -1,0 -2,0 0,0 -1,0 -1,0 -1,0 -2,-1 -3,-2 0,0 0,0 0,-1 0,0 0,0 0,0 0,0 0,0 -1,0 -1,2 -3,3 -6,3 -2,0 -4,-1 -5,-2 -2,-2 -3,-4 -3,-6 0,-1 0,-1 0,-1 -1,0 -2,1 -3,1 -3,0 -4,-1 -5,-3 -1,-1 -2,-3 -2,-6 -1,0 -1,1 -2,1 -1,0 -1,-1 -2,-1 0,0 0,0 0,0 0,0 0,1 0,1 -1,0 -1,1 -1,1 0,0 -1,-1 -1,-1 0,0 -1,0 -1,0 -1,0 -1,0 -1,0 0,0 -1,0 -1,0l0 0 0 0c-1,0 -1,0 -1,-1l0 0 0 0c0,0 0,-1 0,-1l0 0c0,0 0,-1 1,-1l0 0 0 0c0,0 0,0 0,0l0 0 0 0c0,0 0,0 -1,0l0 0 0 0c0,0 0,0 0,0 0,0 0,0 0,0l0 0c0,0 0,0 0,0l0 0c0,0 0,0 -1,0 0,0 0,0 0,0l0 0c0,0 0,0 0,0 -1,0 -1,0 -1,0 0,0 -1,0 -1,0l0 0 -1 0c0,0 0,0 0,0 0,0 0,0 0,0l0 0 0 0c0,0 0,0 0,0l0 0c0,0 0,0 -1,0l0 0c0,0 0,0 -1,0 0,0 0,-1 0,-1 0,-1 0,-1 0,-1l0 0c0,0 0,0 0,0 0,-1 0,-1 0,-1l0 -2c0,0 0,0 0,-1 0,0 0,0 0,0 0,0 -1,0 -1,-1 0,0 1,-1 1,-1l0 0c0,0 1,0 1,0 0,0 1,0 1,0l0 0zm74 -9l0 1 2 1 1 2 2 1c0,1 0,2 1,3 1,0 2,0 3,0 1,-1 1,-3 0,-4 -1,0 -1,0 -2,0l-1 -2c0,0 0,-1 0,-2l1 -1c1,0 2,-1 2,-1 1,-1 1,-1 1,-2 0,0 1,0 1,0 0,0 1,-1 1,-1l0 -2 -1 -1 0 0c-1,0 -2,0 -3,1l0 0 0 0 0 0 0 0 0 0 0 0 0 0 0 0 0 0 0 0 0 0 0 0 0 0 0 0 0 0 0 0 0 0 0 0 0 0 0 0 0 0 0 0 0 0 0 0 0 0 0 0 0 0 0 0 0 0 0 0 0 0 0 0 0 0 0 0 0 0 0 0 0 0 0 0 0 0 0 0 0 0 0 0 0 0 0 0 0 0 0 0 0 0 0 0 0 0 0 0 0 0 0 0 0 0 0 0 0 0 0 0 0 0 0 0 0 0 0 0 0 0 0 0 0 0 0 0 0 0 0 0 0 0c0,0 0,1 0,1 -1,0 -2,0 -2,1 -1,0 -1,1 -1,2l-1 1c-1,-1 -2,0 -3,0l0 0 0 0 0 0 0 0 0 0 0 0 0 0 0 0 0 0 0 0 0 0 0 0 0 0 0 0 0 0 0 0 0 0 0 0 0 0 0 0 0 0 0 0 0 0 0 0 0 0 0 0 0 0 0 0 0 0 0 0 0 0 0 0 0 0 0 0 0 0 0 0 0 0 0 0 0 0 0 0 0 0 0 0 0 0 0 0 0 0 0 0 0 0 0 0 0 0 0 0 0 0 0 0 0 0 0 0 0 0 0 0 0 0 0 0 0 0 0 0 0 0 0 0 0 0 0 0 0 0 0 0 0 0 0 0 0 0 0 0 0 0 0 0 0 0 0 0 0 0 0 0 0 0 0 0 0 0 0 0 0 0 0 0 0 0 0 0 0 0 0 0 0 0 0 0 0 0 0 0 0 0 0 0 0 0 0 0 0 0 0 0 0 0 0 0 0 0 0 0 0 0 0 0 0 0 0 0 0 0 0 0 0 0 0 0 0 0 0 0 0 0 0 0 0 0 0 0 0 0 0 0 0 0 0 0 0 0 0 0 0 0 0 0 0 0 0 0 0 0 0 0 0 0 0 0 0 0 0 0 0 0 0 0 0 0 0 0 0 0 0 0 0 0 0 0 0 0 0 0 0 0 0 0 0 0 0 0 0 0 0 0 0 0 0 0 0 0 0 0 0 0 0 0 0 0 0 0 0 0 0 0 0 0 0 0 0 0 0 0 0 0 0 0 0 0 0 0 0 0 0 0 0 0 0 0 0 0 0 0 0 0 0 0 0 0 0 0 0 0 0 0 0 0 0 0 0 0 0 0 0 0 0 0 0 0 0 0 0 0 0 0 0 0 0 0 0 0 0 0 0 1 0 0 0 0 0 0 0 0 0 0 0 0 0 0 0 0 0 0 0 0 0 0 0 0 0 0 0 0 0 0 0 0 0 0 0 0 0 0 0 0 0 0 0 0 0 0 0 0 0 0 0 0 0 0 0 0 0 0 0 0 0 0 0 0 0 0 0 0 0 0 0 0 0 0 0 0 0 0 0 0 0 0 0 0 0 0 0 0 0 0 0 0 0 0 0 0 0 0 0 0 0 0 0 0 0 0 0 0 0 0 0 0 0 0 0 0 0 0 0 0 0 0 0 0 0 0 0 0 0 0 0 0 0 0 0 0 0 0 0 0 0 0 0 0 0 0 0 0 0 0 0 0 0 0 0 0 0 0 0 0 0 0 0 0 0 0 0 0 0 0 0 0 0 0 0 0 0 0 0 0 0 0 0 0 0 0 -1 0 0 0 0 0 0 0 0 0 0 0 0 0 0 0 0 0 0 0 0 0 0 0 0 0 0 0 0 0 0 0 0 0 0 0 0 0 0 0 0 0 0 0 0 0 0 0 0 0 0 0 0 0 0 0 0 0 0 0 0 0 0 0 0 0 0 0 0 0 0 0 0 0 0 0 0 0 0 0 0 0 0 0 0 0 0 0 0 0 0 0 0 0 0 0 0 0 0 0 0 0 0 0 0 0 0 0 0 0 0 0 0 0 0 0 0 0 0 0 0 0 0 0 0 0 0 0 0 0 0 0 0 0 0 0 0 0 0 0 0 0 0 0 0 0 0 0 0 0 0 0 0 0 0 0 0 0 0 0 0 0 0 0 0 0 0 0 0 0 0 0 0 0 0 0 0 0 0 0 0 0 0 0 0 0 0 0 0 0 0 0 0 0 0 0 0 0 0 0 0 0 0 1 0 0 0 0 0 0 0 0 0 0 0 0 0 0 0 0 0 0 0 0 0 0 0 0 0 0 0 0 0 0 0 0 0 0 0 0 0 0 0 0 0 0 0 0 0 0 0 0 0 0 0 0 0 0 0 0 0 0 0 0 0 0 0 0 0 0 0 0 0 0 0 0 0 0 0 0 0 0 0 0 0 0 0 0 0 0 0 0 0 0 0 0 0 0 0 0 0 0 0 0 0 0 0 0 0 0 0 0 0 0 0 0 0 0 0 0 0 0 0 0 0 0 0 0 0 0 0 0 0 0 0 0 0 0 0 0 0 0 0 0 0 0 0 0 0 0 0 0 0 0 0 0 0 0 0 0 0 0 0 0 0 0 0 0 0 0 0 0 0 0 0 0 0 0 0 0 0 0 0 0 0 0 0 0 0 0 0 0 0 0 0 0 0 0 0 0 0 0 0 0 0 0 0 0 0 0 0 0 0 0 0 0 0 0 0 0 0 0 0 0 0 0 0 0 0 0 0 0 0 0 0 0 0 0 0 0 0 0 0 0 0 0 0 0 0 0 0 0 0 0 0 0 0 0 0 0 0 0 0 0 0 0 0 0 0 0 0 0 0 0 0 0 0 0 0 0 0 0 0 0 0 0 0 0 0 0 0 0 0 0 0 0 0 0 0 0 0 0 0 0 0 0 0 0 0 0 0 0 0 0 0 0 0 0 0 0 0 0 0 0 0 0 0 0 0 0 0 0 0 0 0 0 0 0 0 0 0 0 0 0 0 0 0 0 0 0 0 0 0 0 0 0 0 0 0 0 0 0 0 0 0 0 0 0 0 0 0 0 0 0 0 0 0 0 0 0 0 0 0 0 0 0 0 0 0 0 0 0 0 0 0 0 0 0 0 0 0 0 0 0 0 0 0 0 0 0 0 0 0 0 0 0 0 0 0 0 0 0 0 0 0 0 0 0 0 0 0 0 0 0 0 0 0 0 0 0 0 0 0 0 0 0 0 0 0 0 0 0 0 0 0 0 0 0 0 0 0 0 0 0 0 0 0 0 0 0 0 0 0 0 0 0 0 0 0 0 0 0 0 0 0 0 0 0 0 0 0 0 0 0 0 0 0 0 0 0 0 0 0 0 0 0 0 0 0 0 0 0 0 0 0 0 0 0 0 0 0 0 0 0 0 0 0 0 0 0 0 0 0 0 0 0 0 0 0 0 0 0 0 0 0 0 0 0 0 0 0 0 0 0 0 0 0 0 0 0 0 0 0 0 0 0 0 0 0 0 0 0 0 0 0 0 0 0 0 0 0 0 0 0 0 0 0 0 0 0 0 0 0 0 0 0zm8 12l1 0 1 0 0 0 0 1 0 0 0 1c0,0 -2,0 -5,-1 2,-1 3,-1 3,-1zm8 -18c0,0 6,2 6,10 0,0 0,0 0,0 0,1 0,1 0,1l0 0c0,0 0,0 0,1 0,1 0,2 0,2l0 0 -1 1 -1 -2 1 -2 -1 2 -2 1 1 2 2 -1 0 1 -1 1 -5 -1c0,0 1,0 0,-1 0,0 -1,0 -1,0l3 -2c0,0 1,0 2,-1 0,-1 0,-2 0,-2 0,0 1,0 1,0 0,-1 0,-1 0,-1l-2 -1c0,0 1,0 1,-1 0,-1 0,-4 -3,-7zm3 19l0 0c0,0 0,0 0,0l0 0zm-2 1c1,0 1,0 1,0l0 -1 -1 -1 0 2c0,0 0,0 0,0l0 0zm0 -2l-1 2c0,0 0,0 0,0l0 0c-1,0 -1,0 -1,0l1 -2 1 0zm-2 0l0 1c0,0 0,0 0,0l-1 0c0,0 0,0 0,-1l0 -1 1 1zm-8 -15c-1,0 -1,-1 0,-1 0,-1 1,-1 1,0 1,0 1,1 0,1 0,0 -1,0 -1,0zm0 10c-1,-1 -1,-1 0,-2 0,0 1,0 1,0 0,1 0,1 0,2 0,0 -1,0 -1,0zm-1 -9l-1 2 0 2 -3 0 0 -3 2 0 2 -1zm3 -3c0,-1 0,-1 0,-2 0,0 1,0 1,0 1,1 1,1 0,2 0,0 -1,0 -1,0zm11 0c0,0 0,0 0,1 0,0 0,0 0,0 1,0 1,0 1,0 1,1 1,2 2,4 0,1 1,3 1,4 0,4 -2,7 -4,9 -2,2 -5,4 -7,4l0 0 0 0c3,0 5,-2 7,-4 3,-2 4,-5 4,-9 0,-1 0,-3 -1,-4 0,-2 -1,-3 -2,-4 0,0 0,0 0,0 0,-1 0,-1 -1,-1z"/>
 </g>
</svg>
