<?xml version="1.0" encoding="UTF-8"?>
<!DOCTYPE svg PUBLIC "-//W3C//DTD SVG 1.1//EN" "http://www.w3.org/Graphics/SVG/1.1/DTD/svg11.dtd">
<!-- Creator: CorelDRAW X8 -->
<svg xmlns="http://www.w3.org/2000/svg" xml:space="preserve" width="1980px" height="119px" version="1.1" style="shape-rendering:geometricPrecision; text-rendering:geometricPrecision; image-rendering:optimizeQuality; fill-rule:evenodd; clip-rule:evenodd"
viewBox="0 0 1980 119"
 xmlns:xlink="http://www.w3.org/1999/xlink">
 <defs>
  <style type="text/css">
   <![CDATA[
    .fil0 {fill:#C4B77D;fill-rule:nonzero}
    .fil1 {fill:#FEFEFE;fill-rule:nonzero}
   ]]>
  </style>
 </defs>
 <g id="Capa_x0020_1">
  <metadata id="CorelCorpID_0Corel-Layer"/>
  <g id="_2298226997696">
   <path class="fil0" d="M245 53l0 0c0,1 0,3 0,4l0 0 0 0c0,2 0,3 0,5l0 0c539,0 1077,0 1615,0l8 0 50 0 5 0 0 -5 0 -48 27 0 21 0 0 48 0 5 9 0 0 -5 0 -57 -9 0 -21 0 -27 0 -9 0 -46 0 -8 0 0 9 0 44c-538,0 -1076,0 -1615,0zm1669 -44l0 44 -46 0 0 -44 46 0z"/>
   <path class="fil1" d="M13 70c-7,0 -13,-5 -13,-13 0,-7 6,-13 13,-13 7,0 13,6 13,13 0,8 -6,13 -13,13zm1967 -8l-9 0 -40 0 -8 0 0 8 0 40 -55 0 0 -30 0 -18 -8 0 0 18 0 30 -84 0 -606 0 -319 0 -154 0 -697 0 0 9 697 0 154 0 319 0 606 0 84 0 63 0 8 0 45 0 4 0 0 -4 0 -45 0 -8zm-49 48l0 -40 40 0 0 40 -40 0zm-1877 -40c-7,0 -13,-5 -13,-13 0,-7 6,-13 13,-13 8,0 13,6 13,13 0,8 -5,13 -13,13zm42 0c-7,0 -13,-5 -13,-13 0,-7 6,-13 13,-13 7,0 13,6 13,13 0,8 -6,13 -13,13zm41 0c-7,0 -13,-5 -13,-13 0,-7 6,-13 13,-13 7,0 13,6 13,13 0,8 -6,13 -13,13zm42 0c-7,0 -13,-5 -13,-13 0,-7 6,-13 13,-13 7,0 13,6 13,13 0,8 -6,13 -13,13zm41 0c-7,0 -13,-5 -13,-13 0,-7 6,-13 13,-13 7,0 13,6 13,13 0,8 -6,13 -13,13z"/>
  </g>
 </g>
</svg>
