<?xml version="1.0" encoding="UTF-8"?>
<!DOCTYPE svg PUBLIC "-//W3C//DTD SVG 1.1//EN" "http://www.w3.org/Graphics/SVG/1.1/DTD/svg11.dtd">
<!-- Creator: CorelDRAW X8 -->
<svg xmlns="http://www.w3.org/2000/svg" xml:space="preserve" width="1980px" height="165px" version="1.1" style="shape-rendering:geometricPrecision; text-rendering:geometricPrecision; image-rendering:optimizeQuality; fill-rule:evenodd; clip-rule:evenodd"
viewBox="0 0 1980 165"
 xmlns:xlink="http://www.w3.org/1999/xlink">
 <defs>
  <style type="text/css">
   <![CDATA[
    .fil0 {fill:#C4B77D;fill-rule:nonzero}
    .fil1 {fill:white;fill-rule:nonzero}
   ]]>
  </style>
 </defs>
 <g id="Capa_x0020_1">
  <metadata id="CorelCorpID_0Corel-Layer"/>
  <g id="_2298203732240">
   <path class="fil0" d="M1118 62l1 0 695 0 0 48 9 0 0 -48 50 0 4 0 0 -5 0 -48 49 0 0 -9 -49 0 -9 0 -45 0 -9 0 0 9 0 44 -695 0 -1 0c1,1 1,3 1,4l0 0 0 1c0,1 0,2 -1,4zm-1072 -5l0 -57 8 0 22 0 27 0 9 0 45 0 9 0 0 9 0 44 695 0 1 0c-1,1 -1,3 -1,4l0 0 0 1c0,1 0,2 1,4l-1 0 -695 0 0 48 -9 0 0 -48 -50 0 -4 0 0 -5 0 -48 -27 0 -22 0 0 48 -8 0zm66 -48l0 44 45 0 0 -44 -45 0zm1756 0l0 44 -45 0 0 -44 45 0z"/>
   <path class="fil1" d="M1877 110l0 -40 0 -8 8 0 41 0 0 -62 8 0 0 62 38 0 8 0 0 8 0 87 0 8 -8 0 -87 0 -8 0 0 -8 0 -38c-591,0 -1183,0 -1774,0l0 38 0 8 -8 0 -87 0 -8 0 0 -8 0 -87 0 -8 8 0 38 0 0 -62 8 0 0 62 41 0 8 0 0 8 0 40c591,0 1183,0 1774,0zm-783 -40c7,0 13,-5 13,-13 0,-7 -6,-12 -13,-12 -8,0 -13,5 -13,12 0,8 5,13 13,13zm-42 0c7,0 13,-5 13,-13 0,-7 -6,-12 -13,-12 -7,0 -13,5 -13,12 0,8 6,13 13,13zm-41 0c7,0 13,-5 13,-13 0,-7 -6,-12 -13,-12 -7,0 -13,5 -13,12 0,8 6,13 13,13zm-42 0c7,0 13,-5 13,-13 0,-7 -6,-12 -13,-12 -7,0 -13,5 -13,12 0,8 6,13 13,13zm-41 0c7,0 13,-5 13,-13 0,-7 -6,-12 -13,-12 -7,0 -13,5 -13,12 0,8 6,13 13,13zm-42 0c8,0 13,-5 13,-13 0,-7 -5,-12 -13,-12 -7,0 -13,5 -13,12 0,8 6,13 13,13zm-791 40l0 -40 -41 0 0 40 41 0zm-49 -40l-38 0 0 87 87 0 0 -38 -45 0 -4 0 0 -4 0 -45zm1839 40l41 0 0 -40 -41 0 0 40zm49 -40l0 45 0 4 -4 0 -45 0 0 38 87 0 0 -87 -38 0z"/>
  </g>
 </g>
</svg>
