<?xml version="1.0" encoding="UTF-8"?>
<!DOCTYPE svg PUBLIC "-//W3C//DTD SVG 1.1//EN" "http://www.w3.org/Graphics/SVG/1.1/DTD/svg11.dtd">
<!-- Creator: CorelDRAW X8 -->
<svg xmlns="http://www.w3.org/2000/svg" xml:space="preserve" width="1980px" height="40px" version="1.1" style="shape-rendering:geometricPrecision; text-rendering:geometricPrecision; image-rendering:optimizeQuality; fill-rule:evenodd; clip-rule:evenodd"
viewBox="0 0 1980 40"
 xmlns:xlink="http://www.w3.org/1999/xlink">
 <defs>
  <style type="text/css">
   <![CDATA[
    .fil1 {fill:#C4B77D;fill-rule:nonzero}
    .fil0 {fill:#FEFEFE;fill-rule:nonzero}
   ]]>
  </style>
 </defs>
 <g id="Capa_x0020_1">
  <metadata id="CorelCorpID_0Corel-Layer"/>
  <g id="_2299075479232">
   <path class="fil0" d="M17 37c-9,0 -17,-7 -17,-17 0,-10 8,-17 17,-17 10,0 17,7 17,17 0,10 -7,17 -17,17zm55 0c-9,0 -17,-7 -17,-17 0,-10 8,-17 17,-17 10,0 18,7 18,17 0,10 -8,17 -18,17zm55 0c-9,0 -17,-7 -17,-17 0,-10 8,-17 17,-17 10,0 18,7 18,17 0,10 -8,17 -18,17zm56 0c-10,0 -18,-7 -18,-17 0,-10 8,-17 18,-17 9,0 17,7 17,17 0,10 -8,17 -17,17zm55 0c-10,0 -18,-7 -18,-17 0,-10 8,-17 18,-17 9,0 17,7 17,17 0,10 -8,17 -17,17zm55 0c-10,0 -17,-7 -17,-17 0,-10 7,-17 17,-17 9,0 17,7 17,17 0,10 -8,17 -17,17z"/>
   <path class="fil1" d="M1960 40c11,0 20,-9 20,-20 0,-11 -9,-20 -20,-20 -9,0 -16,6 -19,14 -536,0 -1073,0 -1609,0 1,2 1,4 1,6 0,2 0,4 -1,6 536,0 1073,0 1609,0 3,8 10,14 19,14z"/>
  </g>
 </g>
</svg>
