<?xml version="1.0" encoding="UTF-8"?>
<!DOCTYPE svg PUBLIC "-//W3C//DTD SVG 1.1//EN" "http://www.w3.org/Graphics/SVG/1.1/DTD/svg11.dtd">
<!-- Creator: CorelDRAW X8 -->
<svg xmlns="http://www.w3.org/2000/svg" xml:space="preserve" width="32px" height="32px" version="1.1" style="shape-rendering:geometricPrecision; text-rendering:geometricPrecision; image-rendering:optimizeQuality; fill-rule:evenodd; clip-rule:evenodd"
viewBox="0 0 32 32"
 xmlns:xlink="http://www.w3.org/1999/xlink">
 <defs>
  <style type="text/css">
   <![CDATA[
    .fil1 {fill:#AFA26B}
    .fil2 {fill:#FEFEFE}
    .fil0 {fill:url(#id0)}
   ]]>
  </style>
  <linearGradient id="id0" gradientUnits="userSpaceOnUse" x1="-0" y1="16" x2="32.0012" y2="16">
   <stop offset="0" style="stop-opacity:1; stop-color:#004D13"/>
   <stop offset="1" style="stop-opacity:1; stop-color:black"/>
  </linearGradient>
 </defs>
 <g id="Capa_x0020_1">
  <metadata id="CorelCorpID_0Corel-Layer"/>
  <rect class="fil0" width="32.0012" height="32.0012" rx="16" ry="16"/>
  <path class="fil1" d="M27 5c0,0 0,1 0,1 0,0 0,0 0,0 0,0 0,0 0,0 2,1 3,3 3,5 1,1 1,3 1,5 0,4 -2,8 -4,11 -3,2 -5,3 -9,4 0,0 0,0 0,0 0,0 0,0 0,0 4,0 7,-2 9,-4 3,-3 5,-7 5,-11 0,-2 -1,-4 -2,-6 0,-1 -1,-3 -2,-4 0,0 0,0 0,0 0,0 0,-1 -1,-1zm-11 -4l0 0c-4,0 -8,2 -11,4 -2,3 -4,7 -4,11 0,4 2,8 4,11 2,2 5,3 8,4 0,0 0,0 0,0 0,0 0,0 0,0 -3,-1 -6,-2 -8,-4 -3,-3 -5,-7 -5,-11 0,-4 2,-8 5,-11 3,-3 7,-4 11,-4 0,0 0,0 0,0 0,0 1,-1 1,-1 0,0 0,1 0,1 0,0 0,0 0,0 0,0 -1,0 -1,0z"/>
  <g id="_2031718447008">
   <path class="fil2" d="M1 16c0,2 1,5 2,7 3,4 7,7 12,7 3,0 5,0 8,-1 0,0 0,0 0,0 -1,0 -1,0 -2,-1 0,0 0,0 0,0 -2,0 -4,1 -6,0l1 -1 0 -1 0 -1 0 0c0,0 0,0 0,0 0,-1 -1,-1 -1,-1l0 0 0 0 -1 0 -1 0c0,-1 -1,-2 -2,-2l0 0 0 0 0 0c0,0 -1,-1 -1,-1l-1 0c0,0 -1,0 -1,0 -1,0 -2,0 -2,0l-1 -1 0 -1 0 0 1 -3 -2 -2 -1 -1c0,0 0,0 -1,0 1,-1 1,-1 1,-2 0,0 0,0 0,0l0 0c0,0 0,0 0,0l0 0c0,0 0,0 0,0l0 0c0,0 0,0 0,-1l0 0c0,0 0,0 0,0l0 0c0,0 0,0 0,0l0 0 0 0 0 0 0 0 0 -1 1 0 0 0c0,0 0,0 0,0l0 0 0 0 0 0c0,0 0,0 0,0l0 0 0 0 0 0c0,0 0,0 0,0l0 0 0 0c0,0 0,0 0,0l0 0 0 0c2,-4 5,-6 9,-7 0,0 0,0 0,0 -7,2 -12,8 -12,14zm26 9c1,-1 3,-3 3,-5 0,-1 0,-1 0,-2 0,0 0,-1 1,-1 0,0 0,0 0,-1l-1 0 1 0c0,0 0,0 0,0 0,-6 -4,-11 -9,-13 -2,1 -3,3 -4,4l7 5 -5 -3c0,0 -1,0 -1,0 -1,0 -3,1 -3,2 0,0 0,1 0,1l0 0 0 3 1 1 0 1 -1 2c0,1 0,2 1,2l1 0 3 1 0 2 6 1zm2 -3l0 -1 -1 -2 1 2 0 0 0 -1c0,0 0,-1 0,-2 0,-1 1,-1 1,-1l0 0c-1,0 -1,-1 -1,-1 0,0 1,-1 1,-1 -1,-9 -8,-11 -8,-11 3,3 4,7 4,8 0,1 -1,2 -1,2l2 0c0,0 0,1 0,1 0,1 -1,1 -1,1 0,0 0,1 0,2 -1,1 -2,2 -2,2l-4 1c0,0 1,0 2,1 0,0 -1,1 -1,1l6 2 1 -2 1 -1zm-7 -8l-4 -3 6 3 0 0 0 0 0 0 0 0c0,0 0,0 0,0l3 1 -2 0c0,1 1,1 0,2 0,1 -1,2 -1,2l-3 1 1 -1c0,0 0,0 0,0 -2,-1 -2,-2 -2,-3 0,-2 1,-2 2,-2zm-11 -7c1,1 1,1 2,0 0,0 0,-1 0,-1 -1,-1 -1,-1 -2,0 0,0 0,1 0,1zm0 12c0,0 1,0 1,0 1,-1 1,-1 0,-2 0,0 -1,0 -1,0 -1,1 -1,1 0,2zm-7 1l-1 0c1,1 2,3 2,3 1,0 1,0 1,0l0 -1 -2 -2z"/>
   <path class="fil1" d="M3 11l0 1 2 1 2 2 2 2c0,1 0,2 1,3 1,1 2,1 4,0 1,-1 1,-3 0,-4 -1,-1 -2,-1 -3,-1l-2 -1c1,-1 1,-2 1,-4l1 -1c1,0 2,0 3,-1 0,0 1,-1 1,-1 0,0 1,-1 2,-1 0,0 0,-1 0,-1l0 -2 -1 -1 0 0c-1,0 -2,0 -3,0l0 0 0 0 0 0 0 0 0 0 0 0 0 0 0 0 0 0 0 0 0 0 0 0 0 0 0 0 0 0 0 0 0 0 0 0 0 0 0 0 0 0 0 0 0 0 0 0 0 0 0 0 0 0 0 0 0 0 0 0 0 0 0 0 0 0 0 0 0 0 0 0 0 0 0 0 0 0 0 0 0 0 0 0 0 0 0 0 0 0 0 0 0 0 0 0 0 0 0 0 0 0 0 0 0 0 0 0 0 0 0 0 0 0 0 0 0 0 0 0 0 0 0 0 0 0 0 0 0 0 0 0 0 0c-1,1 -1,1 -1,2 -1,0 -1,0 -2,1 -1,0 -1,1 -1,2l-1 1c-1,0 -3,0 -4,1l0 0 0 0 0 0 0 0 0 0 0 0 0 0 0 0 0 0 0 0 0 0 0 0 0 0 0 0 0 0 0 0 0 0 0 0 0 0 0 0 0 0 0 0 0 0 0 0 0 0 0 0 0 0 0 0 0 0 0 0 0 0 0 0 0 0 0 0 0 0 0 0 0 0 0 0 0 0 0 0 0 0 0 0 0 0 0 0 0 0 0 0 0 0 0 0 0 0 0 0 0 0 0 0 0 0 0 0 0 0 0 0 0 0 0 0 0 0 0 0 0 0 0 0 0 0 0 0 0 0 0 0 0 0 0 0 0 0 0 0 0 0 0 0 0 0 0 0 0 0 0 0 0 0 0 0 0 0 0 0 0 0 0 0 0 0 0 0 0 0 0 0 0 0 0 0 0 0 0 0 0 0 0 0 0 0 0 0 0 0 0 0 0 0 0 0 0 0 0 0 0 0 0 0 0 0 0 0 0 0 0 0 0 0 0 0 0 0 0 0 0 0 0 0 0 0 0 0 0 0 0 0 0 0 0 0 0 0 0 0 0 0 0 0 0 0 0 0 0 0 0 0 0 0 0 0 0 0 0 0 0 0 0 0 0 0 0 0 0 0 0 0 0 0 0 0 0 0 0 0 0 0 0 0 0 0 0 0 0 0 0 0 0 0 0 0 0 0 0 0 0 0 0 0 0 0 0 0 0 0 0 0 0 0 0 0 0 0 0 0 0 0 0 0 0 0 0 0 0 0 0 0 0 0 0 0 0 0 0 0 0 0 0 0 0 0 0 0 0 0 0 0 0 0 0 0 0 0 0 0 0 0 0 0 0 0 0 0 0 0 0 0 0 0 0 0 0 0 0 0 0 0 0 0 0 0 0 0 0 0 0 0 0 0 0 0 0 0 0 0 0 0 0 0 0 0 0 0 0 0 0 0 0 0 0 0 0 0 0 0 0 0 0 0 0 0 0 0 0 0 0 0 0 0 0 0 0 0 0 0 0 0 0 0 0 0 0 0 0 0 0 0 0 0 0 0 0 0 0 0 0 0 0 0 0 0 0 0 0 0 0 0 0 0 0 0 0 0 0 0 0 0 0 0 0 0 0 0 0 0 0 0 0 0 0 0 0 0 0 0 0 0 0 0 0 0 0 0 0 0 0 0 0 0 0 0 0 0 0 0 0 0 0 0 0 0 0 0 0 0 0 0 0 0 0 0 0 0 0 0 0 0 0 0 0 0 -1 0 0 0 0 0 0 1 0 0 0 0 0 0 0 0 0 0 0 0 0 0 0 0 0 0 0 0 0 0 0 0 0 0 0 0 0 0 0 0 0 0 0 0 0 0 0 0 0 0 0 0 0 0 0 0 0 0 0 0 0 0 0 0 0 0 0 0 0 0 0 0 0 0 0 0 0 0 0 0 0 0 0 0 0 0 0 0 0 0 0 0 0 0 0 0 0 0 0 0 0 0 0 0 0 0 0 0 0 0 0 0 0 0 0 0 0 0 0 0 0 0 0 0 0 0 0 0 0 0 0 0 0 0 0 0 0 0 0 0 0 0 0 0 0 0 0 0 0 0 0 0 0 0 0 0 0 0 0 0 0 0 0 0 0 0 0 0 0 0 0 0 0 0 0 0 0 0 0 0 0 0 0 0 0 0 0 0 0 0 0 0 0 0 0 0 0 0 0 0 0 0 0 0 0 0 0 0 0 0 0 0 0 0 0 0 0 0 0 0 0 0 0 0 0 0 0 0 0 0 0 0 0 0 0 0 0 0 0 0 0 0 0 0 0 0 0 0 0 0 0 0 0 0 0 0 0 0 0 0 0 0 0 0 0 0 0 0 0 0 0 0 0 0 0 0 0 0 0 0 0 0 0 0 0 0 0 0 0 0 0 0 0 0 0 0 0 0 0 0 0 0 0 0 0 1 0 0 0 0 0 0 0 0 0 0 0 0 0 0 0 0 0 0 0 0 0 0 0 0 0 0 0 0 0 0 0 0 0 0 0 0 0 0 0 0 0 0 0 0 0 0 0 0 0 0 0 0 0 0 0 0 0 0 0 0 0 0 0 0 0 0 0 0 0 0 0 0 0 0 0 0 0 0 0 0 0 0 0 0 0 0 0 0 0 0 0 0 0 0 0 0 0 0 0 0 0 0 0 0 0 0 0 0 0 0 0 0 0 0 0 0 0 0 0 0 0 0 0 0 0 0 0 0 0 0 0 0 0 0 0 0 0 0 0 0 0 0 0 0 0 0 0 0 0 0 0 0 0 0 0 0 0 0 0 0 0 0 0 0 0 0 0 0 0 0 0 0 0 0 0 0 0 0 0 0 0 0 0 0 0 0 0 0 0 0 0 0 0 0 0 0 0 0 0 0 0 0 0 0 0 0 0 0 0 0 0 0 0 0 0 0 0 0 0 0 0 0 0 0 0 0 0 0 0 0 0 0 0 0 0 0 0 0 0 0 0 0 0 0 0 0 0 0 0 0 0 0 0 0 0 0 0 0 0 0 0 0 0 0 0 0 0 0 0 0 0 0 0 0 0 0 0 0 0 0 0 0 0 0 0 0 0 0 0 0 0 0 0 0 0 0 0 0 0 0 0 0 0 0 0 0 0 0 0 0 0 0 0 0 0 0 0 0 0 0 0 0 0 0 0 0 0 0 0 0 0 0 0 0 0 0 0 0 0 0 0 0 0 0 0 0 0 0 0 0 0 0 0 0 0 0 0 0 0 0 0 0 0 0 0 0 0 0 0 0 0 0 0 0 0 0 0 0 0 0 0 0 0 0 0 0 0 0 0 0 0 0 0 0 0 0 0 0 0 0 0 0 0 0 0 0 0 0 0 0 0 0 0 0 0 0 0 0 0 0 0 0 0 0 0 0 0 0 0 0 0 0 0 0 0 0 0 0 0 0 0 0 0 0 0 0 0 0 0 0 0 0 0 0 0 0 0 0 0 0 0 0 0 0 0 0 0 0 0 0 0 0 0 0 0 0 0 0 0 0 0 0 0 0 0 0 0 0 0 0 0 0 0 0 0 0 0 0 0 0 0 0 0 0 0 0 0 0 0 0 0 0zm9 14l1 0 2 0 0 1 0 0 0 1 0 1c0,0 -3,0 -6,-2 2,0 3,-1 3,-1zm10 -21c0,0 7,2 8,11 0,0 -1,1 -1,1 0,0 0,1 1,1l0 0c0,0 -1,0 -1,1 0,1 0,2 0,2l0 1 0 0 -1 -2 0 -3 -1 3 -2 1 1 3 3 -1 -1 1 -1 2 -6 -2c0,0 1,-1 1,-1 -1,-1 -2,-1 -2,-1l4 -1c0,0 1,-1 2,-2 0,-1 0,-2 0,-2 0,0 1,0 1,-1 0,0 0,-1 0,-1l-2 0c0,0 1,-1 1,-2 0,-1 -1,-5 -4,-8zm4 22l-1 1c1,0 1,0 1,-1l0 0zm-2 2c0,0 0,0 1,0l0 -2 -1 0 -1 2c0,0 0,0 0,0l1 0zm-1 -3l0 3c0,0 0,0 -1,0l0 0c0,0 -1,-1 0,-1l0 -2 1 0zm-1 0l-1 1c0,0 0,0 0,0l-1 0c0,0 0,0 0,0l0 -1 2 0zm-11 -18c1,1 1,1 2,0 0,0 0,-1 0,-1 -1,-1 -1,-1 -2,0 0,0 0,1 0,1zm0 12c0,0 1,0 1,0 1,-1 1,-1 0,-2 0,0 -1,0 -1,0 -1,1 -1,1 0,2zm-1 -11l-2 3 0 2 -3 0 0 -3 3 0 2 -2zm4 -3c0,0 1,0 1,0 1,-1 1,-1 0,-2 0,0 -1,0 -1,0 -1,1 -1,1 0,2z"/>
  </g>
  <path class="fil2" d="M17 31c0,0 0,0 0,0 0,0 0,0 0,0 0,0 0,0 0,0 0,0 0,0 0,0zm1 0c0,0 0,0 0,0 0,0 0,0 0,0 0,0 0,0 0,0 0,0 0,0 0,0zm-2 0c0,0 0,0 0,0 0,0 0,1 0,1 0,0 0,-1 0,-1 0,0 0,0 0,0zm-1 0c0,0 0,0 0,0 0,0 0,0 0,0 0,0 0,0 0,0 0,0 0,0 0,0zm-1 0c0,0 0,0 0,0 0,0 0,0 0,0 0,0 0,0 0,0 0,0 0,0 0,0zm-1 0c0,0 0,0 0,0 0,0 0,0 0,0 0,0 0,0 0,0 0,0 0,0 0,0z"/>
 </g>
</svg>
