<?xml version="1.0" encoding="UTF-8"?>
<!DOCTYPE svg PUBLIC "-//W3C//DTD SVG 1.1//EN" "http://www.w3.org/Graphics/SVG/1.1/DTD/svg11.dtd">
<!-- Creator: CorelDRAW X8 -->
<svg xmlns="http://www.w3.org/2000/svg" xml:space="preserve" width="500px" height="234px" version="1.1" style="shape-rendering:geometricPrecision; text-rendering:geometricPrecision; image-rendering:optimizeQuality; fill-rule:evenodd; clip-rule:evenodd"
viewBox="0 0 500 234"
 xmlns:xlink="http://www.w3.org/1999/xlink">
 <defs>
  <style type="text/css">
   <![CDATA[
    .fil3 {fill:#FEFEFE}
    .fil4 {fill:#AFA26B}
    .fil2 {fill:#FEFEFE;fill-rule:nonzero}
    .fil0 {fill:#BDBFC1;fill-rule:nonzero}
    .fil1 {fill:#AFA26B;fill-rule:nonzero}
   ]]>
  </style>
 </defs>
 <g id="Capa_x0020_1">
  <metadata id="CorelCorpID_0Corel-Layer"/>
  <g id="_2336631495216">
   <path class="fil0" d="M136 62c1,0 2,-1 2,-1 0,-1 0,-1 -1,-1 -20,0 -38,12 -50,25 -4,-17 -14,-32 -30,-32 -14,0 -21,10 -21,18 0,6 4,11 11,11 10,0 14,-7 14,-12 0,-2 -1,-3 -2,-3 -1,0 -2,0 -2,1 0,1 0,1 1,2 0,0 0,1 0,2 0,4 -2,9 -10,9 -5,0 -8,-5 -8,-10 0,-8 5,-17 17,-17 8,0 14,6 19,14l-25 57c-2,3 -4,5 -8,5 -1,0 -1,0 -1,1 0,0 0,0 1,0 0,0 5,0 8,0 3,0 7,0 8,0 0,0 1,0 1,0 0,-1 0,-1 -1,-1 -1,0 -1,0 -2,0 -2,0 -4,-1 -4,-3 0,-1 0,-1 0,-1l24 -56c3,6 5,13 6,20 -8,11 -13,23 -13,30 0,4 2,7 5,7 10,0 15,-12 15,-26 0,-4 -1,-9 -2,-14 10,-12 25,-23 42,-25 0,0 1,0 1,0 0,0 -1,0 -1,0 -25,9 -39,43 -39,69 0,19 7,35 24,35 14,0 22,-12 22,-21 0,-5 -3,-10 -11,-10 -9,0 -13,7 -13,12 0,3 1,4 2,4 1,0 2,-1 2,-2 0,0 0,-1 0,-2 -1,-1 -1,-2 -1,-4 0,-4 4,-7 9,-7 4,0 7,5 7,10 0,8 -5,18 -16,18 -12,0 -18,-14 -18,-32 0,-28 13,-63 38,-70zm235 117c0,7 0,14 0,17 0,3 -1,5 -2,5 -1,0 -2,0 -3,0 0,0 0,0 0,1 0,0 0,0 1,0 2,0 8,0 8,0 0,0 5,0 10,0 1,0 1,0 1,0 0,-1 0,-1 -1,-1 0,0 -2,0 -3,0 -3,0 -3,-2 -4,-5 0,-3 0,-10 0,-17l0 -2c0,-1 0,-1 1,-1l10 0c0,0 0,0 1,1 16,21 40,43 69,43 12,0 21,-3 26,-5 1,0 1,-1 1,-1 0,0 0,-1 -1,-1 0,0 0,1 -1,1 -5,2 -12,3 -16,3 -33,0 -54,-19 -73,-43 8,-7 10,-13 10,-19 0,-5 -3,-9 -5,-11 -5,-3 -10,-4 -15,-4 -3,0 -9,1 -10,1 0,0 -6,-1 -9,-1 -1,0 -2,1 -2,1 0,0 1,1 1,1 1,0 2,0 3,0 3,0 3,2 3,4 0,3 0,5 0,18l0 15zm7 -34c0,-1 0,-1 1,-1 1,-1 3,-1 5,-1 9,0 14,6 14,16 0,7 -2,11 -5,13 -2,1 -4,2 -6,2 -3,0 -7,-1 -8,-2 -1,0 -1,0 -1,-1l0 -26zm-239 26c0,15 9,33 31,33 20,0 33,-16 33,-34 0,-19 -14,-31 -32,-31 -23,0 -32,19 -32,32zm7 -2c0,-18 11,-27 24,-27 13,0 25,11 25,30 0,24 -15,28 -22,28 -15,0 -27,-12 -27,-31zm75 35c4,0 8,-1 12,-4 6,-4 7,-10 7,-14 0,-6 -2,-11 -12,-19l-2 -2c-8,-6 -10,-9 -10,-13 0,-6 4,-10 10,-10 7,0 9,4 10,4 0,1 1,4 1,5 0,0 0,1 1,1 0,0 0,-1 0,-2 0,-6 1,-9 1,-9 0,0 -1,0 -1,0 -1,0 -2,-1 -3,-1 -2,0 -5,-1 -8,-1 -10,0 -17,6 -17,15 0,6 2,11 11,18l4 3c7,6 9,9 9,15 0,5 -4,10 -12,10 -5,0 -11,-2 -12,-8 0,-1 0,-2 0,-3 0,-1 0,-1 -1,-1 0,0 0,1 0,1 0,2 -1,5 -1,9 0,2 0,3 2,3 3,2 7,3 11,3zm60 0c5,0 12,-1 15,-2 1,-1 2,-1 2,-3 1,-3 2,-10 2,-10 0,-1 0,-1 -1,-1 0,0 0,0 -1,1 0,1 -1,5 -3,7 -3,3 -8,4 -14,4 -17,0 -29,-15 -29,-30 0,-9 1,-16 7,-22 3,-2 8,-6 19,-6 7,0 13,3 16,5 2,2 4,5 4,8 0,2 0,2 0,2 1,0 1,0 1,-2 0,-1 0,-5 0,-8 0,-3 1,-4 1,-5 0,0 -1,0 -1,-1 -3,0 -6,0 -9,-1 -4,0 -8,-1 -12,-1 -12,0 -20,4 -25,9 -7,7 -9,17 -9,22 0,8 2,18 10,25 7,5 15,9 27,9zm26 -28c0,12 3,18 7,22 6,5 14,6 17,6 5,0 11,-1 17,-7 6,-5 7,-15 7,-24l0 -9c0,-13 0,-15 0,-18 0,-2 1,-4 3,-4 1,0 2,0 2,0 1,0 1,-1 1,-1 0,0 0,-1 -1,-1 -3,0 -7,1 -7,1 -1,0 -5,-1 -9,-1 -1,0 -1,1 -1,1 0,0 0,1 1,1 0,0 2,0 2,0 3,0 4,2 4,4 0,3 0,5 0,18l0 10c0,9 -1,16 -5,20 -3,4 -8,6 -13,6 -4,0 -8,0 -12,-4 -4,-3 -6,-9 -6,-20l0 -12c0,-13 0,-15 0,-18 0,-2 1,-4 3,-4 1,0 2,0 2,0 0,0 1,-1 1,-1 0,0 -1,-1 -2,-1 -2,0 -7,1 -8,1 0,0 -5,-1 -9,-1 -1,0 -1,1 -1,1 0,0 0,1 0,1 1,0 2,0 3,0 3,0 3,2 4,4 0,3 0,5 0,18l0 12zm110 -5c0,15 10,33 32,33 20,0 33,-16 33,-34 0,-19 -14,-31 -33,-31 -22,0 -32,19 -32,32zm8 -2c0,-18 10,-27 24,-27 13,0 25,11 25,30 0,24 -15,28 -23,28 -15,0 -26,-12 -26,-31zm-408 -63c0,3 0,6 -1,8 0,1 0,1 -1,1 0,1 0,1 -1,1 0,0 0,0 0,0 0,0 0,0 1,0 0,0 1,0 2,0 0,0 1,0 1,0 1,0 2,0 3,0 2,0 4,0 7,0 1,0 2,0 2,-1 0,0 0,-3 0,-3 0,0 0,-1 0,-1 0,0 0,1 0,1 -1,1 -1,2 -2,2 -1,1 -3,1 -4,1 -3,0 -4,-1 -4,-3 0,-1 0,-5 0,-6l0 -3c0,0 0,0 0,0 1,0 5,0 6,0 1,0 1,0 2,1 0,0 0,1 0,1 0,0 0,0 0,0 0,0 0,0 0,0 0,0 0,-2 1,-3 0,-1 0,-1 0,-2 0,0 0,0 0,0 -1,0 -1,0 -1,1 0,0 -1,0 -2,0 -1,0 -5,0 -6,0 0,0 0,0 0,0l0 -10c0,0 0,0 0,0 1,0 5,0 5,0 2,0 3,0 3,1 0,0 0,1 0,1 0,1 0,1 1,1 0,0 0,0 0,-1 0,0 0,-2 0,-2 0,-1 0,-1 0,-2 0,0 0,0 0,0 0,0 0,0 0,0 -1,0 -1,0 -2,0 -1,0 -8,0 -9,0 0,0 -2,0 -4,0 0,0 -1,0 -1,1 0,0 1,0 1,0 0,0 1,0 1,0 1,0 1,1 1,2 1,1 1,2 1,8l0 6zm21 -6c0,-6 0,-7 0,-8 0,-1 0,-2 1,-2 0,0 1,0 1,0 0,0 0,0 0,0 0,-1 0,-1 0,-1 -1,0 -4,0 -4,0 0,0 -3,0 -4,0 -1,0 -1,0 -1,1 0,0 0,0 0,0 1,0 1,0 2,0 1,0 1,1 1,2 0,1 0,2 0,8l0 6c0,3 0,6 0,8 0,1 0,1 -1,1 0,1 -1,1 -1,1 0,0 0,0 0,0 0,0 0,0 0,0 1,0 2,0 2,0 1,0 2,0 2,0 1,0 2,0 4,0 2,0 4,0 6,0 2,0 2,0 3,-1 0,-1 0,-3 0,-3 0,-1 0,-1 0,-1 0,0 0,0 -1,1 0,0 0,1 0,2 -1,1 -3,1 -5,1 -3,0 -4,0 -5,-1 0,-1 0,-3 0,-8l0 -6zm34 20c0,-6 4,-17 12,-27 0,4 0,8 0,12 0,11 -2,21 -8,21 -3,0 -4,-2 -4,-6zm97 6c-1,0 -2,0 -2,-1 0,-3 10,-20 10,-24 0,-2 -2,-3 -4,-3 -7,0 -13,7 -18,11 0,0 0,0 0,0 3,-8 4,-9 4,-10 0,-1 0,-1 -1,-1 0,0 -1,0 -3,0 -1,0 -4,0 -4,0 -1,0 -1,0 -1,1 0,0 0,1 1,1 1,0 1,0 1,1 0,1 -2,6 -8,19 -2,6 -4,11 -4,11 0,0 0,1 0,1 0,0 0,0 1,0 2,0 4,0 4,0 0,0 7,-16 8,-18 2,-3 12,-12 15,-12 1,0 2,0 2,2 0,5 -9,20 -9,25 0,2 0,3 3,3 5,0 12,-8 13,-10 0,0 0,-1 0,-1 0,0 0,0 0,0 -1,0 -1,0 -1,0 -3,3 -6,5 -7,5zm-36 -17c-5,9 -14,18 -18,18 -1,0 -2,-1 -2,-2 0,-1 1,-3 2,-6 7,-15 9,-19 9,-20 0,-1 -1,-1 -1,-1 -1,0 -2,0 -3,0 -2,0 -4,0 -5,0 0,0 0,0 0,1 0,0 0,1 0,1 1,0 2,0 2,1 0,1 -2,6 -8,19 -1,3 -3,7 -3,9 0,2 1,3 3,3 5,0 16,-9 18,-12 0,0 0,0 0,0 0,0 0,0 0,0 -1,3 -3,7 -3,9 0,2 1,3 3,3 6,0 13,-8 14,-10 0,0 0,-1 0,-1 0,0 0,0 -1,0 0,0 0,0 0,0 -3,3 -6,5 -7,5 -1,0 -2,0 -2,-1 0,-1 1,-2 2,-6 7,-15 9,-19 9,-20 0,-1 0,-1 -1,-1 -5,0 -5,0 -5,1 0,2 -1,5 -3,10zm119 -44c-8,0 -17,4 -25,12 -10,0 -27,-5 -39,-5 -18,0 -27,7 -27,13 0,3 4,6 12,6 8,0 17,-4 17,-8 0,-1 -1,-1 -2,-1 0,0 -1,0 -1,0 -1,5 -8,8 -14,8 -7,0 -10,-2 -10,-5 0,-4 9,-10 24,-10 15,0 28,3 39,4 -5,5 -11,12 -16,21 -1,-1 -4,-2 -6,-2 -5,0 -11,3 -15,8 -6,6 -11,15 -11,21 0,3 1,5 5,5 7,0 16,-10 18,-12 -1,2 -2,5 -2,8 0,2 1,4 3,4 6,0 13,-8 14,-10 0,0 0,-1 0,-1 0,0 0,0 -1,0 0,0 0,0 0,0 -3,3 -6,5 -8,5 0,0 -1,0 -1,-1 0,-4 10,-31 24,-46 18,-1 27,-8 27,-11 0,-2 -2,-3 -5,-3zm-43 38c-2,4 -4,8 -6,12 -4,6 -11,12 -16,12 -1,0 -2,-1 -2,-3 0,-5 3,-12 7,-17 4,-5 9,-8 13,-8 2,0 4,1 4,4l0 0zm44 -36c0,3 -9,10 -22,10 6,-6 13,-11 20,-11 2,0 2,1 2,1zm-13 31c-11,0 -23,17 -23,27 0,4 2,7 7,7 11,0 21,-13 23,-23 2,0 4,0 6,0 7,0 12,-1 16,-3 8,3 17,5 26,5 13,0 16,-4 16,-7 0,-2 -1,-3 -3,-3 0,0 -1,0 -1,0 -1,5 -8,8 -14,8 -8,0 -15,-2 -23,-4 7,-3 9,-8 9,-12 0,-7 -5,-13 -15,-13 -5,0 -8,3 -8,6 0,2 1,3 3,3 0,0 1,0 1,-1 0,-4 1,-7 5,-7 6,0 10,5 10,12 0,4 -2,8 -7,12 -10,-4 -19,-7 -28,-7zm-17 24c0,-7 6,-19 12,-21 0,3 2,6 8,7 0,8 -7,20 -15,20 -3,0 -5,-3 -5,-6zm23 -22c6,1 13,3 21,5 -4,2 -8,3 -13,3 -2,0 -4,0 -6,-1 0,0 0,-1 0,-2 0,-2 -1,-4 -2,-5zm-8 1c3,0 5,3 5,6 -3,-1 -5,-4 -5,-6z"/>
   <path class="fil1" d="M144 73c-2,1 -4,2 -6,2 -4,2 -9,5 -12,10 0,0 1,0 1,0 2,0 3,0 5,0l0 1c-2,0 -3,0 -5,1 -1,-1 -2,-1 -4,-1 5,-6 10,-10 15,-12 2,-1 4,-1 5,-2l0 0 0 0c4,-2 7,-7 7,-11 0,-5 -2,-9 -7,-12 -1,0 -2,-1 -3,-1 -1,0 -2,0 -3,0 -11,0 -22,3 -31,8 -5,2 -10,5 -14,8 -2,-4 -4,-8 -7,-11 -8,-7 -17,-12 -28,-12 -10,0 -17,3 -23,8 -7,6 -10,14 -10,22 0,2 0,4 0,6 -2,0 -4,0 -5,0l0 0 0 0 -1 0 0 0c-1,0 1,0 0,0 -1,0 -4,0 -4,0 -2,0 -4,0 -6,1l0 0c-5,3 -7,6 -7,12 0,3 1,6 3,8l0 2 0 6 0 2c0,1 0,1 -1,2 -1,2 -1,4 -1,6 0,5 2,9 7,11 2,1 4,2 6,2 0,0 0,-1 1,-1l1 0c1,0 1,0 1,0 0,0 0,0 0,0l0 0 0 0c0,0 0,0 0,0 1,0 2,0 3,0 0,0 0,0 0,0l1 0c2,1 5,1 6,1 1,0 1,0 2,0 0,0 0,1 0,2 0,0 0,1 0,1 1,6 1,11 13,11 0,0 1,0 1,0 1,0 1,0 2,0 0,0 2,0 5,0 2,0 4,0 6,1 1,0 2,0 2,0 4,0 7,-2 10,-5 0,0 0,0 0,-1 2,1 4,1 6,1 1,0 3,0 4,0 1,10 4,18 8,25 7,9 16,14 28,14l1 0 -1 1 1 0c0,0 0,0 -1,0 -12,0 -22,-5 -28,-14 -5,-7 -8,-15 -9,-25 -1,0 -2,1 -3,1 -2,0 -4,-1 -5,-1 0,0 -1,0 -1,0 -2,3 -6,5 -10,5 0,0 -1,0 -2,0 -2,0 -4,-1 -6,-1l-5 0c-1,0 -1,0 -1,0 -1,1 -2,1 -2,1 -13,0 -14,-6 -14,-13 0,0 0,-1 0,-1 0,-1 0,-1 0,-1l-1 0c-1,0 -4,0 -6,0l-1 0c0,0 0,0 0,0 -1,0 -2,0 -3,0 0,0 0,0 0,0l0 -1 0 0 0 0c0,0 0,0 -1,1l-1 0c-1,0 -1,0 -1,0 -3,0 -5,-1 -7,-2 -5,-2 -7,-6 -7,-12 0,-2 0,-4 1,-7 0,0 1,-1 1,-1l0 -2 0 -6 0 -2c-2,-2 -3,-5 -3,-8 0,-6 2,-10 8,-13l0 0c2,-1 4,-1 6,-1 0,0 3,0 4,0 1,0 -1,0 0,0l0 0 1 0 0 0 0 0c1,0 2,0 4,0 0,-2 0,-3 0,-5 0,-8 3,-17 11,-23 5,-5 13,-8 23,-8 12,0 21,5 28,12 3,3 6,7 8,10 4,-3 8,-5 12,-7 10,-5 20,-8 32,-8 1,0 2,0 3,0 1,0 2,1 3,1 6,3 8,7 8,13 0,4 -3,9 -7,12l0 0 0 0zm-3 12c1,0 3,0 5,1 0,-1 1,-1 1,-1 0,0 0,0 0,0 0,-8 6,-17 16,-22 6,-3 15,-5 25,-5 8,0 18,2 26,4 3,0 6,1 9,1 3,-3 7,-5 11,-7 6,-3 12,-5 18,-5 4,0 8,1 11,3 5,3 7,8 7,13 5,1 10,3 13,6 6,5 10,12 10,20 0,0 0,1 0,2l-1 1 0 1 -1 0c1,-2 1,-3 1,-4 0,-8 -4,-14 -9,-19 -4,-3 -8,-5 -14,-6 0,0 0,0 0,0 0,-6 -2,-10 -7,-13 -3,-1 -6,-2 -10,-2 -6,0 -12,1 -18,4 -4,2 -7,4 -11,7 -3,0 -6,-1 -9,-1 -8,-2 -18,-4 -26,-4 -10,0 -18,2 -24,5 -10,5 -16,13 -16,21 0,0 0,1 0,1 0,0 -1,0 -2,1 -2,-1 -4,-1 -5,-1l0 -1zm57 123c3,4 10,6 15,7 2,1 5,1 8,1 3,0 6,-1 10,-2 3,0 6,-2 9,-4l0 0 0 0c3,-2 5,-4 6,-6 5,4 10,7 16,9 5,2 12,3 19,3 3,0 7,0 10,-1 4,0 7,-1 9,-2 1,0 1,0 2,-1 2,0 3,-1 4,-3 1,0 1,-1 1,-1 4,4 9,6 14,7 4,1 8,1 10,1 3,0 7,0 11,-2 4,-1 8,-3 13,-6 1,2 3,4 6,5 2,1 4,2 6,2 1,0 6,-1 8,-1l0 0c0,0 0,0 0,0 2,0 7,1 10,1 2,0 4,-1 6,-2 1,0 1,0 2,-1 3,-2 4,-4 5,-8 5,5 9,9 15,13 13,9 29,16 46,16 7,0 14,-1 19,-3 5,-1 9,-3 12,-4 0,0 0,0 1,0l0 0c1,-1 3,-2 4,-4 2,-2 3,-4 3,-7l1 0 0 0c0,3 -1,5 -3,8 -1,1 -3,3 -5,4l0 0c0,0 0,0 0,0 -3,1 -7,3 -13,4 -5,2 -12,3 -19,3 -18,0 -33,-7 -47,-17 -5,-3 -9,-7 -13,-10 -1,2 -3,4 -5,6 -1,0 -2,1 -2,1 -2,1 -5,2 -7,2 -3,0 -8,0 -10,0 0,0 1,0 0,0l0 0c-2,0 -7,0 -8,0 -2,0 -5,-1 -7,-2 -3,-1 -4,-3 -6,-5 -4,3 -8,5 -11,6 -5,2 -9,2 -12,2 -2,0 -6,0 -11,-1 -4,-1 -8,-3 -13,-6l0 0c-1,2 -3,2 -5,3 0,1 -1,1 -1,1 -3,1 -6,2 -10,2 -3,1 -7,1 -10,1 -7,0 -14,-1 -20,-3 -6,-2 -10,-5 -15,-8 -1,2 -3,3 -5,5l0 0 0 0c-3,2 -7,4 -10,5 -4,0 -7,1 -10,1 -3,0 -6,0 -9,-1 -4,-1 -11,-3 -14,-7l0 -1zm296 -35c0,-1 0,-2 0,-3 0,-13 -5,-24 -13,-31 -8,-8 -19,-12 -32,-12 -13,0 -23,5 -31,12 -1,2 -2,3 -3,4 -3,-4 -6,-7 -8,-9l0 0 0 0c-4,-3 -8,-4 -12,-5 -4,-1 -7,-1 -10,-1 -1,0 -5,0 -8,0 0,0 -1,0 -2,0 -1,0 -1,0 -1,0 -2,0 -6,0 -8,0 -1,0 -2,0 -3,0 -1,0 -2,0 -3,0 -2,0 -4,0 -6,0 0,0 -1,0 -1,0 -1,0 -1,0 -1,0 -2,0 -6,0 -8,0 -2,0 -4,1 -6,1l0 0 0 0c-3,2 -6,4 -7,7 -1,-3 -3,-5 -6,-7 -1,0 -1,0 -2,0 -1,-1 -3,-1 -5,-1 0,0 -4,0 -6,0 0,0 -1,0 -2,0 -1,0 -1,0 -1,0 -2,0 -6,0 -8,0 -2,0 -3,0 -5,1 -1,0 -2,-1 -3,-1l-1 0c-2,0 -4,-1 -6,-1 -3,0 -6,0 -8,0 -8,0 -14,1 -19,3 -4,2 -7,3 -9,5 -1,-1 -1,-2 -2,-2 3,-4 6,-8 8,-12 3,0 5,0 8,-1 1,0 3,-1 5,-1 3,1 6,2 10,3 5,1 10,2 16,2 7,0 12,-2 17,-3 8,-4 12,-11 12,-17l1 0c0,7 -4,14 -13,18 -4,2 -10,3 -17,3 -6,0 -11,-1 -16,-2 -4,-1 -7,-2 -10,-3 -2,1 -3,1 -5,1 -2,1 -5,1 -7,1 -2,4 -5,7 -8,11 1,0 1,0 1,1 2,-2 5,-3 8,-5 6,-2 12,-3 20,-3 2,0 5,0 8,0 2,0 4,1 7,1l0 0c1,0 2,1 3,1 2,-1 3,-1 5,-1 2,0 6,0 8,0 0,0 0,0 1,0 1,0 2,0 2,0 2,0 6,0 6,0 2,0 4,0 5,1 1,0 2,0 2,0 3,2 5,3 6,6 2,-3 4,-4 6,-6l0 0 0 0c3,-1 5,-1 7,-1 2,0 6,0 8,0 0,0 0,0 1,0 0,0 1,0 1,0 2,0 5,0 6,0 1,0 2,0 3,0 1,0 2,0 3,0 2,0 6,0 8,0 1,0 0,0 1,0 2,0 2,0 2,0 3,0 7,0 8,0 3,0 6,0 10,1 4,1 9,2 12,5l0 0 0 0c3,2 6,5 8,8 1,-1 2,-2 2,-2 8,-8 19,-13 32,-13 13,0 25,4 33,12 8,8 13,19 13,32 0,0 0,1 0,1l-1 0 0 2zm-158 -22c-2,-1 -4,-3 -5,-6 -1,3 -2,5 -4,6 0,0 -1,1 -1,1 0,2 0,6 0,12l0 12c0,4 1,7 1,9 1,1 1,1 1,2l0 0c1,0 1,1 2,1 0,0 1,0 2,0 1,0 2,0 2,0 1,-1 1,-1 2,-1 0,-1 1,-2 1,-4 1,-2 1,-5 1,-9l0 -10c0,-9 0,-9 0,-12 -1,0 -2,0 -2,-1zm-318 -23l0 0c2,0 1,0 0,0zm317 24c1,1 1,1 2,1 0,2 0,3 0,11l0 10c0,4 -1,7 -1,9 0,1 -1,2 -1,3 0,0 -1,0 -1,1 -1,0 -1,0 -2,0 -1,0 -2,0 -2,0 0,0 0,0 -1,-1l0 0c0,0 -1,-1 -1,-1 0,-2 -1,-5 -1,-9l0 -12c0,-6 0,-9 0,-12 0,0 1,0 1,0 1,-1 2,-2 3,-4 1,2 3,3 4,4zm-317 -22c1,-1 2,-1 0,-1l0 1z"/>
   <path class="fil1" d="M267 88c-1,5 -3,7 -5,7 1,1 2,1 4,2l1 0c0,0 0,-1 1,-1 0,-1 0,-2 0,-3 0,-2 0,-3 -1,-4 0,-1 0,-1 0,-1zm-39 5c-1,1 -2,3 -3,4 1,-1 3,-2 5,-3l-2 -1zm5 -8c-1,2 -3,4 -4,6l7 1c2,-1 3,-1 4,-1 4,0 8,1 12,2l0 0c-2,-2 -2,-4 -2,-7 0,-1 0,-3 1,-5 -5,2 -11,4 -18,4zm-57 -2c1,0 1,0 2,0 -1,0 -1,0 -2,0zm8 18c0,0 0,0 0,1 0,-1 0,-1 0,-1l0 0c3,-3 6,-5 10,-7 3,-2 7,-3 10,-3 1,0 3,0 4,1 1,-3 3,-5 5,-8l0 0c-1,0 -2,0 -3,0 -4,-1 -9,-2 -13,-2 0,0 0,0 0,1 0,5 -4,9 -9,11 -2,1 -4,2 -6,2 1,2 2,5 2,5zm-148 22l0 0c0,0 0,0 0,0zm-18 0c0,0 1,0 0,0l0 0zm418 31c-3,3 -4,8 -4,15 0,8 2,14 5,18 4,4 9,7 14,7 3,0 8,-1 12,-6 2,-3 4,-8 4,-16 0,-7 -2,-13 -5,-17 -4,-4 -8,-6 -13,-6 -5,0 -10,1 -13,5zm-137 27c1,0 1,0 1,0 0,-2 0,-3 0,-5l0 -12 0 0c-1,0 -1,0 -2,0 -3,0 -6,-2 -7,-5 0,-1 0,-2 0,-4 0,0 0,-1 -1,-2 0,0 0,-1 0,-1l0 0c-1,-1 -3,-1 -5,-2 -2,-1 -4,-1 -7,-1 -5,0 -8,1 -10,2 -2,0 -4,1 -4,2l0 0c-3,2 -4,5 -5,7 0,3 -1,6 -1,10 0,6 3,12 7,16 4,4 10,7 16,7 3,0 5,0 7,-1 1,0 2,0 3,-1 0,0 0,0 0,-1 0,-1 1,-2 1,-2l0 0c0,-2 0,-3 1,-4 2,-2 3,-3 6,-3zm-67 -19c2,2 4,3 6,5 0,-3 1,-6 2,-9 -1,0 -2,0 -2,0 -4,0 -5,-1 -7,-4 0,-1 -1,-2 -1,-3l0 0c0,0 0,-1 0,-1 0,0 0,0 0,0 0,0 0,0 0,0 -1,-1 -2,-1 -4,-1 -1,0 -2,0 -3,1 0,0 -1,1 -1,2 0,1 1,1 1,2 1,2 3,3 7,6l0 0 2 2zm-74 -8c-3,3 -5,8 -5,15 0,8 2,14 6,18 3,4 8,7 14,7 3,0 8,-1 11,-6 3,-3 4,-8 4,-16 0,-7 -2,-13 -5,-17 -3,-4 -8,-6 -13,-6 -5,0 -9,1 -12,5zm41 -11c2,2 4,4 5,6 1,-4 3,-8 7,-11 1,-1 2,-2 4,-2 -1,-1 -1,-1 -1,-1 0,0 0,0 -1,-1l0 1c-3,2 -7,4 -11,4 -3,0 -6,-2 -8,-4 -1,1 -2,1 -4,2 3,2 6,4 9,6zm11 27c0,4 -1,8 -2,12 1,0 1,-1 1,-1 3,0 5,2 7,4l0 0c0,1 1,3 1,4 0,0 0,1 0,1l0 0c0,0 0,1 0,1l0 0c0,1 0,1 1,2 1,0 3,1 4,1 2,0 3,-1 4,-1 1,-1 1,-2 1,-3 0,-2 0,-3 -1,-4 -1,-2 -3,-4 -6,-6l-3 -3c-3,-2 -6,-5 -7,-7zm180 -18c-2,-1 -3,-2 -5,-2l0 17c1,0 1,0 2,0 1,0 1,0 2,0 0,0 0,0 1,0l0 0c0,-1 0,-1 1,-2l0 0c0,-2 1,-3 1,-6 0,-3 -1,-6 -2,-7zm-329 -29c1,1 2,1 3,2 -1,-2 -1,-3 -1,-5 0,0 0,-1 0,-1l-2 4zm-10 -55c0,-3 1,-5 3,-7 -2,1 -4,2 -5,3 -2,2 -3,4 -3,7 0,1 1,2 1,3 0,0 1,0 1,0 2,0 3,0 3,0 0,-1 1,-1 1,-1 -1,-1 -1,-2 -1,-2l0 0c0,-1 0,-2 0,-3zm17 0c0,1 0,1 0,1l0 0c0,0 0,-1 0,-1zm-7 16c-3,3 -8,5 -14,5 0,0 0,0 0,1 0,2 -1,4 -2,5l0 0c0,0 -1,0 -1,0l0 5 0 6 0 0c1,-1 3,-1 5,-1 1,0 2,0 3,0l10 -22c0,1 -1,1 -1,1zm159 19c4,-6 8,-13 13,-19 7,0 13,-2 17,-4 1,0 2,-1 3,-1 -1,2 -2,5 -2,7 0,2 0,4 2,6 1,2 3,3 6,3 0,0 7,0 7,-7 0,-1 0,-1 0,-2 1,1 1,1 2,2 1,1 2,3 2,5 0,1 -1,2 -1,4 -1,0 -1,1 -2,1l-1 0c-9,-3 -17,-6 -26,-6 -1,0 -2,0 -4,1l-8 -1 3 2c-3,2 -7,5 -10,9 0,0 -1,0 -1,1l0 -1zm-38 -22c0,1 -1,1 -2,2l0 0c-2,1 -4,1 -7,1 -1,0 -2,0 -3,0 1,0 1,0 2,-1 3,-1 6,-2 10,-2l0 0zm-42 23c1,-1 1,-1 1,-1 0,0 0,1 0,1 0,0 0,0 -1,0zm42 -3c0,-2 0,-4 -1,-5 2,-1 4,-2 6,-3 5,-2 8,-6 8,-10 0,-1 0,-2 0,-2 6,0 11,1 15,2 2,0 3,0 5,0 -1,1 -1,1 -2,2 -1,2 -3,5 -5,8 -1,0 -2,-1 -4,-1 -3,0 -6,1 -10,3 -3,2 -6,4 -9,7l0 0c-1,1 -2,2 -3,4 0,-2 0,-4 0,-5zm253 52c4,-4 8,-5 14,-5 5,0 10,2 14,6 3,4 5,10 5,18 0,8 -2,14 -4,17 -4,5 -10,6 -13,6 -6,0 -11,-3 -14,-7 -4,-5 -6,-11 -6,-19 0,-7 1,-12 4,-16zm-136 29c-2,0 -4,1 -5,3 -1,1 -1,2 -1,3l0 0c0,0 0,1 -1,3 0,0 0,1 -1,1 0,1 -2,1 -3,2 -2,0 -4,0 -7,0 -7,0 -13,-3 -17,-7 -4,-4 -7,-11 -7,-17 0,-4 0,-7 1,-10 1,-3 3,-5 5,-8l0 0c1,-1 2,-2 4,-2 3,-1 6,-2 11,-2 3,0 5,0 8,1 2,1 4,2 5,2l0 0c0,1 0,1 1,2 0,1 0,1 0,2 0,1 0,2 0,3 1,3 3,5 6,5 1,0 2,0 3,-1l0 2 0 12c0,2 0,4 0,6 0,0 -1,0 -2,0zm-68 -19l-2 -2 0 0c-3,-3 -6,-5 -7,-6 -1,-1 -1,-2 -1,-3 0,-2 1,-3 1,-3 1,-1 2,-1 4,-1 2,0 4,0 5,1 0,0 0,0 0,0 0,0 0,0 0,1 0,0 0,1 0,1l0 0c1,1 1,2 1,3 1,2 3,3 6,3 1,0 3,0 4,-1l0 0c-2,5 -3,10 -3,13 -2,-2 -5,-4 -8,-6zm-74 -10c3,-4 8,-5 13,-5 5,0 10,2 14,6 3,4 6,10 6,18 0,8 -2,14 -5,17 -4,5 -9,6 -12,6 -6,0 -11,-3 -15,-7 -4,-5 -6,-11 -6,-19 0,-7 2,-12 5,-16zm41 -9c-3,-3 -7,-5 -11,-7 3,-1 5,-2 7,-3 0,-1 1,-1 1,-1 0,0 0,1 0,1 2,2 4,4 7,4 4,0 7,-2 10,-4 1,-1 1,-1 2,-1 0,0 0,1 1,1 0,1 1,1 2,2 -2,1 -4,2 -6,3 -4,4 -6,8 -6,14 -2,-4 -4,-7 -7,-9zm11 26c0,-1 0,-2 -1,-3 2,3 5,6 9,9l4 3c3,3 5,5 6,6 1,2 1,3 1,5 0,1 0,2 -1,3 -1,1 -3,2 -5,2 -2,0 -3,0 -5,-1 0,-1 -1,-2 -1,-3l0 0c0,0 0,-1 0,-1l0 0c0,0 0,-1 0,-1 0,-1 -1,-2 -1,-3l0 0c-1,-2 -3,-3 -6,-3 -1,0 -2,0 -3,0 2,-4 3,-8 3,-13zm175 -21c3,0 5,0 6,2 2,2 3,5 3,8 0,3 -1,5 -1,6l0 0c-1,1 -1,2 -2,2l0 0c0,1 0,1 -1,1 0,0 -1,0 -2,0 -1,0 -2,0 -3,0l0 -19 0 0zm-290 -60c1,-2 3,-3 4,-5 0,0 0,1 0,1 -1,2 -3,4 -4,6 0,-1 0,-2 0,-2zm-31 -22l0 0 0 0 0 0zm-16 21c6,0 10,-2 13,-5 5,-4 7,-9 7,-13 0,-2 -1,-4 -2,-6 -1,-2 -3,-3 -6,-3 -4,0 -7,3 -7,7 0,1 0,2 0,3l0 0c0,0 0,1 1,1l0 0c0,1 -1,2 -1,3 -1,0 -2,1 -4,1 -1,0 -1,-1 -2,-1 0,-1 -1,-3 -1,-4 0,-3 1,-6 3,-8 2,-2 5,-3 9,-3 2,0 5,1 7,2 2,2 4,4 6,7l-17 38c-1,-1 -2,-1 -4,-1 -2,0 -4,0 -5,2 0,0 0,1 -1,1l0 0 0 0c0,-1 0,-2 0,-3l0 -6 0 -5c0,-1 1,-1 1,-1l0 0c1,-1 2,-3 2,-4 0,-1 0,-1 0,-2 0,0 1,0 1,0zm23 13l0 0 0 0 6 -16c1,1 1,3 1,4 -3,4 -5,8 -7,12zm70 -35l0 0c2,-1 4,-3 4,-5 0,-3 -1,-5 -4,-6l0 0c-1,0 -2,0 -3,0 -10,0 -20,2 -28,6 -7,4 -14,8 -19,13 -3,-6 -6,-12 -10,-16 -6,-6 -14,-10 -23,-10 -8,0 -14,2 -18,6 -6,4 -9,11 -9,17 0,5 2,9 5,12 0,0 0,1 1,1 -1,0 0,0 -1,0 -1,0 -3,0 -3,0 -1,0 -1,0 -1,0 0,0 -1,-1 -2,-1 -1,0 -1,1 -2,1 0,0 0,0 0,0l0 0c-1,0 -1,0 -2,0l0 -1c1,0 1,0 2,0l0 0c0,0 0,0 0,0 1,-1 1,-1 2,-1 1,0 2,0 2,1l1 0c0,0 0,0 1,0 -2,-4 -4,-8 -4,-12 0,-6 3,-13 9,-18 4,-4 11,-6 19,-6 10,0 17,4 23,10 5,4 8,10 10,16 6,-5 12,-9 18,-13 9,-4 19,-7 29,-7 1,0 3,1 4,1l0 0c2,2 4,4 4,7 0,2 -2,5 -5,6l0 0c-1,1 -2,1 -3,1 -9,3 -17,11 -22,21 0,1 -1,2 -1,3 0,0 1,-1 1,-1 0,0 1,0 2,1 1,0 2,0 3,0 1,0 1,0 2,0 0,0 1,0 1,0 1,0 2,0 3,0l0 0c1,1 2,1 3,2 1,-3 3,-3 12,-3 1,0 2,1 3,1 1,0 2,1 2,1 1,-1 3,-2 5,-2 0,0 1,0 1,1 1,0 2,0 3,0 1,0 1,0 1,0 -1,-2 -2,-5 -2,-7 0,-6 4,-12 12,-16 5,-2 13,-4 22,-4 8,0 17,2 25,3 4,1 8,2 12,2 4,-3 8,-6 12,-8 5,-3 10,-4 15,-4 3,0 5,1 7,2 3,2 5,4 5,8 0,1 -1,3 -2,5 0,0 1,0 2,0 6,0 11,2 15,5 5,4 7,9 7,15 0,3 -1,6 -2,9 3,0 6,0 9,0 2,0 5,0 6,-1 1,-1 2,-1 2,-1l0 -1 1 -2c0,0 2,-3 6,-3 3,0 6,1 7,3 2,2 3,5 3,7 0,4 -2,9 -9,12 -3,1 -8,2 -14,2 -5,0 -10,-1 -15,-2 -4,-1 -8,-2 -11,-3 -2,1 -4,1 -6,2 -3,0 -6,0 -10,0 0,0 0,0 -1,0 -2,5 -5,11 -9,15 -2,1 -3,3 -5,4 2,0 3,0 4,1 3,2 3,4 3,6 0,0 0,1 0,1l0 0c0,1 0,3 0,6 1,-2 2,-3 4,-5 3,-3 6,-5 12,-7 4,-2 10,-3 17,-3 2,0 5,0 7,0 2,0 4,0 6,1l1 0c2,0 3,0 5,1l0 0 0 0c1,-1 3,-1 4,-1 2,0 6,0 8,0 0,0 1,0 1,0 1,0 2,0 2,0 2,0 5,0 6,0 2,0 3,0 4,1l0 0c3,1 4,3 4,6 0,3 -1,4 -2,6 -1,0 -2,1 -3,1 0,2 0,6 0,16l0 12c0,5 0,8 1,11 1,2 2,3 3,4l0 0c1,1 2,2 3,2 1,1 3,1 4,1 2,0 3,-1 5,-1 1,-1 2,-2 3,-3l0 0c1,-1 2,-3 2,-6 1,-2 1,-6 1,-10l0 -10c0,-8 0,-12 0,-12 0,-2 0,-3 0,-4 -1,0 -3,0 -4,-1 -2,-2 -3,-3 -3,-6 0,-3 1,-5 4,-6l0 0c2,-1 3,-1 4,-1 3,0 6,0 8,0 0,0 0,0 1,0 0,0 1,0 1,0l2 0 0 1 -2 0c0,0 -1,0 -1,0 -1,0 -1,0 -1,0 -2,0 -5,0 -8,0 -1,0 -2,0 -3,1l0 0c-3,1 -4,2 -4,5 0,2 1,4 3,5 1,1 2,1 4,1 0,0 0,0 0,0 0,1 0,3 0,5 0,0 0,4 0,12l0 10c0,4 0,8 0,11 -1,2 -2,4 -3,6l0 0c-1,1 -2,2 -4,3 -1,0 -3,1 -5,1 -1,0 -3,0 -4,-1 -2,0 -3,-1 -4,-2l0 0c-1,-1 -2,-3 -3,-5 -1,-2 -2,-6 -2,-11l0 -12c0,-12 0,-15 1,-17 1,0 2,0 3,-1 1,-1 2,-3 2,-5 0,-3 -1,-4 -3,-5l0 0c-1,-1 -2,-1 -4,-1 -1,0 -4,0 -6,0 -1,0 -1,0 -2,0 0,0 -1,0 -1,0 -2,0 -6,0 -8,0 -1,0 -2,0 -3,1l0 0c-1,0 -1,0 -1,0 -2,0 -3,-1 -6,-1l0 0c-2,-1 -4,-1 -6,-1 -2,0 -5,0 -7,0 -7,0 -12,1 -17,3 -5,2 -9,4 -12,7 -2,2 -4,5 -5,8 0,-1 0,-2 0,-2 0,-4 0,-7 0,-8l0 0c0,0 0,-1 0,-1 0,-2 0,-3 -2,-5 -1,-1 -3,-1 -4,-1 0,0 0,0 -1,0 0,0 0,0 -1,0l0 0c0,0 -1,0 -1,-1 3,-1 5,-3 7,-5 4,-4 8,-10 10,-15 0,0 1,0 1,0 4,0 7,0 10,0 2,-1 4,-1 6,-2 4,1 7,2 11,3 5,1 10,2 15,2 6,0 11,-1 14,-2 6,-3 8,-7 8,-11 0,-2 -1,-4 -2,-6 -2,-2 -4,-3 -7,-3 -3,0 -6,3 -6,3l0 1 0 1c0,1 -1,1 -2,2 -2,1 -5,1 -7,1 -4,0 -7,0 -11,-1l0 0c2,-3 3,-6 3,-9 0,-6 -2,-10 -7,-14 -3,-3 -8,-5 -14,-5 -2,0 -4,0 -5,1 2,-2 4,-5 4,-7 0,-3 -2,-6 -4,-7 -2,-1 -4,-2 -7,-2 -5,0 -10,2 -15,4 -4,2 -8,5 -12,9 -3,-1 -8,-2 -12,-3 -8,-1 -18,-3 -25,-3 -9,0 -16,2 -21,4 -8,4 -12,9 -12,15 0,3 1,5 4,8 0,0 0,0 -1,0l-1 0c0,0 0,0 -2,0 -1,0 -2,0 -3,0 0,0 -1,0 -1,0 -2,0 -4,0 -5,2l0 0c0,-1 -1,-2 -2,-2 -1,0 -2,0 -3,0 -11,0 -11,0 -11,6 0,0 0,1 0,2 -1,2 -2,3 -3,5l0 0c0,2 -1,4 -3,6l1 -2c3,-7 4,-9 4,-11 0,-3 -1,-5 -3,-6l0 0c-2,0 -2,0 -3,0l-1 0c-1,0 -1,0 -2,0 -1,0 -2,0 -3,0 -1,0 -2,0 -2,0 -1,0 -3,0 -4,1 1,-2 2,-4 3,-6 6,-10 13,-18 23,-21 1,0 2,0 3,-1zm-122 18c-1,0 -3,0 -4,0 -1,0 -2,0 -3,0l0 0c-2,2 -3,3 -3,6 0,1 1,3 2,4 0,0 0,1 1,1 0,1 0,1 0,5l0 6c0,2 0,4 0,5 0,0 -1,1 -1,1l0 0c-1,1 -2,3 -2,4 0,2 2,4 4,5 1,1 2,1 3,1 0,0 0,0 1,0 0,0 1,0 1,0l0 0c0,0 1,0 1,0 1,0 2,0 3,0l0 0 1 0c2,0 4,0 6,0 1,0 2,0 3,0 1,0 1,0 1,0 0,0 1,0 1,0 1,0 1,0 2,0 0,0 0,0 0,0l0 0c1,0 0,0 1,0 1,0 2,0 3,0l1 0 0 0c0,0 1,0 3,0l0 0c1,0 3,0 3,0l0 0c0,1 -1,1 -1,2 -1,0 -1,0 -2,0l-1 0 0 0c-2,0 -4,2 -5,3l0 0c0,2 0,3 0,4l0 0 0 0c0,3 0,6 6,6l0 0 0 0c1,0 2,0 3,0 1,0 3,0 5,0 2,0 5,0 6,0 1,0 2,0 2,0 2,0 3,-1 5,-2 1,-1 1,-3 1,-4 0,-2 0,-3 -1,-4 -1,-2 -2,-3 -4,-3l7 -16 0 0c-2,5 -3,9 -3,12 0,4 1,6 3,9 2,2 5,4 8,4 4,0 7,-2 10,-4 0,1 0,2 0,2 0,11 3,22 8,29 5,7 12,12 22,12 8,0 14,-3 19,-7 -1,2 -1,4 -1,6 0,10 3,20 11,28 6,6 15,10 26,10 12,0 21,-4 28,-11 2,-2 4,-5 5,-7 0,2 0,4 0,7 0,2 0,3 0,4 2,4 7,6 11,6 2,1 4,1 7,1 2,0 5,0 8,-1 2,-1 5,-2 7,-3l0 0c3,-3 5,-5 7,-8 1,-2 1,-3 2,-5 1,3 3,5 5,7l0 0c4,3 8,6 14,8 5,1 10,2 17,2 3,0 6,0 9,0 3,-1 6,-1 8,-2l0 0c2,-1 2,-1 3,-2l0 -1c1,-1 2,-2 2,-3l0 0c1,-2 1,-3 1,-5 1,-1 1,-1 1,-2 1,3 3,6 5,8l0 0c4,3 8,5 12,6 4,1 7,1 9,1 3,0 6,0 9,-1 4,-1 8,-3 11,-6l0 0c5,-4 7,-9 8,-14 1,-5 2,-10 2,-15l0 -9c0,-12 0,-15 0,-17 0,0 1,0 2,0 0,0 1,0 2,0 0,0 1,0 1,0 0,1 0,3 0,5 0,0 0,4 0,12l0 15c0,7 0,14 0,17 -2,0 -3,0 -4,1 -1,1 -2,3 -2,5 0,2 1,4 4,5 1,1 2,1 3,1 2,0 6,0 7,0l0 0 1 0 0 0c0,0 0,0 0,0 2,0 7,0 10,0 1,0 2,0 3,-1l0 0c2,-1 4,-3 4,-5 0,-2 -1,-4 -3,-5 -1,-1 -2,-1 -4,-1 0,0 0,0 -1,0l0 0c0,-2 0,-4 0,-7 0,-1 0,-4 0,-7l3 0c8,10 18,21 29,29 13,9 27,15 43,15 7,0 13,-1 17,-2 5,-2 9,-3 11,-4l1 0c1,-1 1,-1 2,-2 1,-1 1,-3 1,-4 0,-2 0,-3 -1,-4l0 0c-1,-1 -3,-2 -5,-2 -1,0 -1,0 -2,0l0 0 -1 0 0 1c-2,0 -4,1 -7,2 -3,0 -5,0 -7,0 -7,0 -13,0 -18,-2 11,0 20,-4 26,-11 7,-7 11,-17 11,-28 0,-11 -4,-20 -10,-26 -7,-7 -17,-10 -28,-10 -11,0 -20,4 -26,10 -8,8 -11,19 -11,27 0,6 1,12 3,17 -4,-4 -8,-9 -12,-14 2,-2 4,-5 5,-7 2,-4 3,-8 3,-12 0,-3 -1,-6 -2,-8 -2,-4 -4,-6 -6,-7l0 -1c-3,-2 -6,-3 -9,-3 -3,-1 -7,-1 -9,-1 -1,0 -5,0 -7,0l-1 0 0 -1 0 0c3,0 7,0 8,0 3,0 6,0 9,0 3,1 6,2 10,5l0 0c1,1 4,4 6,7 1,3 2,6 2,9 0,4 -1,8 -3,12 -1,3 -3,5 -5,8 3,3 6,6 8,9 -1,-4 -2,-9 -2,-13 0,-9 4,-20 12,-28 7,-6 16,-10 27,-10 12,0 21,3 28,10 7,6 11,16 11,27 0,11 -4,21 -11,29 -5,5 -12,9 -20,10 4,1 7,1 11,1 2,0 4,0 7,-1 2,0 5,-1 7,-1l0 -1 0 0 0 0c1,0 2,0 3,0 2,0 4,1 5,2l0 0c2,1 3,3 3,5 0,2 -1,3 -2,5 -1,0 -2,1 -3,2l0 0c-3,1 -6,3 -11,4 -5,1 -11,2 -18,2 -16,0 -31,-6 -43,-15 -12,-8 -22,-19 -30,-29l-1 0c0,3 0,5 0,6 0,2 0,4 0,5 0,1 0,1 0,1 2,0 4,0 5,1 2,2 3,4 3,6 0,3 -2,5 -4,6l0 0c-1,1 -3,1 -4,1 -3,0 -8,0 -10,0 0,0 0,0 0,0l0 0 0 0 0 0c-2,0 -6,0 -8,0 -2,0 -3,0 -4,-1 -3,-1 -4,-3 -4,-6 0,-2 1,-4 3,-6 1,-1 1,-1 3,-1 0,-4 0,-9 0,-16l0 -15c0,-8 0,-12 0,-12 0,-2 0,-3 0,-4 -1,0 -2,0 -2,0 -1,0 -1,0 -1,0 0,2 0,6 0,16l0 9c0,5 0,10 -2,15 -1,5 -4,11 -8,14l0 0c-4,4 -8,6 -11,7 -4,1 -7,1 -10,1 -2,0 -5,0 -9,-1 -4,-1 -9,-3 -13,-6l0 0c-1,-2 -3,-3 -4,-5 0,1 0,2 -1,3l0 0c0,2 -1,3 -2,4l0 0c-1,1 -2,2 -3,3l-1 0c-2,1 -4,1 -7,2 -4,0 -7,0 -10,0 -7,0 -13,-1 -18,-2 -5,-2 -9,-5 -13,-8l0 0c-2,-2 -4,-4 -5,-5 0,1 -1,1 -1,2 -2,3 -4,6 -7,9l0 0c-3,1 -5,2 -8,3 -3,1 -6,1 -8,1 -3,0 -5,0 -7,0 -5,-1 -10,-3 -12,-7 0,-2 0,-3 0,-5 0,-1 0,-2 0,-3 -1,1 -2,3 -4,4 -6,7 -16,11 -28,11 -12,0 -21,-4 -27,-11 -8,-7 -11,-18 -11,-28 0,-1 0,-2 0,-4 -4,4 -10,6 -17,6 -10,0 -18,-5 -23,-12 -5,-8 -8,-18 -8,-30 -2,2 -5,3 -9,3 -4,0 -6,-2 -9,-4 0,0 0,0 0,1 0,1 0,3 -2,5 -1,1 -3,2 -5,2 0,0 -1,0 -2,0 -2,0 -4,0 -6,0 -2,0 -4,0 -5,0 -1,0 -2,0 -2,0l-1 0 0 0c-7,0 -7,-3 -7,-6l0 -1 0 0c0,-1 0,-3 0,-4l0 0c1,-2 3,-4 6,-4l0 0 1 0c0,0 0,0 0,0l0 0 0 0c-2,0 -3,0 -4,0l0 0 0 0c-1,0 -2,0 -3,0 0,0 0,0 0,0l0 0c0,0 0,0 -1,0l0 0c0,0 0,0 0,0 -1,0 -1,0 -2,0l-1 0c0,0 0,0 -1,0 -1,0 -2,0 -3,0 -2,0 -4,0 -6,0l-1 0 0 0c-1,0 -2,0 -3,0 0,0 0,0 0,0l0 0 0 0c0,0 0,0 -1,0l0 0c0,0 0,0 -1,0l-1 0c-2,0 -3,0 -4,-1 -2,-1 -4,-3 -4,-6 0,-2 1,-4 2,-5l0 0c0,0 1,0 1,0 0,-2 0,-3 0,-5l0 -6c0,-3 0,-4 0,-5 -1,0 -1,0 -1,0 -1,-2 -2,-3 -2,-5 0,-3 1,-5 4,-7l0 0c1,0 2,0 3,0 0,0 3,0 4,0l0 1z"/>
   <path class="fil2" d="M142 70c-1,1 -3,1 -4,2 -8,2 -14,8 -19,16l1 0c1,0 1,0 1,0 1,0 2,0 2,0 1,0 2,0 4,1l0 0c0,0 1,0 1,0 2,-1 6,-1 13,-1 1,0 3,0 4,1 1,0 1,0 1,0 1,-1 3,-1 5,-1 0,0 0,0 0,0 0,-1 0,-2 0,-3 0,-7 4,-14 14,-19 5,-3 13,-4 23,-4 8,0 17,1 26,3 3,1 7,1 10,2 3,-3 7,-6 11,-8 6,-3 12,-4 17,-4 4,0 7,1 9,2 4,2 6,6 6,11 0,0 0,1 0,2 6,0 10,2 14,6 6,4 8,10 8,17 0,2 0,4 -1,6l-1 -1c1,-1 1,-3 1,-5 0,-7 -2,-12 -7,-17 -4,-3 -10,-5 -16,-5 1,-1 1,-2 1,-3 0,-4 -2,-8 -6,-10 -2,-1 -4,-2 -8,-2 -5,0 -11,1 -16,4 -4,2 -8,5 -12,8 -3,0 -7,-1 -11,-2 -8,-2 -17,-3 -25,-3 -10,0 -17,1 -23,4 -9,4 -13,11 -13,18 0,1 0,3 1,4 -1,0 -2,0 -2,0 -2,0 -4,1 -5,1 0,0 -1,0 -1,0 -1,-1 -3,-1 -4,-1 -8,0 -11,0 -13,2 0,-1 -1,-1 -1,-1l0 0c-2,-1 -3,-1 -4,-1 0,0 -1,0 -2,0 0,0 0,0 -1,0 -1,0 -2,0 -3,0 5,-9 12,-16 20,-18 2,-1 3,-1 5,-2l0 0 0 0c3,-2 5,-5 5,-8 0,-4 -2,-7 -6,-9 0,0 -1,0 -1,-1 -1,0 -2,0 -3,0 -11,0 -21,3 -30,8 -6,2 -11,6 -16,10 -2,-5 -5,-10 -9,-14 -6,-6 -15,-11 -25,-11 -9,0 -16,3 -21,7 -6,6 -9,13 -9,20 0,3 1,6 2,9 -1,0 -2,0 -3,1l0 0c-1,0 -6,0 -7,0l0 0 0 0 -1 0 0 -1c-1,0 0,1 0,0 -1,0 -4,0 -4,0 -2,0 -3,1 -4,1l0 0c-4,2 -6,5 -6,9 0,2 2,5 3,6 0,0 0,0 1,1 0,0 0,1 0,3l0 6c0,1 0,3 0,4l0 0 -1 0c0,0 0,1 -1,1 -1,2 -1,3 -1,5 0,4 2,7 5,8 2,1 3,1 5,1 0,0 0,0 1,0 1,0 1,0 1,0l0 0 1 0 0 0 0 0c0,0 0,0 0,0 1,0 2,0 3,0 0,0 0,0 0,0l1 0c2,0 4,0 6,0 1,0 3,0 4,0 0,0 0,0 0,0 0,0 1,0 2,0 0,0 1,0 1,0l0 0c0,0 0,1 -1,1l0 0c0,2 -1,3 -1,5 0,0 0,0 0,1 1,4 1,8 10,8 0,0 1,0 1,0 0,0 1,0 2,0 1,0 2,0 5,0 2,0 4,0 6,0 1,0 2,0 2,0 3,0 5,-1 7,-3 1,-1 1,-2 2,-3 2,1 4,2 7,2 3,0 5,0 7,-1 0,10 3,20 8,27 6,8 14,13 25,13 5,0 10,-1 14,-3l-1 1 0 0c-4,2 -8,3 -13,3 -11,0 -20,-5 -26,-13 -5,-7 -7,-17 -8,-27 -2,1 -4,1 -6,1 -2,0 -5,0 -7,-1 0,0 -1,1 -1,2 -2,2 -5,3 -8,3l-2 0c-2,0 -4,0 -6,0 -3,0 -5,0 -5,0 -1,0 -1,0 -2,0 0,0 -1,0 -1,0 -10,0 -10,-4 -11,-9 0,-1 0,-1 0,-1 0,-2 0,-3 1,-5 -1,0 -1,0 -1,0l0 0c-1,0 -3,0 -4,0 -2,0 -4,0 -6,0l-1 0c0,0 0,0 0,0 -1,0 -2,0 -3,0 0,0 0,0 0,0l0 0 0 0 -1 0 0 0c0,0 0,0 -1,0 -1,0 -1,0 -1,0 -2,0 -4,0 -5,-1 -4,-2 -6,-5 -6,-9 0,-2 0,-4 1,-5 1,-1 1,-1 1,-2 0,-1 0,-2 0,-3l0 -6c0,-2 0,-2 0,-3l0 0c-1,-2 -3,-5 -3,-7 0,-5 2,-8 6,-10l0 0c2,0 3,-1 5,-1 0,0 3,0 4,0 1,0 -1,0 0,0l0 0 1 0 0 0 0 0c1,0 6,0 7,0 1,0 1,0 1,0 -1,-2 -1,-5 -1,-8 0,-7 3,-15 10,-21 5,-4 12,-7 21,-7 11,0 19,5 26,12 3,3 6,7 9,12 4,-4 9,-7 15,-9 9,-5 19,-8 30,-8 1,0 2,0 3,0 0,1 1,1 2,1 4,2 6,5 6,10 0,3 -2,7 -6,9l0 0 0 0zm29 142c11,0 21,-4 29,-11 0,1 0,2 0,3 2,5 8,7 13,8 3,0 5,0 8,0 3,0 6,0 9,-1 3,-1 5,-2 8,-4l0 0 0 0c4,-2 6,-5 8,-8 0,1 1,1 2,2l0 0c4,4 9,7 15,9 5,2 11,2 18,2 3,0 7,0 10,0 3,-1 6,-1 8,-2 1,0 1,0 1,-1 2,0 3,-1 4,-2 0,-1 0,-1 1,-1 0,-1 1,-2 1,-3 1,0 1,1 2,1l0 0 0 0c4,4 9,6 13,7 5,1 8,1 10,1 3,0 6,0 10,-1 4,-1 9,-3 13,-7 0,0 0,0 0,0 1,-1 2,-2 3,-3 0,0 0,0 0,1 0,4 1,7 5,8 2,1 3,1 5,1 2,0 6,0 8,0l0 0 0 0c2,0 7,0 10,0 2,0 3,0 5,-1 0,0 1,0 1,-1 3,-1 4,-4 4,-7 0,-3 -1,-6 -4,-8 -1,-1 -2,-1 -4,-2 0,-1 0,-2 0,-3 0,0 0,-1 0,-2 8,10 17,19 27,27 14,9 28,15 45,15 7,0 13,-1 18,-2 3,-1 5,-1 7,-2l0 0 1 1c-2,1 -5,1 -8,2 -5,1 -11,2 -18,2 -17,0 -32,-6 -45,-15 -7,-5 -13,-10 -18,-16 0,1 0,2 0,3 0,3 -1,6 -4,8 -1,1 -1,1 -2,1 -1,1 -3,1 -5,1 -3,0 -8,0 -10,0 0,0 0,0 0,0l0 0c-2,0 -7,0 -8,0 -2,0 -4,0 -5,-1 -4,-1 -6,-4 -6,-7 -1,0 -1,0 -1,0 0,1 0,1 -1,1 -4,4 -8,6 -12,7 -4,1 -8,2 -11,2 -2,0 -6,-1 -10,-2 -4,-1 -10,-3 -14,-7l0 0 0 0 0 0c-1,0 -1,1 -1,2 -1,0 -1,0 -1,0 -2,2 -3,3 -4,3 -1,1 -1,1 -1,1 -3,1 -6,2 -9,2 -3,0 -7,1 -10,1 -7,0 -13,-1 -19,-3 -6,-2 -10,-5 -15,-9l0 0c0,0 -1,-1 -1,-1 -2,2 -4,5 -7,7l0 0 0 0c-3,2 -6,3 -9,4 -3,1 -6,2 -9,2 -3,0 -5,-1 -8,-1 -5,-1 -12,-3 -14,-9 0,0 0,-1 0,-1 -7,7 -17,10 -28,11l0 -1 0 -1zm306 -10c1,-1 1,-1 2,-2 7,-7 12,-18 12,-30 0,-12 -5,-22 -12,-29 -7,-7 -18,-11 -30,-11 -12,0 -22,5 -28,12 -3,2 -5,6 -7,9 -1,-2 -1,-4 -2,-6 -2,-4 -5,-7 -7,-8l0 0 0 0c-4,-3 -7,-4 -11,-5 -3,0 -6,-1 -9,-1 -1,0 -5,1 -8,1 0,0 -1,0 -2,0 -1,0 -1,0 -1,0 -2,0 -6,-1 -8,-1 -1,0 -2,1 -3,1 -1,0 -2,-1 -3,-1 -2,0 -4,1 -6,1 0,0 -1,0 -1,0 -1,0 -1,0 -1,0 -2,0 -6,-1 -8,-1 -2,0 -3,1 -5,1l0 1 0 -1c-3,2 -5,5 -5,9 0,3 1,6 4,8 1,0 2,1 3,1 0,1 0,1 0,2 0,1 0,3 0,12l0 10c0,4 0,7 -1,10 0,2 -1,4 -2,5l0 0c0,1 -1,1 -2,2 -1,0 -2,0 -4,0 -1,0 -2,0 -3,0 -1,0 -2,-1 -3,-2l0 0c-1,0 -1,-1 -2,-3 -1,-2 -1,-5 -1,-10l0 -12c0,-8 0,-12 0,-14 1,-1 1,-1 2,-1 2,-2 4,-5 4,-8 0,-4 -2,-7 -6,-9 0,0 0,0 -1,0 -1,0 -2,-1 -4,-1 -1,0 -4,1 -6,1 0,0 -1,0 -2,0 0,0 -1,0 -1,0 -2,0 -6,-1 -8,-1 -2,0 -3,1 -4,1 -2,0 -3,0 -5,0l0 -1c-2,0 -5,0 -7,0 -2,-1 -5,-1 -7,-1 -7,0 -13,2 -18,4 -5,1 -9,4 -12,7l0 0c0,-3 -1,-5 -4,-7 -1,-1 -1,-1 -1,-1 0,-1 1,-1 2,-2 3,-4 7,-8 9,-13 3,0 6,-1 9,-1 2,0 4,-1 6,-2 3,2 7,3 11,3 5,2 10,2 15,2 6,0 12,-1 15,-2 8,-3 10,-9 10,-14 0,-3 -1,-6 -3,-8 -2,-3 -5,-4 -9,-4 0,0 0,0 -1,0l0 -1c0,0 1,0 1,0 4,0 7,1 10,4 2,2 3,6 3,9 0,6 -2,11 -10,15 -4,1 -9,2 -16,2 -6,0 -11,0 -16,-1 -3,-1 -7,-2 -10,-3 -2,0 -4,1 -6,1 -2,0 -5,1 -9,1 -2,5 -5,9 -9,13 0,0 0,1 0,1 2,2 3,4 3,6 3,-3 7,-5 11,-7 6,-2 12,-3 19,-3 2,0 5,0 7,1 2,0 5,0 7,0l0 0c2,1 3,1 4,1 2,0 3,-1 5,-1 2,0 6,1 8,1 0,0 0,0 1,0 1,0 2,0 2,0 2,-1 5,-1 6,-1 2,0 3,1 4,1 1,0 1,0 2,0 4,2 6,6 6,10 0,4 -2,7 -4,8 -1,1 -1,1 -2,1 0,3 0,7 0,14l0 12c0,4 0,8 1,10 1,1 1,2 2,3l0 0c1,0 1,1 2,1 1,0 2,0 3,0 1,0 2,0 3,0 1,-1 2,-1 3,-2l0 0c0,-1 1,-2 1,-4 1,-3 1,-6 1,-10l0 -10c0,-9 0,-10 0,-12l0 -1c-1,0 -2,-1 -3,-2 -3,-1 -4,-4 -4,-8 0,-4 2,-8 6,-10l0 1 0 -1c2,0 3,-1 5,-1 2,0 6,1 8,1 0,0 0,0 1,0 0,0 1,0 1,0 2,-1 4,-1 6,-1 1,0 2,0 3,1 1,-1 2,-1 3,-1 2,0 6,1 8,1l1 0c1,0 2,0 2,0 3,-1 7,-1 8,-1 3,0 6,1 9,1 4,1 8,2 11,5l0 0 0 0c3,1 6,4 8,9 0,1 1,2 1,3 2,-3 4,-5 6,-7 7,-7 17,-12 29,-12 12,0 23,4 31,12 7,7 12,17 12,29 0,12 -5,23 -13,31 0,1 0,1 -1,2l0 -1 -1 0zm-420 -113c-2,1 -5,2 -8,2 0,2 -1,3 -1,4 -1,0 -1,1 -2,1l0 4 0 3c1,-1 2,-1 3,-1 1,0 1,0 2,0l6 -13zm-39 36c0,0 1,0 0,0l0 0zm37 -34l-5 10c0,0 -1,0 -1,0 -1,0 -1,0 -1,0l0 -1 0 -3c0,-1 0,-1 1,-2 0,-1 1,-2 1,-3 2,0 3,0 5,-1zm333 101c1,0 1,0 1,0 0,-1 0,-1 -1,-1l0 1zm-370 -66c0,0 1,0 0,0l0 0z"/>
   <path class="fil3" d="M307 90c-1,0 -1,0 -1,1 0,1 0,2 1,2 1,0 2,-1 2,-2 0,-1 -1,-1 -2,-1z"/>
   <path class="fil4" d="M292 94c-1,0 -1,1 -1,2 0,0 0,1 1,1 1,0 2,-1 2,-1 0,-1 -1,-2 -2,-2z"/>
   <path class="fil3" d="M288 97c-1,0 -1,1 -1,1 0,1 0,2 1,2 1,0 1,-1 1,-2 0,0 0,-1 -1,-1z"/>
   <path class="fil4" d="M324 103c-1,0 -1,0 -1,1 0,1 0,2 1,2 1,0 2,-1 2,-2 0,-1 -1,-1 -2,-1z"/>
   <path class="fil4" d="M499 213c-1,0 -2,1 -2,2 0,1 1,1 2,1 0,0 1,0 1,-1 0,-1 -1,-2 -1,-2z"/>
   <path class="fil4" d="M494 170c0,0 -1,1 -1,1 0,1 1,2 1,2 1,0 2,-1 2,-2 0,0 -1,-1 -2,-1z"/>
   <path class="fil3" d="M478 201c-1,0 -2,0 -2,1 0,1 1,1 2,1 0,0 1,0 1,-1 0,-1 -1,-1 -1,-1z"/>
   <path class="fil3" d="M484 224c0,0 -1,1 -1,1 0,1 1,2 1,2 1,0 2,-1 2,-2 0,0 -1,-1 -2,-1z"/>
   <path class="fil3" d="M356 133c-1,0 -1,1 -1,1 0,1 0,2 1,2 1,0 1,-1 1,-2 0,0 0,-1 -1,-1z"/>
   <path class="fil3" d="M360 133c-1,0 -1,1 -1,1 0,1 0,2 1,2 1,0 1,-1 1,-2 0,0 0,-1 -1,-1z"/>
   <path class="fil3" d="M364 133c-1,0 -1,1 -1,1 0,1 0,2 1,2 1,0 1,-1 1,-2 0,0 0,-1 -1,-1z"/>
   <path class="fil3" d="M376 133c1,0 2,1 2,1 0,1 -1,2 -2,2 0,0 -1,-1 -1,-2 0,0 1,-1 1,-1z"/>
   <path class="fil3" d="M372 133c1,0 2,1 2,1 0,1 -1,2 -2,2 0,0 -1,-1 -1,-2 0,0 1,-1 1,-1z"/>
   <path class="fil3" d="M368 133c1,0 2,1 2,1 0,1 -1,2 -2,2 -1,0 -1,-1 -1,-2 0,0 0,-1 1,-1z"/>
   <path class="fil3" d="M17 82c0,0 -1,0 -1,1 0,1 1,2 1,2 1,0 2,-1 2,-2 0,-1 -1,-1 -2,-1z"/>
   <path class="fil3" d="M21 82c0,0 -1,0 -1,1 0,1 1,2 1,2 1,0 2,-1 2,-2 0,-1 -1,-1 -2,-1z"/>
   <path class="fil3" d="M25 82c0,0 -1,0 -1,1 0,1 1,2 1,2 1,0 2,-1 2,-2 0,-1 -1,-1 -2,-1z"/>
   <path class="fil4" d="M198 207c-1,0 -1,0 -1,1 0,1 0,1 1,1 1,0 1,0 1,-1 0,-1 0,-1 -1,-1z"/>
   <path class="fil4" d="M115 177c0,0 -1,1 -1,2 0,1 1,1 1,1 1,0 2,0 2,-1 0,-1 -1,-2 -2,-2z"/>
   <path class="fil3" d="M171 212c-1,0 -2,0 -2,1 0,1 1,1 2,1 0,0 1,0 1,-1 0,-1 -1,-1 -1,-1z"/>
   <path class="fil3" d="M128 171c0,0 -1,1 -1,2 0,1 1,1 1,1 1,0 2,0 2,-1 0,-1 -1,-2 -2,-2z"/>
   <path class="fil3" d="M133 84c-1,0 -2,1 -2,1 0,1 1,2 2,2 0,0 1,-1 1,-2 0,0 -1,-1 -1,-1z"/>
   <path class="fil3" d="M137 84c-1,0 -2,1 -2,1 0,1 1,2 2,2 0,0 1,-1 1,-2 0,0 -1,-1 -1,-1z"/>
   <path class="fil3" d="M141 84c-1,0 -2,1 -2,1 0,1 1,2 2,2 0,0 1,-1 1,-2 0,0 -1,-1 -1,-1z"/>
   <path class="fil1" d="M418 2c-1,0 -3,0 -3,0 -17,0 -31,7 -42,18 -11,11 -17,25 -17,42 0,16 6,31 17,42 8,8 19,14 30,16l0 2c-12,-3 -22,-9 -31,-17 -11,-11 -18,-26 -18,-43 0,-17 7,-32 18,-43 11,-11 26,-18 43,-18 0,0 2,0 3,0l0 1zm5 119c14,-2 26,-8 35,-17 10,-11 17,-26 17,-42 0,-7 -1,-15 -4,-21 -2,-7 -6,-14 -11,-19l1 -1c5,6 9,12 11,19 3,7 4,14 4,22 0,17 -6,32 -17,43 -10,9 -22,16 -36,17l0 0 0 -1z"/>
   <path class="fil2" d="M368 19c-6,6 -10,13 -13,20 -2,7 -4,15 -4,23 0,18 7,34 19,45 12,12 28,19 45,19 17,0 32,-6 43,-16 12,-11 20,-25 21,-42l2 1c-2,16 -10,31 -22,42 -11,10 -27,17 -44,17 -18,0 -34,-8 -46,-20 -12,-12 -19,-28 -19,-46 0,-8 1,-16 4,-23 3,-8 7,-15 13,-21l1 1z"/>
   <path class="fil1" d="M349 45c-1,3 -1,6 -2,8 0,3 0,6 0,9 0,19 7,36 20,49 12,12 29,20 48,20 10,0 19,-2 28,-6 8,-4 16,-9 23,-16l1 1c-7,7 -15,12 -24,16 -8,4 -18,6 -28,6 -19,0 -36,-8 -49,-21 -13,-12 -21,-30 -21,-49 0,-3 1,-6 1,-9 0,-3 1,-6 2,-8l1 0z"/>
   <path class="fil4" d="M418 0c1,0 2,1 2,2 0,0 -1,1 -2,1 -1,0 -1,-1 -1,-1 0,-1 0,-2 1,-2z"/>
   <path class="fil4" d="M460 20c-1,0 -1,1 -1,1 0,1 0,2 1,2 1,0 2,-1 2,-2 0,0 -1,-1 -2,-1z"/>
   <path class="fil3" d="M367 17c-1,0 -1,1 -1,2 0,0 0,1 1,1 1,0 1,-1 1,-1 0,-1 0,-2 -1,-2z"/>
   <path class="fil3" d="M480 67c-1,0 -1,1 -1,2 0,0 0,1 1,1 1,0 1,-1 1,-1 0,-1 0,-2 -1,-2z"/>
   <path class="fil4" d="M348 43c-1,0 -1,1 -1,2 0,1 0,1 1,1 1,0 2,0 2,-1 0,-1 -1,-2 -2,-2z"/>
   <path class="fil4" d="M466 108c0,0 -1,0 -1,1 0,1 1,1 1,1 1,0 2,0 2,-1 0,-1 -1,-1 -2,-1z"/>
   <path class="fil3" d="M415 121c0,0 -1,1 -1,1 0,1 1,2 1,2 1,0 2,-1 2,-2 0,0 -1,-1 -2,-1z"/>
   <path class="fil3" d="M411 121c0,0 -1,0 -1,1 0,1 1,2 1,2 1,0 2,-1 2,-2 0,-1 -1,-1 -2,-1z"/>
   <path class="fil3" d="M419 121c0,0 -1,0 -1,1 0,1 1,2 1,2 1,0 2,-1 2,-2 0,-1 -1,-1 -2,-1z"/>
   <path class="fil3" d="M423 120c0,0 -1,1 -1,2 0,1 1,1 1,1 1,0 2,0 2,-1 0,-1 -1,-2 -2,-2z"/>
   <path class="fil3" d="M407 120c0,0 -1,1 -1,2 0,1 1,1 1,1 1,0 2,0 2,-1 0,-1 -1,-2 -2,-2z"/>
   <path class="fil3" d="M403 120c0,0 -1,0 -1,1 0,1 1,2 1,2 1,0 2,-1 2,-2 0,-1 -1,-1 -2,-1z"/>
   <path class="fil3" d="M359 62c0,9 3,18 7,27 10,17 27,28 47,29 10,0 19,-2 28,-6 0,-1 0,-1 0,-1 -1,1 -3,0 -5,0 -1,-1 -3,-2 -3,-4 -7,3 -13,4 -20,3l1 -6 3 -4 0 -2 -2 -1c-1,0 -1,-1 -1,-2 0,0 -1,-1 -2,-1l0 0 0 0 -5 0 -4 -1c1,-4 -3,-7 -6,-8l0 0 0 0 -1 0c0,0 -2,-3 -5,-3l-3 0c-1,-1 -2,-2 -5,-2 -2,0 -4,1 -5,3l-4 -5 0 -6 0 0 1 -11 -5 -6 -5 -5c0,0 -1,0 -1,-1 0,-2 0,-3 1,-5 0,0 0,0 0,-1l0 0c0,0 0,0 0,-1l0 0c1,0 1,0 1,-1l0 0c0,0 0,0 0,0l0 -1c0,0 0,0 0,0l0 -1c1,0 1,0 1,0l0 -1 0 0 0 -1 0 0 1 0 0 -1 0 0c0,0 0,0 0,0l0 0 0 -1 0 0c0,0 0,0 1,0l0 0 0 0 0 -1c0,0 0,0 0,0l0 0 0 0c0,-1 0,-1 0,-1l0 0 1 0c6,-12 18,-22 32,-25 0,0 1,0 1,0 -25,6 -44,29 -44,54zm99 36c5,-6 9,-13 11,-21 -1,-2 -1,-4 0,-7 0,-1 1,-3 2,-4 0,-1 0,-2 0,-2l-3 -2 3 0c0,0 0,0 0,0 0,-23 -14,-43 -33,-51 -6,4 -11,10 -14,17l28 19 -22 -11c-1,0 -1,-1 -2,-1 -6,-1 -12,2 -13,8 -1,1 -1,3 0,5l0 0 2 11 1 3 1 4 -3 9c-1,3 1,7 4,7l2 1 12 3 -1 6 25 6zm6 -15l0 0 -5 -8 5 8 1 -3 1 -3c0,0 -1,-4 0,-7 1,-2 2,-5 2,-5l0 0c-1,0 -2,-1 -2,-3 0,-1 1,-2 2,-2 -3,-36 -30,-46 -30,-46 14,14 16,27 16,32 0,5 -4,7 -4,7l6 3c0,0 3,1 2,4 0,3 -4,2 -4,2 0,0 0,5 -2,9 -2,3 -8,5 -8,5l-15 6c0,0 7,1 8,3 1,2 -1,5 -1,5l21 5 5 -7 2 -5zm-26 -31l-13 -11 19 11 0 0 1 1 0 0 0 0c1,0 1,1 2,1l9 5 -5 -1c1,2 1,5 0,8 -1,3 -4,6 -7,7l-9 4 4 -4c0,0 -1,0 -1,0 -6,-1 -9,-7 -8,-13 1,-4 5,-7 8,-8zm-41 -24c1,2 4,2 6,0 2,-1 2,-4 0,-6 -2,-2 -5,-2 -6,0 -2,2 -2,5 0,6zm-2 45c2,2 5,2 7,0 2,-2 2,-5 0,-6 -2,-2 -5,-2 -7,0 -1,1 -1,4 0,6zm-25 4l-3 2c2,4 5,8 8,12 1,-1 2,-1 3,-2l0 -4 -8 -8z"/>
   <path class="fil4" d="M365 44l1 1 7 7 7 7 8 9c0,3 1,7 3,9 4,4 11,4 15,0 4,-4 4,-10 0,-14 -3,-3 -6,-4 -10,-3l-6 -6c4,-4 4,-9 3,-14l5 -5c3,1 7,0 9,-3 2,-2 3,-4 3,-7 3,0 5,-1 7,-3 1,0 2,-1 2,-2l0 -10 -4 -4 0 0c-4,0 -8,1 -12,2l0 0 0 0 0 0 0 0 0 0 0 0 0 0 0 0 0 0 0 0 0 0 0 0 0 0 0 0 0 0 0 0 0 0 0 0 0 0 0 0 0 0 0 0 0 0 0 0 0 0 0 0 0 0 0 0 0 0 0 0 0 0 0 0 0 0 -1 0 0 0 0 0 0 0 0 0 0 0 0 0 0 0 0 0 0 0 0 0 0 0 0 0 0 0 0 0 0 0 0 0 0 0 0 0 0 0 0 0 0 0 0 0 0 0 0 0 0 0 0 0 0 0 0 0 0 0 0 0 0 0 0 0 0 0c-1,2 -2,4 -2,7 -3,0 -6,1 -8,3 -2,2 -3,6 -2,9l-5 5c-5,-1 -10,-1 -14,2l-1 -1 -1 0 0 0 0 0 0 0 0 0 0 0 0 0 0 0 0 0 0 0 0 0 0 0 0 0 0 0 0 0 0 0 0 0 0 0 0 0 0 0 0 0 0 0 0 0 0 0 0 0 0 0 0 0 0 0 0 0 0 0 0 0 0 0 0 0 0 0 0 0 0 0 0 0 0 0 0 0 0 0 0 0 0 0 0 0 0 0 0 0 0 0 0 0 0 0 0 0 0 0 0 0 0 0 0 0 0 0 0 0 0 0 0 0 0 0 0 0 0 1 0 0 0 0 0 0 0 0 0 0 0 0 0 0 0 0 0 0 0 0 0 0 0 0 0 0 0 0 0 0 0 0 0 0 0 0 0 0 0 0 0 0 0 0 0 0 0 0 0 0 0 0 0 0 0 0 0 0 0 0 0 0 0 0 0 0 0 0 0 0 0 0 0 0 0 0 0 0 0 0 0 0 0 0 0 0 0 0 0 0 0 0 0 0 0 0 0 0 0 0 0 0 0 0 0 0 0 0 0 0 0 0 0 0 0 0 0 0 0 0 0 0 0 0 0 0 0 0 0 0 0 0 0 0 0 0 0 0 0 0 0 0 0 0 0 0 0 0 0 0 0 1 0 0 0 0 0 0 0 0 0 0 0 0 0 0 0 0 0 0 0 0 0 0 -1 0 0 0 0 0 0 0 0 0 0 0 0 0 0 0 0 0 0 0 0 0 0 0 0 0 0 0 0 0 0 0 0 0 0 0 0 0 0 0 0 0 0 0 0 0 0 0 0 0 0 0 0 0 0 0 0 0 0 0 0 0 0 0 0 0 0 0 0 0 0 0 0 0 0 0 0 0 0 0 0 0 0 0 0 0 0 0 0 0 0 0 0 0 0 0 0 0 0 0 0 0 0 0 0 0 0 0 0 0 0 0 0 0 0 0 0 0 0 1 0 0 0 0 0 0 0 0 0 0 0 0 0 0 0 0 0 0 0 0 0 0 0 0 0 0 0 0 0 0 0 0 0 0 0 0 0 0 0 0 0 0 0 0 0 0 0 0 0 0 0 0 0 0 0 0 0 0 0 0 0 0 0 0 0 0 0 0 0 0 0 0 0 0 0 0 0 0 0 0 0 0 0 0 0 0 0 0 0 0 0 0 0 0 0 0 0 0 0 0 0 0 0 0 0 0 0 0 0 0 0 0 0 0 0 0 0 0 0 0 0 0 0 0 0 0 0 0 0 0 0 1 0 0 0 0 -1 0 0 0 0 0 0 1 0 0 0 0 0 0 0 0 0 1 0 0 0 0 0 0 0 0 0 0 0 0 0 0 0 0 0 0 0 0 0 0 0 0 0 0 0 0 0 0 0 0 0 0 0 0 0 0 0 0 0 0 0 0 0 0 0 0 0 0 0 0 0 0 0 0 0 0 0 0 0 0 0 0 0 0 0 0 0 0 0 0 0 0 0 0 0 0 0 0 0 0 0 0 0 0 0 0 0 0 0 0 0 0 0 0 0 0 0 0 0 0 0 0 0 0 0 0 0 0 0 0 0 0 0 0 0 0 0 0 -1 0 0 0 0 0 0 0 0 0 0 0 0 0 0 0 0 1 0 0 0 0 0 0 0 0 0 0 0 0 0 0 0 0 0 0 0 0 0 0 0 0 0 0 0 0 0 0 0 0 0 0 0 0 0 0 0 0 0 0 0 0 0 0 0 0 0 0 0 0 0 0 0 0 0 0 0 0 0 0 0 0 0 0 0 0 0 0 0 0 0 0 0 0 0 0 0 0 0 0 0 0 0 0 0 0 0 0 0 0 0 0 0 0 0 0 0 0 0 0 0 0 0 0 0 0 0 0 0 0 0 0 0 0 0 0 0 0 0 0 0 0 0 0 0 0 0 0 0 0 0 0 0 0 0 0 0 0 0 1 0 0 0 0 0 0 0 0 0 0 0 0 0 0 0 0 0 0 0 0 0 0 0 0 0 0 0 0 0 0 0 0 0 0 0 0 0 0 0 0 0 0 0 0 0 0 0 0 0 0 0 0 0 0 0 0 0 0 0 0 0 0 0 0 0 0 0 0 0 0 0 0 0 0 0 0 0 0 0 0 0 0 0 0 0 0 0 0 0 0 0 0 0 0 0 0 0 0 0 0 0 0 0 0 0 0 0 0 0 0 0 0 0 0 0 0 0 0 0 0 0 0 0 0 0 0 0 0 0 0 0 0 0 0 0 0 0 0 0 0 0 0 0 0 0 0 0 0 0 0 0 0 0 0 0 1 0 0 0 0 0 0 0 0 0 0 0 0 0 0 0 0 0 0 0 0 0 0 0 0 0 0 0 0 0 0 0 0 0 0 0 0 0 0 0 0 0 0 0 0 0 0 0 0 0 0 0 0 0 0 0 0 0 0 0 0 0 0 0 0 0 0 0 0 0 0 0 0 0 0 -1 0 0 0 0 0 0 0 0 0 0 0 0 0 0 0 0 0 0 0 0 0 0 0 0 0 0 0 0 0 0 0 0 0 0 0 0 0 0 0 0 0 0 0 0 1 0 0 0 0 0 0 0 0 0 0 0 0 0 0 0 0 0 0 0 0 0 0 0 0 0 0 0 0 0 0 0 0 0 0 0 0 0 0 0 0 0 0 0 0 0 0 0 0 0 0 0 0 0 0 0 0 0 0 0 0 0 0 0 0 0 0 0 0 0 0 0 0 0 0 0 0 0 0 0 0 0 0 0 0 0 0 0 0 0 0 0 0 0 0 0 0 0 0 0 0 0 0 0 0 0 0 0 0 0 0 0 0 0 0 0 0 0 0 0 0 0 0 0 0 0 0 0 0 0 0 0 0 0 0 0 0 0 0 0 0 0 0 0 1 0 0 0 0 0 0 0 0 0 0 0 0 0 0 0 0 0 0 0 0 0 0 0 0 0 0 0 0 0 0 0 0 0 0 0 0 0 0 0 0 0 0 0 0 0 0 0 0 0 0 0 0 0 0 0 0 0 0 0 0 0 0 0 0 0 0 0 0 0 0 0 0 0 0 0 0 0 0 0 0 0 0 0 0 0 0 0 0 0 0 0 0 0 0zm37 52l3 2 6 -1 0 3 2 1 -2 2 0 7c0,0 -11,-2 -22,-9 9,0 13,-5 13,-5zm36 -82c0,0 27,10 30,46 -1,0 -2,1 -2,2 0,2 1,3 2,3l0 0c0,0 -1,3 -2,5 -1,3 0,7 0,7l-1 3 -1 3 -5 -8 2 -11 -4 11 -8 4 5 10 10 -6 -2 5 -5 7 -21 -5c0,0 2,-3 1,-5 -1,-2 -8,-3 -8,-3l15 -6c0,0 6,-2 8,-5 2,-4 2,-9 2,-9 0,0 4,1 4,-2 1,-3 -2,-4 -2,-4l-6 -3c0,0 4,-2 4,-7 0,-5 -2,-18 -16,-32zm14 87l-1 4c1,-1 2,-2 3,-3l-2 -1zm-7 8c1,0 2,-1 3,-2l2 -6 -5 -1 -2 7c0,1 0,2 1,2l1 0zm-2 -10l-2 8c0,1 -1,1 -1,1l-3 -1c0,0 -1,-1 -1,-1l3 -8 4 1zm-6 -2l-2 4c0,1 0,1 -1,1l-3 0c0,-1 -1,-1 0,-2l1 -4 5 1zm-40 -69c1,2 4,2 6,0 2,-1 2,-4 0,-6 -2,-2 -5,-2 -6,0 -2,2 -2,5 0,6zm-2 45c2,2 5,2 7,0 2,-2 2,-5 0,-6 -2,-2 -5,-2 -7,0 -1,1 -1,4 0,6zm-1 -42l-8 10 0 9 -11 0 0 -11 9 0 10 -8zm13 -13c2,2 5,2 6,0 2,-2 2,-5 0,-6 -1,-2 -4,-2 -6,0 -2,1 -2,4 0,6z"/>
   <path class="fil2" d="M136 62c1,0 2,-1 2,-1 0,-1 0,-1 -1,-1 -20,0 -38,12 -50,25 -4,-17 -14,-32 -30,-32 -14,0 -21,10 -21,18 0,6 4,11 11,11 10,0 14,-7 14,-12 0,-2 -1,-3 -2,-3 -1,0 -2,0 -2,1 0,1 0,1 1,2 0,0 0,1 0,2 0,4 -2,9 -10,9 -5,0 -8,-5 -8,-10 0,-8 5,-17 17,-17 8,0 14,6 19,14l-25 57c-2,3 -4,5 -8,5 -1,0 -1,0 -1,1 0,0 0,0 1,0 0,0 5,0 8,0 3,0 7,0 8,0 0,0 1,0 1,0 0,-1 0,-1 -1,-1 -1,0 -1,0 -2,0 -2,0 -4,-1 -4,-3 0,-1 0,-1 0,-1l24 -56c3,6 5,13 6,20 -8,11 -13,23 -13,30 0,4 2,7 5,7 10,0 15,-12 15,-26 0,-4 -1,-9 -2,-14 10,-12 25,-23 42,-25 0,0 1,0 1,0 0,0 -1,0 -1,0 -25,9 -39,43 -39,69 0,19 7,35 24,35 14,0 22,-12 22,-21 0,-5 -3,-10 -11,-10 -9,0 -13,7 -13,12 0,3 1,4 2,4 1,0 2,-1 2,-2 0,0 0,-1 0,-2 -1,-1 -1,-2 -1,-4 0,-4 4,-7 9,-7 4,0 7,5 7,10 0,8 -5,18 -16,18 -12,0 -18,-14 -18,-32 0,-28 13,-63 38,-70zm235 117c0,7 0,14 0,17 0,3 -1,5 -2,5 -1,0 -2,0 -3,0 0,0 0,0 0,1 0,0 0,0 1,0 2,0 8,0 8,0 0,0 5,0 10,0 1,0 1,0 1,0 0,-1 0,-1 -1,-1 0,0 -2,0 -3,0 -3,0 -3,-2 -4,-5 0,-3 0,-10 0,-17l0 -2c0,-1 0,-1 1,-1l10 0c0,0 0,0 1,1 16,21 40,43 69,43 12,0 21,-3 26,-5 1,0 1,-1 1,-1 0,0 0,-1 -1,-1 0,0 0,1 -1,1 -5,2 -12,3 -16,3 -33,0 -54,-19 -73,-43 8,-7 10,-13 10,-19 0,-5 -3,-9 -5,-11 -5,-3 -10,-4 -15,-4 -3,0 -9,1 -10,1 0,0 -6,-1 -9,-1 -1,0 -2,1 -2,1 0,0 1,1 1,1 1,0 2,0 3,0 3,0 3,2 3,4 0,3 0,5 0,18l0 15zm7 -34c0,-1 0,-1 1,-1 1,-1 3,-1 5,-1 9,0 14,6 14,16 0,7 -2,11 -5,13 -2,1 -4,2 -6,2 -3,0 -7,-1 -8,-2 -1,0 -1,0 -1,-1l0 -26zm-239 26c0,15 9,33 31,33 20,0 33,-16 33,-34 0,-19 -14,-31 -32,-31 -23,0 -32,19 -32,32zm7 -2c0,-18 11,-27 24,-27 13,0 25,11 25,30 0,24 -15,28 -22,28 -15,0 -27,-12 -27,-31zm75 35c4,0 8,-1 12,-4 6,-4 7,-10 7,-14 0,-6 -2,-11 -12,-19l-2 -2c-8,-6 -10,-9 -10,-13 0,-6 4,-10 10,-10 7,0 9,4 10,4 0,1 1,4 1,5 0,0 0,1 1,1 0,0 0,-1 0,-2 0,-6 1,-9 1,-9 0,0 -1,0 -1,0 -1,0 -2,-1 -3,-1 -2,0 -5,-1 -8,-1 -10,0 -17,6 -17,15 0,6 2,11 11,18l4 3c7,6 9,9 9,15 0,5 -4,10 -12,10 -5,0 -11,-2 -12,-8 0,-1 0,-2 0,-3 0,-1 0,-1 -1,-1 0,0 0,1 0,1 0,2 -1,5 -1,9 0,2 0,3 2,3 3,2 7,3 11,3zm60 0c5,0 12,-1 15,-2 1,-1 2,-1 2,-3 1,-3 2,-10 2,-10 0,-1 0,-1 -1,-1 0,0 0,0 -1,1 0,1 -1,5 -3,7 -3,3 -8,4 -14,4 -17,0 -29,-15 -29,-30 0,-9 1,-16 7,-22 3,-2 8,-6 19,-6 7,0 13,3 16,5 2,2 4,5 4,8 0,2 0,2 0,2 1,0 1,0 1,-2 0,-1 0,-5 0,-8 0,-3 1,-4 1,-5 0,0 -1,0 -1,-1 -3,0 -6,0 -9,-1 -4,0 -8,-1 -12,-1 -12,0 -20,4 -25,9 -7,7 -9,17 -9,22 0,8 2,18 10,25 7,5 15,9 27,9zm26 -28c0,12 3,18 7,22 6,5 14,6 17,6 5,0 11,-1 17,-7 6,-5 7,-15 7,-24l0 -9c0,-13 0,-15 0,-18 0,-2 1,-4 3,-4 1,0 2,0 2,0 1,0 1,-1 1,-1 0,0 0,-1 -1,-1 -3,0 -7,1 -7,1 -1,0 -5,-1 -9,-1 -1,0 -1,1 -1,1 0,0 0,1 1,1 0,0 2,0 2,0 3,0 4,2 4,4 0,3 0,5 0,18l0 10c0,9 -1,16 -5,20 -3,4 -8,6 -13,6 -4,0 -8,0 -12,-4 -4,-3 -6,-9 -6,-20l0 -12c0,-13 0,-15 0,-18 0,-2 1,-4 3,-4 1,0 2,0 2,0 0,0 1,-1 1,-1 0,0 -1,-1 -2,-1 -2,0 -7,1 -8,1 0,0 -5,-1 -9,-1 -1,0 -1,1 -1,1 0,0 0,1 0,1 1,0 2,0 3,0 3,0 3,2 4,4 0,3 0,5 0,18l0 12zm110 -5c0,15 10,33 32,33 20,0 33,-16 33,-34 0,-19 -14,-31 -33,-31 -22,0 -32,19 -32,32zm8 -2c0,-18 10,-27 24,-27 13,0 25,11 25,30 0,24 -15,28 -23,28 -15,0 -26,-12 -26,-31zm-408 -63c0,3 0,6 -1,8 0,1 0,1 -1,1 0,1 0,1 -1,1 0,0 0,0 0,0 0,0 0,0 1,0 0,0 1,0 2,0 0,0 1,0 1,0 1,0 2,0 3,0 2,0 4,0 7,0 1,0 2,0 2,-1 0,0 0,-3 0,-3 0,0 0,-1 0,-1 0,0 0,1 0,1 -1,1 -1,2 -2,2 -1,1 -3,1 -4,1 -3,0 -4,-1 -4,-3 0,-1 0,-5 0,-6l0 -3c0,0 0,0 0,0 1,0 5,0 6,0 1,0 1,0 2,1 0,0 0,1 0,1 0,0 0,0 0,0 0,0 0,0 0,0 0,0 0,-2 1,-3 0,-1 0,-1 0,-2 0,0 0,0 0,0 -1,0 -1,0 -1,1 0,0 -1,0 -2,0 -1,0 -5,0 -6,0 0,0 0,0 0,0l0 -10c0,0 0,0 0,0 1,0 5,0 5,0 2,0 3,0 3,1 0,0 0,1 0,1 0,1 0,1 1,1 0,0 0,0 0,-1 0,0 0,-2 0,-2 0,-1 0,-1 0,-2 0,0 0,0 0,0 0,0 0,0 0,0 -1,0 -1,0 -2,0 -1,0 -8,0 -9,0 0,0 -2,0 -4,0 0,0 -1,0 -1,1 0,0 1,0 1,0 0,0 1,0 1,0 1,0 1,1 1,2 1,1 1,2 1,8l0 6zm21 -6c0,-6 0,-7 0,-8 0,-1 0,-2 1,-2 0,0 1,0 1,0 0,0 0,0 0,0 0,-1 0,-1 0,-1 -1,0 -4,0 -4,0 0,0 -3,0 -4,0 -1,0 -1,0 -1,1 0,0 0,0 0,0 1,0 1,0 2,0 1,0 1,1 1,2 0,1 0,2 0,8l0 6c0,3 0,6 0,8 0,1 0,1 -1,1 0,1 -1,1 -1,1 0,0 0,0 0,0 0,0 0,0 0,0 1,0 2,0 2,0 1,0 2,0 2,0 1,0 2,0 4,0 2,0 4,0 6,0 2,0 2,0 3,-1 0,-1 0,-3 0,-3 0,-1 0,-1 0,-1 0,0 0,0 -1,1 0,0 0,1 0,2 -1,1 -3,1 -5,1 -3,0 -4,0 -5,-1 0,-1 0,-3 0,-8l0 -6zm34 20c0,-6 4,-17 12,-27 0,4 0,8 0,12 0,11 -2,21 -8,21 -3,0 -4,-2 -4,-6zm97 6c-1,0 -2,0 -2,-1 0,-3 10,-20 10,-24 0,-2 -2,-3 -4,-3 -7,0 -13,7 -18,11 0,0 0,0 0,0 3,-8 4,-9 4,-10 0,-1 0,-1 -1,-1 0,0 -1,0 -3,0 -1,0 -4,0 -4,0 -1,0 -1,0 -1,1 0,0 0,1 1,1 1,0 1,0 1,1 0,1 -2,6 -8,19 -2,6 -4,11 -4,11 0,0 0,1 0,1 0,0 0,0 1,0 2,0 4,0 4,0 0,0 7,-16 8,-18 2,-3 12,-12 15,-12 1,0 2,0 2,2 0,5 -9,20 -9,25 0,2 0,3 3,3 5,0 12,-8 13,-10 0,0 0,-1 0,-1 0,0 0,0 0,0 -1,0 -1,0 -1,0 -3,3 -6,5 -7,5zm-36 -17c-5,9 -14,18 -18,18 -1,0 -2,-1 -2,-2 0,-1 1,-3 2,-6 7,-15 9,-19 9,-20 0,-1 -1,-1 -1,-1 -1,0 -2,0 -3,0 -2,0 -4,0 -5,0 0,0 0,0 0,1 0,0 0,1 0,1 1,0 2,0 2,1 0,1 -2,6 -8,19 -1,3 -3,7 -3,9 0,2 1,3 3,3 5,0 16,-9 18,-12 0,0 0,0 0,0 0,0 0,0 0,0 -1,3 -3,7 -3,9 0,2 1,3 3,3 6,0 13,-8 14,-10 0,0 0,-1 0,-1 0,0 0,0 -1,0 0,0 0,0 0,0 -3,3 -6,5 -7,5 -1,0 -2,0 -2,-1 0,-1 1,-2 2,-6 7,-15 9,-19 9,-20 0,-1 0,-1 -1,-1 -5,0 -5,0 -5,1 0,2 -1,5 -3,10zm119 -44c-8,0 -17,4 -25,12 -10,0 -27,-5 -39,-5 -18,0 -27,7 -27,13 0,3 4,6 12,6 8,0 17,-4 17,-8 0,-1 -1,-1 -2,-1 0,0 -1,0 -1,0 -1,5 -8,8 -14,8 -7,0 -10,-2 -10,-5 0,-4 9,-10 24,-10 15,0 28,3 39,4 -5,5 -11,12 -16,21 -1,-1 -4,-2 -6,-2 -5,0 -11,3 -15,8 -6,6 -11,15 -11,21 0,3 1,5 5,5 7,0 16,-10 18,-12 -1,2 -2,5 -2,8 0,2 1,4 3,4 6,0 13,-8 14,-10 0,0 0,-1 0,-1 0,0 0,0 -1,0 0,0 0,0 0,0 -3,3 -6,5 -8,5 0,0 -1,0 -1,-1 0,-4 10,-31 24,-46 18,-1 27,-8 27,-11 0,-2 -2,-3 -5,-3zm-43 38c-2,4 -4,8 -6,12 -4,6 -11,12 -16,12 -1,0 -2,-1 -2,-3 0,-5 3,-12 7,-17 4,-5 9,-8 13,-8 2,0 4,1 4,4l0 0zm44 -36c0,3 -9,10 -22,10 6,-6 13,-11 20,-11 2,0 2,1 2,1zm-13 31c-11,0 -23,17 -23,27 0,4 2,7 7,7 11,0 21,-13 23,-23 2,0 4,0 6,0 7,0 12,-1 16,-3 8,3 17,5 26,5 13,0 16,-4 16,-7 0,-2 -1,-3 -3,-3 0,0 -1,0 -1,0 -1,5 -8,8 -14,8 -8,0 -15,-2 -23,-4 7,-3 9,-8 9,-12 0,-7 -5,-13 -15,-13 -5,0 -8,3 -8,6 0,2 1,3 3,3 0,0 1,0 1,-1 0,-4 1,-7 5,-7 6,0 10,5 10,12 0,4 -2,8 -7,12 -10,-4 -19,-7 -28,-7zm-17 24c0,-7 6,-19 12,-21 0,3 2,6 8,7 0,8 -7,20 -15,20 -3,0 -5,-3 -5,-6zm23 -22c6,1 13,3 21,5 -4,2 -8,3 -13,3 -2,0 -4,0 -6,-1 0,0 0,-1 0,-2 0,-2 -1,-4 -2,-5zm-8 1c3,0 5,3 5,6 -3,-1 -5,-4 -5,-6z"/>
  </g>
 </g>
</svg>
